<?xml version="1.0" encoding="utf-8"?>
<!-- Generator: Adobe Illustrator 23.0.1, SVG Export Plug-In . SVG Version: 6.00 Build 0)  -->
<svg version="1.1" id="Capa_1" xmlns="http://www.w3.org/2000/svg" xmlns:xlink="http://www.w3.org/1999/xlink" x="0px" y="0px"
	 viewBox="0 0 512 512" style="enable-background:new 0 0 512 512;" xml:space="preserve">
<style type="text/css">
	.st0{fill:#07B2CD;}
	.st1{fill:#0199B1;}
	.st2{fill:#EDF5FA;}
	.st3{fill:#D0E7F2;}
	.st4{fill:#00CEFE;}
	.st5{fill:#02C7DD;}
	.st6{fill:#BD80E1;}
	.st7{fill:#B7D9EB;}
	.st8{fill:#00F2A6;}
	.st9{fill:#05E39C;}
	.st10{fill:#F6C2E0;}
	.st11{fill:#F6A6D2;}
	.st12{fill:#FE5CA7;}
	.st13{fill:#FE3D97;}
	.st14{fill:#AF66DA;}
	.st15{fill:#9857BD;}
	.st16{fill:#017297;}
	.st17{fill:#025F80;}
</style>
<g>
	<path class="st0" d="M335.3,270.8H174.6l-11.8,196.7h184.4L335.3,270.8z M300.3,391c0,23.4-19,42.4-42.4,42.4h-3.7
		c-23.4,0-42.4-19-42.4-42.4v-26.6c0-23.4,19-42.4,42.4-42.4h3.7c23.4,0,42.4,19,42.4,42.4V391z"/>
	<g>
		<path class="st1" d="M244.3,323.2c-3.1-0.7-6.4-1.2-9.8-1.2h-3.7c-23.4,0-42.4,19-42.4,42.4V391c0,23.4,19,42.4,42.4,42.4h3.7
			c3.4,0,6.7-0.4,9.8-1.2c-18.7-4.4-32.6-21.2-32.6-41.2v-26.6C211.7,344.4,225.6,327.6,244.3,323.2L244.3,323.2z"/>
		<path class="st1" d="M335.3,270.8h-23.4l11.8,196.7h23.4L335.3,270.8z"/>
	</g>
	<path class="st2" d="M512,342.5H0V52.8c0-18.1,14.6-32.7,32.7-32.7h446.6c18.1,0,32.7,14.6,32.7,32.7V342.5z"/>
	<path class="st3" d="M479.3,20.2H32.7c0,0,0,0,0,0h422.6c18.1,0,32.7,14.6,32.7,32.7v289.7h24V52.8C512,34.8,497.4,20.2,479.3,20.2
		L479.3,20.2z"/>
	<path class="st4" d="M0,328.6v14.9c0,18.9,15.3,34.1,34.1,34.1h443.7c18.9,0,34.1-15.3,34.1-34.1v-14.9H0z"/>
	<path class="st5" d="M488.1,328.6v14.9c0,18.9-15.3,34.1-34.1,34.1h23.9c18.9,0,34.1-15.3,34.1-34.1v-14.9H488.1z"/>
	<g>
		<path class="st4" d="M414.7,491.8c-2.7,0-5.3-1.4-6.7-4c-4.4-7.8-12.7-12.7-21.6-12.7H125.6c-9,0-17.2,4.9-21.6,12.7
			c-2.1,3.7-6.8,5.1-10.5,3c-3.7-2.1-5.1-6.8-3-10.5c7.1-12.7,20.6-20.6,35.1-20.6h260.7c14.5,0,28,7.9,35.1,20.6
			c2.1,3.7,0.8,8.4-3,10.5C417.3,491.5,416,491.8,414.7,491.8z"/>
	</g>
	<g>
		<circle class="st6" cx="465.6" cy="53.3" r="7.6"/>
		<circle class="st7" cx="441.6" cy="53.3" r="7.6"/>
		<g>
			<path class="st7" d="M105,61H51.1c-4.3,0-7.7-3.5-7.7-7.7s3.5-7.7,7.7-7.7H105c4.3,0,7.7,3.5,7.7,7.7S109.2,61,105,61z"/>
		</g>
	</g>
	<g>
		<g>
			<path class="st3" d="M443.1,131.9v143.1c0,6.8-5.5,12.3-12.3,12.3H105.6c-6.8,0-12.3-5.5-12.3-12.3V131.9
				c0-6.8,5.5-12.3,12.3-12.3h325.2C437.6,119.6,443.1,125.1,443.1,131.9z"/>
			<path class="st7" d="M430.8,287.2c6.8,0,12.3-5.5,12.3-12.3V131.9c0-6.8-5.5-12.3-12.3-12.3h-21.3c6.8,0,12.2,5.5,12.2,12.3
				v143.1c0,6.8-5.5,12.3-12.3,12.3L430.8,287.2L430.8,287.2z"/>
		</g>
		<g>
			<g>
				<path class="st8" d="M184.8,187.4l-3.2,99.8H81.2c-6.8,0-12.3-5.5-12.3-12.3v-83L184.8,187.4z"/>
			</g>
			<path class="st9" d="M184.8,187.4l-3.2,99.8H160v-95.3L184.8,187.4z"/>
		</g>
		<g>
			<path class="st10" d="M382,108.9v83H167.8v-83c0-6.8,5.5-12.3,12.3-12.3h189.6C376.5,96.6,382,102.1,382,108.9L382,108.9z"/>
			<path class="st11" d="M349.9,96.6h19.8v95.3h-19.8V96.6z"/>
		</g>
		<path class="st12" d="M181.5,96.6v95.3H68.9v-83c0-6.8,5.5-12.3,12.3-12.3L181.5,96.6z"/>
		<path class="st13" d="M160,96.6h21.6v95.3H160V96.6z"/>
		<path class="st14" d="M181.5,191.9h113.8v95.3H181.5L181.5,191.9z"/>
		<path class="st15" d="M274,191.9h21.4v95.3H274V191.9z"/>
		<g>
			<path class="st16" d="M443.1,108.9v83h-64.9l-8.5-11.2V96.6h61.1c0.9,0,1.7,0.1,2.5,0.3c2.4,0.5,2.1,3.9,3.8,5.6
				c1.7,1.7,5.4,1.8,5.8,4.2C443,107.4,443.1,108.1,443.1,108.9z"/>
			<path class="st17" d="M430.8,96.6h-21.4c6.8,0,12.3,5.5,12.3,12.3v83h21.4v-83c0-0.7-0.1-1.5-0.2-2.2c-0.4-2.3-4.9-2-6.4-3.7
				c-1.7-2-0.6-5.6-3.2-6.2C432.5,96.7,431.6,96.6,430.8,96.6L430.8,96.6z"/>
		</g>
		<g>
			<path class="st8" d="M126.3,164.6c-10.7,0-19.3-8.7-19.3-19.3c0-10.7,8.7-19.3,19.3-19.3c10.7,0,19.3,8.7,19.3,19.3
				C145.6,155.9,136.9,164.6,126.3,164.6z M126.3,133.9c-6.3,0-11.4,5.1-11.4,11.4c0,6.3,5.1,11.4,11.4,11.4
				c6.3,0,11.4-5.1,11.4-11.4C137.6,139,132.5,133.9,126.3,133.9z"/>
		</g>
		<g>
			<path class="st12" d="M126.3,269.9c-16.7,0-30.3-13.6-30.3-30.3c0-16.7,13.6-30.4,30.3-30.4c16.7,0,30.4,13.6,30.4,30.4
				C156.6,256.3,143,269.9,126.3,269.9z M126.3,221.7c-9.8,0-17.8,8-17.8,17.8c0,9.8,8,17.8,17.8,17.8c9.8,0,17.8-8,17.8-17.8
				C144.1,229.7,136.1,221.7,126.3,221.7z"/>
		</g>
		<g>
			<path class="st2" d="M238.5,254.8c-9.7,0-17.5-7.9-17.5-17.5c0-9.7,7.9-17.5,17.5-17.5c9.7,0,17.5,7.9,17.5,17.5
				C256,247,248.1,254.8,238.5,254.8z M238.5,227c-5.7,0-10.3,4.6-10.3,10.3c0,5.7,4.6,10.3,10.3,10.3c5.7,0,10.3-4.6,10.3-10.3
				C248.8,231.6,244.1,227,238.5,227z"/>
		</g>
		<g>
			<path class="st2" d="M264.3,266.6c-3.1,0-5.6-2.5-5.6-5.6c0-3.1,2.5-5.6,5.6-5.6c3.1,0,5.6,2.5,5.6,5.6
				C269.9,264.1,267.4,266.6,264.3,266.6z M264.3,257.7c-1.8,0-3.3,1.5-3.3,3.3c0,1.8,1.5,3.3,3.3,3.3c1.8,0,3.3-1.5,3.3-3.3
				C267.6,259.2,266.1,257.7,264.3,257.7z"/>
		</g>
		<g>
			<path class="st2" d="M202.8,230c-1.6,0-3-1.3-3-3c0-1.6,1.3-3,3-3c1.6,0,3,1.3,3,3C205.8,228.6,204.5,230,202.8,230z
				 M202.8,225.3c-1,0-1.7,0.8-1.7,1.7c0,1,0.8,1.7,1.7,1.7c1,0,1.7-0.8,1.7-1.7C204.6,226,203.8,225.3,202.8,225.3z"/>
		</g>
		<g>
			<path class="st11" d="M301.7,140.4h-30.6c-3.8,0-6.8-3-6.8-6.8s3-6.8,6.8-6.8h30.6c3.8,0,6.8,3,6.8,6.8S305.4,140.4,301.7,140.4z
				"/>
		</g>
		<g>
			<path class="st11" d="M336.2,165.4h-65.1c-3.8,0-6.8-3-6.8-6.8s3-6.8,6.8-6.8h65.1c3.8,0,6.8,3,6.8,6.8S339.9,165.4,336.2,165.4z
				"/>
		</g>
		<g>
			<path class="st7" d="M404.3,232H372c-3.8,0-6.8-3-6.8-6.8s3-6.8,6.8-6.8h32.3c3.8,0,6.8,3,6.8,6.8S408.1,232,404.3,232z"/>
		</g>
		<g>
			<path class="st7" d="M404.3,257.1h-65.1c-3.8,0-6.8-3-6.8-6.8s3-6.8,6.8-6.8h65.1c3.8,0,6.8,3,6.8,6.8S408.1,257.1,404.3,257.1z"
				/>
		</g>
		<g>
			<g>
				<path class="st16" d="M442.9,106.7l-21.2,27.9l-43.5,57.3h-8.5v-11.2l52-68.5l11.6-15.3h0c0.3,0.1,0.5,0.1,0.8,0.2
					C438.1,98.5,441.8,101,442.9,106.7L442.9,106.7z"/>
			</g>
			<path class="st17" d="M442.9,106.7l-21.2,27.9v-22.5c0,0,11.6-15.3,11.6-15.3c0.3,0.1,0.5,0.1,0.8,0.2
				C438.1,98.5,441.8,101,442.9,106.7z"/>
		</g>
		<circle class="st7" cx="339.3" cy="225.2" r="6.7"/>
		<g>
			<path class="st16" d="M339.3,232.1c-3.8,0-6.8-3.1-6.8-6.8c0-3.8,3.1-6.8,6.8-6.8c3.8,0,6.8,3.1,6.8,6.8
				C346.1,229,343,232.1,339.3,232.1z M339.3,221.2c-2.2,0-4,1.8-4,4c0,2.2,1.8,4,4,4c2.2,0,4-1.8,4-4
				C343.3,223,341.5,221.2,339.3,221.2z"/>
		</g>
		<g>
			<path class="st11" d="M228.2,165.4c-11.1,0-20.2-9-20.2-20.2c0-11.1,9-20.2,20.2-20.2c11.1,0,20.2,9,20.2,20.2
				C248.3,156.4,239.3,165.4,228.2,165.4z M228.2,133.4c-6.5,0-11.8,5.3-11.8,11.8c0,6.5,5.3,11.8,11.8,11.8
				c6.5,0,11.8-5.3,11.8-11.8C240,138.7,234.7,133.4,228.2,133.4z"/>
		</g>
		<g>
			<path class="st3" d="M406.3,157.1c-7.1,0-12.9-5.8-12.9-12.9c0-7.1,5.8-12.9,12.9-12.9c7.1,0,12.9,5.8,12.9,12.9
				C419.2,151.3,413.4,157.1,406.3,157.1z M406.3,136.7c-4.2,0-7.6,3.4-7.6,7.6c0,4.2,3.4,7.6,7.6,7.6c4.2,0,7.6-3.4,7.6-7.6
				C413.9,140.1,410.5,136.7,406.3,136.7z"/>
		</g>
	</g>
</g>
</svg>
