<?xml version="1.0" encoding="utf-8"?>
<!-- Generator: Adobe Illustrator 23.0.1, SVG Export Plug-In . SVG Version: 6.00 Build 0)  -->
<svg version="1.1" id="Capa_1" xmlns="http://www.w3.org/2000/svg" xmlns:xlink="http://www.w3.org/1999/xlink" x="0px" y="0px"
	 viewBox="0 0 512 512" style="enable-background:new 0 0 512 512;" xml:space="preserve">
<style type="text/css">
	.st0{fill:#EDF5FA;}
	.st1{fill:#D0E7F2;}
	.st2{fill:#017297;}
	.st3{fill:#FE5CA7;}
	.st4{fill:#FE3D97;}
	.st5{fill:#00CEFE;}
	.st6{fill:#02C7DD;}
	.st7{fill:#AF66DA;}
	.st8{fill:#00F2A6;}
	.st9{fill:#30DDE5;}
</style>
<g>
	<path class="st0" d="M405.9,80.2c-1.6,0-3.3,0.1-4.9,0.2C386.9,33.9,343.7,0,292.6,0c-41.5,0-77.8,22.3-97.5,55.6
		c-8.1-5.1-17.6-8-27.9-8c-22.3,0-41.4,14-49,33.6c-3.9-0.7-8-1-12.1-1c-40.4,0-73.2,32.8-73.2,73.2s32.8,73.2,73.2,73.2h299.8
		c40.4,0,73.2-32.8,73.2-73.2S446.3,80.2,405.9,80.2L405.9,80.2z"/>
	<g>
		<path class="st1" d="M405.9,80.2c-1.6,0-3.3,0.1-4.9,0.2C386.9,33.9,343.7,0,292.6,0c-4.5,0-8.9,0.3-13.3,0.8
			c43.5,5.1,79.4,34.8,93.5,74.8c1,2.8,3.6,4.7,6.5,4.7c3.2,0,7.1,0.2,8.8,0.4c36.1,4.4,64.1,35,64.3,72.3
			c0.2,40.4-33.8,73.5-74.3,73.5h27.8c40.4,0,73.2-32.8,73.2-73.2C479.1,113,446.3,80.2,405.9,80.2L405.9,80.2z"/>
	</g>
	<g>
		<path class="st2" d="M256,293.4c-4.3,0-7.7-3.5-7.7-7.7V121.6c0-4.3,3.5-7.7,7.7-7.7c4.3,0,7.7,3.5,7.7,7.7v164.1
			C263.7,289.9,260.3,293.4,256,293.4z"/>
	</g>
	<g>
		<path class="st2" d="M182.6,293.4c-4.3,0-7.7-3.5-7.7-7.7v-88.1c0-7.5,2.9-14.6,8.2-19.9l21.8-21.8c3-3,7.9-3,10.9,0
			c3,3,3,7.9,0,10.9l-21.8,21.8c-2.4,2.4-3.7,5.6-3.7,9v88.1C190.4,289.9,186.9,293.4,182.6,293.4z"/>
	</g>
	<g>
		<path class="st2" d="M122.2,172.4c-2,0-4-0.8-5.5-2.3c-3-3-3-7.9,0-10.9l38.7-38.7c4.9-4.9,11.5-7.6,18.4-7.6h76.7
			c4.3,0,7.7,3.5,7.7,7.7c0,4.3-3.5,7.7-7.7,7.7h-76.7c-2.8,0-5.5,1.1-7.5,3.1l-38.7,38.7C126.1,171.6,124.1,172.4,122.2,172.4
			L122.2,172.4z"/>
	</g>
	<circle class="st3" cx="256" cy="120.5" r="20.3"/>
	<path class="st4" d="M256,100.3c-3.7,0-7.2,1-10.1,2.7c6,3.5,10.1,10,10.1,17.5s-4.1,14-10.1,17.5c3,1.7,6.4,2.7,10.1,2.7
		c11.2,0,20.3-9.1,20.3-20.3S267.2,100.3,256,100.3L256,100.3z"/>
	<circle class="st3" cx="114.2" cy="171.4" r="20.3"/>
	<path class="st4" d="M114.2,151.1c-3.7,0-7.1,1-10.1,2.7c6,3.5,10.1,10,10.1,17.5c0,7.5-4.1,14-10.1,17.5c3,1.7,6.4,2.7,10.1,2.7
		c11.2,0,20.3-9.1,20.3-20.3C134.5,160.2,125.4,151.1,114.2,151.1L114.2,151.1z"/>
	<path class="st5" d="M393.1,512H118.9c-13.7,0-24.9-11.1-24.9-24.9V294c0-13.7,11.1-24.9,24.9-24.9h274.3
		c13.7,0,24.9,11.1,24.9,24.9v193.1C418,500.9,406.9,512,393.1,512z"/>
	<path class="st6" d="M393.1,269.1h-18.3c13.7,0,24.9,11.1,24.9,24.9v193.1c0,13.7-11.1,24.9-24.9,24.9h18.3
		c13.7,0,24.9-11.1,24.9-24.9V294C418,280.3,406.9,269.1,393.1,269.1z"/>
	<g>
		<path class="st7" d="M387.7,306.1v77.4l-4,7.7l4,7.7v77.4c0,4.4-3.6,8-8,8H132.2c-4.4,0-8-3.6-8-8V399l2.6-7.7l-2.6-7.7v-77.4
			c0-4.4,3.6-8,8-8h247.5C384.2,298.2,387.7,301.7,387.7,306.1L387.7,306.1z"/>
	</g>
	<g>
		<path class="st8" d="M387.7,306.1v77.4H124.3v-77.4c0-4.4,3.6-8,8-8h247.5C384.2,298.2,387.7,301.7,387.7,306.1L387.7,306.1z"/>
	</g>
	<g>
		<path class="st9" d="M387.7,383.5l3.3,7.7l-3.3,7.7H124.3l-3.5-7.7l3.5-7.7H387.7z"/>
	</g>
	<g>
		<path class="st0" d="M242.4,352.4h-81c-4.3,0-7.7-3.5-7.7-7.7c0-4.3,3.5-7.7,7.7-7.7h81c4.3,0,7.7,3.5,7.7,7.7
			C250.2,349,246.7,352.4,242.4,352.4z"/>
	</g>
	<circle class="st7" cx="350.3" cy="344.7" r="7.6"/>
	<circle class="st7" cx="286.1" cy="344.7" r="7.6"/>
	<g>
		<path class="st0" d="M242.4,444.6h-81c-4.3,0-7.7-3.5-7.7-7.7c0-4.3,3.5-7.7,7.7-7.7h81c4.3,0,7.7,3.5,7.7,7.7
			C250.2,441.1,246.7,444.6,242.4,444.6z"/>
	</g>
	<g>
		<circle class="st8" cx="350.3" cy="436.9" r="7.6"/>
		<circle class="st8" cx="286.1" cy="436.9" r="7.6"/>
		<circle class="st8" cx="319.1" cy="436.9" r="7.6"/>
	</g>
	<g>
		<path class="st2" d="M319.1,352.4c-4.3,0-7.7-3.5-7.7-7.7V204.1c0-7.2,2.8-14,7.9-19l21-21c2.2-2.2,3.4-5.1,3.4-8.1V72.3
			c0-4.3,3.5-7.7,7.7-7.7c4.3,0,7.7,3.5,7.7,7.7v83.7c0,7.2-2.8,14-7.9,19l-21,21c-2.2,2.2-3.4,5.1-3.4,8.1v140.6
			C326.9,349,323.4,352.4,319.1,352.4z"/>
	</g>
	<circle class="st3" cx="351.4" cy="72.3" r="20.3"/>
	<path class="st4" d="M351.4,52c-3.7,0-7.1,1-10.1,2.7c6,3.5,10.1,10,10.1,17.5s-4.1,14-10.1,17.5c3,1.7,6.4,2.7,10.1,2.7
		c11.2,0,20.3-9.1,20.3-20.3C371.6,61.1,362.6,52,351.4,52z"/>
</g>
</svg>
