<?xml version="1.0" encoding="utf-8"?>
<!-- Generator: Adobe Illustrator 23.0.1, SVG Export Plug-In . SVG Version: 6.00 Build 0)  -->
<svg version="1.1" id="Capa_1" xmlns="http://www.w3.org/2000/svg" xmlns:xlink="http://www.w3.org/1999/xlink" x="0px" y="0px"
	 viewBox="0 0 512 512" style="enable-background:new 0 0 512 512;" xml:space="preserve">
<style type="text/css">
	.st0{fill:#07B2CD;}
	.st1{fill:#0199B1;}
	.st2{fill:#EDF5FA;}
	.st3{fill:#D0E7F2;}
	.st4{fill:#00F2A6;}
	.st5{fill:#05E39C;}
	.st6{fill:#F6C2E0;}
	.st7{fill:#00CEFE;}
	.st8{fill:#02C7DD;}
	.st9{fill:#F6A6D2;}
	.st10{fill:#AF66DA;}
	.st11{fill:#9857BD;}
	.st12{fill:#FFDFCF;}
	.st13{fill:#FFCEBF;}
	.st14{fill:#FE5CA7;}
	.st15{fill:#FE3D97;}
</style>
<g>
	<path class="st0" d="M303.1,310.4H157.8l-10.7,177.8h166.7L303.1,310.4z M271.4,420c0,20.7-16.8,37.5-37.5,37.5h-5.1
		c-20.7,0-37.5-16.8-37.5-37.5v-25.8c0-20.7,16.8-37.5,37.5-37.5h5.1c20.7,0,37.5,16.8,37.5,37.5V420z"/>
	<g>
		<path class="st1" d="M220.2,357.7c-2.8-0.7-5.7-1-8.6-1h-5.1c-20.7,0-37.5,16.8-37.5,37.5V420c0,20.7,16.8,37.5,37.5,37.5h5.1
			c3,0,5.9-0.4,8.6-1c-16.5-3.9-28.8-18.7-28.8-36.4v-25.8C191.4,376.5,203.7,361.6,220.2,357.7L220.2,357.7z"/>
		<path class="st1" d="M303.1,310.4h-22.4l10.7,177.8h22.4L303.1,310.4z"/>
	</g>
	<path class="st2" d="M462.8,116.8v258.4H0V116.8c0-16.1,11.6-29.5,26.9-32.4c2-0.4,4-0.6,6.1-0.6h396.9
		C448,83.9,462.8,98.6,462.8,116.8L462.8,116.8z"/>
	<path class="st3" d="M89.1,83.9v291.3H26.9V84.5c2-0.4,4-0.6,6.1-0.6L89.1,83.9z"/>
	<path class="st3" d="M429.8,83.9h-27.1c18.2,0,32.9,14.7,32.9,32.9v258.4h27.1V116.8C462.8,98.6,448,83.9,429.8,83.9L429.8,83.9z"
		/>
	<g>
		<path class="st4" d="M330.2,366.9H53.8V15.7C53.8,7.6,60.4,1,68.5,1h247c8.1,0,14.7,6.6,14.7,14.7L330.2,366.9L330.2,366.9z"/>
		<path class="st5" d="M315.5,1h-21.8c8.1,0,14.7,6.6,14.7,14.7v351.1h21.8V15.7C330.2,7.6,323.6,1,315.5,1z"/>
	</g>
	<path class="st6" d="M180.3,143.1H95.9c-6.3,0-11.4-5.1-11.4-11.4v-61c0-6.3,5.1-11.4,11.4-11.4h84.4c6.3,0,11.4,5.1,11.4,11.4v61
		C191.6,138,186.6,143.1,180.3,143.1L180.3,143.1z"/>
	<path class="st7" d="M0,362.7v13.5c0,17,13.8,30.8,30.8,30.8h401.1c17,0,30.8-13.8,30.8-30.8v-13.5L0,362.7z"/>
	<path class="st8" d="M435.7,362.7v13.5c0,17-13.8,30.8-30.8,30.8h27.1c17,0,30.8-13.8,30.8-30.8v-13.5L435.7,362.7z"/>
	<path class="st9" d="M180.3,59.3h-22.9c6.3,0,11.4,5.1,11.4,11.4v61c0,6.3-5.1,11.4-11.4,11.4h22.9c6.3,0,11.4-5.1,11.4-11.4v-61
		C191.6,64.4,186.6,59.3,180.3,59.3L180.3,59.3z"/>
	<path class="st2" d="M297.1,318.2h-55.9c-6.3,0-11.4-5.1-11.4-11.4v-42c0-6.3,5.1-11.4,11.4-11.4h55.9c6.3,0,11.4,5.1,11.4,11.4v42
		C308.5,313.1,303.4,318.2,297.1,318.2z"/>
	<path class="st3" d="M297.1,253.5h-22.9c6.3,0,11.4,5.1,11.4,11.4v42c0,6.3-5.1,11.4-11.4,11.4h22.9c6.3,0,11.4-5.1,11.4-11.4v-42
		C308.5,258.5,303.4,253.5,297.1,253.5L297.1,253.5z"/>
	<g>
		<path class="st7" d="M374,511c-2.7,0-5.4-1.4-6.8-4c-3.8-6.8-11-11-18.8-11H114.5c-7.8,0-15,4.2-18.8,11c-2.1,3.8-6.8,5.1-10.6,3
			c-3.8-2.1-5.1-6.8-3-10.6c6.6-11.7,19-19,32.4-19h233.9c13.4,0,25.9,7.3,32.4,19c2.1,3.8,0.8,8.5-3,10.6
			C376.5,510.7,375.2,511,374,511L374,511z"/>
	</g>
	<g>
		<path class="st2" d="M299.9,91.7h-69.4c-4.3,0-7.8-3.5-7.8-7.8s3.5-7.8,7.8-7.8h69.4c4.3,0,7.8,3.5,7.8,7.8S304.2,91.7,299.9,91.7
			z"/>
	</g>
	<g>
		<path class="st2" d="M299.9,120.4h-69.4c-4.3,0-7.8-3.5-7.8-7.8s3.5-7.8,7.8-7.8h69.4c4.3,0,7.8,3.5,7.8,7.8
			S304.2,120.4,299.9,120.4z"/>
	</g>
	<g>
		<path class="st2" d="M290.5,234.6H89.1c-4.3,0-7.8-3.5-7.8-7.8c0-4.3,3.5-7.8,7.8-7.8h201.4c4.3,0,7.8,3.5,7.8,7.8
			C298.3,231.1,294.8,234.6,290.5,234.6z"/>
	</g>
	<g>
		<path class="st2" d="M222.2,204.8h-133c-4.3,0-7.8-3.5-7.8-7.8c0-4.3,3.5-7.8,7.8-7.8h133c4.3,0,7.8,3.5,7.8,7.8
			C230,201.3,226.5,204.8,222.2,204.8z"/>
	</g>
	<g>
		<path class="st2" d="M196.3,281.3h-50.4c-4.3,0-7.8-3.5-7.8-7.8s3.5-7.8,7.8-7.8h50.4c4.3,0,7.8,3.5,7.8,7.8
			S200.6,281.3,196.3,281.3z"/>
	</g>
	<g>
		<path class="st2" d="M109.1,281.3h-20c-4.3,0-7.8-3.5-7.8-7.8s3.5-7.8,7.8-7.8h20c4.3,0,7.8,3.5,7.8,7.8S113.4,281.3,109.1,281.3z
			"/>
	</g>
	<g>
		<path class="st2" d="M196.3,310H89.1c-4.3,0-7.8-3.5-7.8-7.8c0-4.3,3.5-7.8,7.8-7.8h107.1c4.3,0,7.8,3.5,7.8,7.8
			C204,306.5,200.6,310,196.3,310z"/>
	</g>
	<g>
		<path class="st10" d="M456.1,33.2l32.7,32.7L325.2,229.5l-32.7-32.7L456.1,33.2z"/>
		<path class="st11" d="M311,215.4L474.6,51.8L488.8,66L325.2,229.6L311,215.4z"/>
		<path class="st12" d="M325.2,229.5l-32.7-32.7l-5.2,32.4c-0.5,3.2,2.2,5.9,5.4,5.4L325.2,229.5z"/>
		<path class="st13" d="M289,218.8l-1.7,10.5c-0.5,3.2,2.2,5.9,5.4,5.4l32.4-5.2L311,215.3l-18.4,2.9c-1.8,0.3-3.3-1.2-3-3
			L289,218.8z"/>
		<path class="st14" d="M508.9,31l-17.8-17.8c-4.1-4.1-10.8-4.1-14.9,0L451,38.4l32.7,32.7l25.2-25.2C513,41.8,513,35.1,508.9,31
			L508.9,31z"/>
		<path class="st15" d="M508.9,31l-17.8-17.8c-4.1-4.1-10.8-4.1-14.9,0l-6.7,6.7L480.6,31c4.1,4.1,4.1,10.8,0,14.9l-11.1,11.1
			l14.2,14.2l25.2-25.2C513,41.8,513,35.1,508.9,31L508.9,31z"/>
	</g>
</g>
</svg>
