<svg xmlns="http://www.w3.org/2000/svg" xmlns:xlink="http://www.w3.org/1999/xlink" viewBox="0 0 482.847 521.109"><defs><style>.cls-1{isolation:isolate;}.cls-2{fill:#363e4b;}.cls-3{fill:#181c19;}.cls-4{fill:#495363;}.cls-5{fill:#110d0a;}.cls-6{fill:#e6976e;}.cls-7{fill:#9acb34;}.cls-8{fill:#29190d;}.cls-9{fill:#eeaf7e;}.cls-10{fill:#61312e;}.cls-11,.cls-37{fill:#5d5d5d;}.cls-11{opacity:0.1;}.cls-11,.cls-24,.cls-37{mix-blend-mode:multiply;}.cls-12{fill:#6d003a;}.cls-13{fill:#536070;}.cls-14{fill:#7d8fad;}.cls-15{fill:#6a7a91;}.cls-16{fill:#fbf8ef;}.cls-17{fill:#542326;}.cls-18{fill:#ff6e7c;}.cls-18,.cls-37{opacity:0.2;}.cls-19{fill:#e0a379;}.cls-20{fill:#ffcc79;}.cls-21{fill:url(#linear-gradient);}.cls-22{fill:#d3bd90;}.cls-23{fill:#ffecc3;}.cls-24{opacity:0.3;}.cls-25{fill:#536370;}.cls-26{fill:#2f3440;}.cls-27{fill:#fff;}.cls-28{fill:#231f20;}.cls-29{fill:#eb635f;}.cls-30{fill:#8e3333;}.cls-31{fill:#161a23;}.cls-32{fill:#1a0000;}.cls-33{fill:#fff4d7;}.cls-34{fill:#7c503a;}.cls-35{fill:#9f6a4c;}.cls-36{fill:#5b3215;}.cls-38{fill:#c8a17c;}.cls-39{fill:#ffd2ac;}.cls-40{fill:#070707;}.cls-41{fill:#f6d6b9;}</style><linearGradient id="linear-gradient" x1="349.064" y1="322.162" x2="449.89" y2="381.014" gradientUnits="userSpaceOnUse"><stop offset="0" stop-color="#7d8fad"/><stop offset="1" stop-color="#6a7a91"/></linearGradient></defs><title>hero</title><g class="cls-1"><g id="Layer_1" data-name="Layer 1"><path class="cls-2" d="M217.121,437l-41.982-60.826,2.922-33.287,36.855,1.707h6.24l16.759,107.612L201.6,551.615h-8.473l16.041-89.752a10.912,10.912,0,0,1,5.748-8.519l-84.732-1.706V440.846l73.352-5.36S210.8,432.962,217.121,437Z" transform="translate(-61.049 -42.593)"/><path class="cls-3" d="M217.121,437" transform="translate(-61.049 -42.593)"/><path class="cls-2" d="M210.339,453.25l4.577.094a10.912,10.912,0,0,0-5.748,8.519l-16.041,89.752H201.6l36.315-99.409Z" transform="translate(-61.049 -42.593)"/><polygon class="cls-4" points="176.58 407.782 161.724 312.399 157.921 313.952 176.712 410.031 176.777 409.86 176.58 407.782"/><path class="cls-3" d="M219.086,354.789l-1.629-11.141H211.6L180.793,339.1l-.838,12.418A61.859,61.859,0,0,0,219.086,354.789Z" transform="translate(-61.049 -42.593)"/><path class="cls-3" d="M133.483,439.79s-8.985-1.655-10.075,0v1.062s3.608,18.431,2.526,28.025c0,0-1.011,9.595-1.011,11.361,0,0,11.352,1.748,9.846-13.885l-2.694-15.661S131.693,443.272,133.483,439.79Z" transform="translate(-61.049 -42.593)"/><path class="cls-5" d="M124.923,480.238a7.022,7.022,0,0,0,1.016.06c3.29-10.457-.668-33.5-2.072-40.866a1.1,1.1,0,0,0-.459.358v1.062s3.608,18.431,2.526,28.025C125.934,468.877,124.923,478.472,124.923,480.238Z" transform="translate(-61.049 -42.593)"/><path class="cls-5" d="M190.637,557.682a4.366,4.366,0,0,0,.615,1.278.616.616,0,0,0,1.062,0s18.432-3.607,28.025-2.525c0,0,9.595,1.01,11.362,1.01a7.917,7.917,0,0,0,.054-1.256C223.219,553.445,197.584,556.721,190.637,557.682Z" transform="translate(-61.049 -42.593)"/><path class="cls-6" d="M232.269,239.839s19.859-2.837,27.9-12.767c0,0,19.387-27.9,24.588-41.61l.709-4.019s-4.256-5.911-2.6-12.767c0,0,.237-9.929-2.6-14.185,0,0-1.182-4.256,2.364-2.6,0,0,6.62,3.074,5.91,13,0,0,2.838,4.02,5.439-2.127,0,0,4.728-10.876,5.2-16.55s3.073-5.674,4.964-4.492c0,0,1.419,3.31-1.655,11.348,0,0-2.364,8.275-3.547,10.166,0,0,3.783,3.31,8.276-3.782,0,0,5.674-7.093,5.91-11.821,0,0,1.655-3.074,4.019-.946a10.115,10.115,0,0,1-.946,9.693s-5.674,8.511-9.22,10.875c0,0,8.748-5.91,10.4-11.111,0,0,1.655-2.837,3.309-1.892,0,0,3.31,2.365-.236,6.857,0,0-4.256,6.856-10.4,10.638,0,0,10.166-5.437,11.347-9.693,0,0,1.183-2.127,2.838.236,0,0,.946,2.365-2.838,6.857a36.573,36.573,0,0,1-9.692,7.093s-5.2,8.984-10.4,11.348a23.082,23.082,0,0,0-4.887,8.275s-16.392,39.4-26.794,48.23c0,0-13.555,11.033-29.946,15.447Z" transform="translate(-61.049 -42.593)"/><path class="cls-7" d="M268.363,162.135s-14.185,30.577-14.815,35.305l18.6,5.36,6.3-8.826-2.206,11.032s13.869,6.935,27.739,7.881c0,0,9.773-23.957,9.458-40.349C313.441,172.538,282.549,171.592,268.363,162.135Z" transform="translate(-61.049 -42.593)"/><path class="cls-8" d="M297.285,237.947s-3.782,8.038-4.019,12.058c0,0-.473,5.2,4.492,5.437,0,0,7.329.946,10.638-9.457,0,0,2.128-5.91,2.128-8.983,0,0-5.91-6.147-8.038-4.492Z" transform="translate(-61.049 -42.593)"/><path class="cls-9" d="M283.81,205.006s-4.1,16.392,14.815,35.621c0,0,4.728,3.151,8.2-3.783,0,0-15.761-12.294-11.663-30.577Z" transform="translate(-61.049 -42.593)"/><path class="cls-8" d="M270.335,227.309s-3.783,8.038-4.02,12.057c0,0-.472,5.2,4.493,5.438,0,0,7.329.945,10.638-9.457,0,0,2.128-5.91,2.128-8.984,0,0-5.91-6.147-8.038-4.492Z" transform="translate(-61.049 -42.593)"/><path class="cls-9" d="M256.859,194.367s-4.1,16.392,14.816,35.621c0,0,4.728,3.152,8.195-3.782,0,0-15.761-12.295-11.663-30.578Z" transform="translate(-61.049 -42.593)"/><path class="cls-9" d="M325.1,107.917s17.337-8.827,21.435-16.077c0,0-1.734-8.039-4.807-9.221,0,0-3.783-4.492,0-4.019,0,0,4.964.71,6.856,7.329,0,0-.945-13.476,3.783-14.185,0,0,1.182-1.183,1.182,1.418,0,0-1.891,7.329-.947,10.639,0,0,.947-9.22,4.494-10.875,0,0,3.073-1.182,3.073,1.182a29.2,29.2,0,0,1-1.655,4.492s-2.127,5.2-1.892,6.62c0,0,2.6-6.857,6.62-7.8a2.393,2.393,0,0,1,2.6,1.655s-.473,1.891-3.546,3.31a41.66,41.66,0,0,0-3.074,4.728,13.74,13.74,0,0,1,5.438-1.891s2.363-1.182,2.837.946c0,0,.709.236-2.128,1.418,0,0-4.729.473-5.674,1.418,0,0-1.891,4.729-4.965,6.621,0,0-13.24,19.149-25.061,23.169Z" transform="translate(-61.049 -42.593)"/><path class="cls-9" d="M266.478,103.525S252.984,89.51,251.484,81.319c0,0,4.269-7.03,7.56-7.141,0,0,5.044-3.007,1.315-3.8,0,0-4.923-.955-8.877,4.681,0,0,5.3-12.424,1.068-14.642,0,0-.731-1.5-1.581.954,0,0-.612,7.543-2.588,10.362,0,0,2.123-9.022-.686-11.746,0,0-2.518-2.123-3.291.111a29.045,29.045,0,0,0,.094,4.787s.308,5.61-.379,6.873c0,0-.214-7.329-3.7-9.538a2.392,2.392,0,0,0-3,.712s-.172,1.942,2.268,4.289a41.649,41.649,0,0,1,1.357,5.474,13.754,13.754,0,0,0-4.519-3.567s-1.847-1.891-2.99-.034c0,0-.748-.01,1.546,2.036,0,0,4.314,1.994,4.9,3.2,0,0,.239,5.087,2.525,7.88,0,0,6.244,22.429,16.1,30.094Z" transform="translate(-61.049 -42.593)"/><path class="cls-9" d="M184.513,211.705l.945,20.332s12.531,9.22,20.1,5.91l-.946-23.642Z" transform="translate(-61.049 -42.593)"/><path class="cls-9" d="M188.3,137.547c1.432.658,11.664,1.576,18.284,25.534,0,0,6.619,15.13,13.239,20.805a20.2,20.2,0,0,1,4.413,15.76s-.63,9.772-6.619,12.924c0,0-8.826,8.2-30.262,2.837,0,0-7.25-1.575-16.077-7.881,0,0-8.51,7.565-16.076.316,0,0-7.093-10.716.473-11.031,0,0,4.571-.317,6.462.313,0,0-22.066-17.968-16.392-29.947s-7.566-13.554,13.87-25.218,1.261.316,1.261.316S176.631,132.19,188.3,137.547Z" transform="translate(-61.049 -42.593)"/><path class="cls-10" d="M158.664,195.548l3.468,1.576s3.467.63,5.989,1.261c0,0-7.88-7.565-9.142-14.5a17.258,17.258,0,0,0-.945-15.131s6.619-5.674,3.467-11.664c0,0,11.034.946,13.555-7.565,0,0,8.2,3.152,12.924-1.892,0,0,7.25,0,9.457-2.206,0,0,3.468,3.152,6.935,11.663,0,0,.946-8.826-2.837-15.446,0,0,4.1-8.195-5.358-8.826,0,0-.316-10.087-10.4-6.62,0,0-8.826-5.043-12.924,2.837,0,0-10.718-9.142-15.446,1.576,0,0-13.24-3.783-12.609,8.2,0,0-11.349,4.413-6.3,11.348,0,0-9.457,2.837-4.1,10.4,0,0-4.414,8.2,2.206,11.663,0,0-5.36,8.2,2.206,10.718,0,0-5.358,3.467,2.837,5.989,0,0-.631,5.359,6.305,5.044C147.947,193.972,148.262,199.96,158.664,195.548Z" transform="translate(-61.049 -42.593)"/><path class="cls-11" d="M161.186,199.331s-8.511,0-5.043,4.413c0,0,2.206,8.826,12.924,1.26C169.067,205,166.545,207.211,161.186,199.331Z" transform="translate(-61.049 -42.593)"/><path class="cls-10" d="M210.046,162.134c-2.206,0-8.511,3.467-8.511,3.467a4.417,4.417,0,0,0-2.837,3.783c-1.576.315-4.728,2.837-4.728,2.837a6.189,6.189,0,0,0-2.837-1.261c-6.305,1.576-18.914,10.718-18.914,10.718-2.206,1.891,2.207,5.044,2.207,5.044s-12.294,10.087-12.294,10.4l2.521.315L176,187.982a22.451,22.451,0,0,0,5.989,5.044c6.62-1.891,15.131-9.772,15.131-9.772,1.892-2.837-1.576-7.565-1.576-7.565a7.134,7.134,0,0,1,4.728-3.153c2.837,4.1,4.728,5.359,4.728,5.359a25.4,25.4,0,0,0,9.457-5.044A11.179,11.179,0,0,0,210.046,162.134Zm-14.422,19.545c-2.837,5.2-13.476,8.984-13.476,8.984-2.128-.236-6.62-5.91-6.62-5.91-2.127-2.128-.945-2.364-.945-2.364l13.712-8.748c4.019-1.892,4.729.946,4.729.946C196.333,178.842,195.624,181.679,195.624,181.679Zm17.259-9.693s-5.2,4.019-7.8,3.546c0,0-3.31-2.364-4.019-5.91,0,0-2.128-.946,2.837-3.783s5.674-2.364,6.383-1.891C210.282,163.948,214.065,168.44,212.883,171.986Z" transform="translate(-61.049 -42.593)"/><path class="cls-12" d="M200.116,175.769s5.2,7.092,10.876,6.147l-4.493,6.856,1.419-5.2A16.272,16.272,0,0,1,200.116,175.769Z" transform="translate(-61.049 -42.593)"/><path class="cls-12" d="M195.151,200.12s14.185-3.546,18.2-9.93c0,0,3.073,6.384,1.655,9.694C215.011,199.884,209.573,209.34,195.151,200.12Z" transform="translate(-61.049 -42.593)"/><path class="cls-13" d="M184.276,226.127s8.511,6.383,15.368,7.564l2.127,5.675-1.419,1.891-6.383,4.965L180.02,233.928S180.257,231.8,184.276,226.127Z" transform="translate(-61.049 -42.593)"/><path class="cls-13" d="M205.554,228.018s1.372,5.583-1.357,8.334l.331,3.979,1.039.689,3.886,1.012,2.248-9.759S210.519,229.436,205.554,228.018Z" transform="translate(-61.049 -42.593)"/><path class="cls-14" d="M184.04,232.982s-10.4,3.074-14.658,6.857c0,0-4.965,8.747-2.837,30.025,0,0,2.522,52.722,7.25,72.581,0,0,.63,5.043-.631,8.827,0,0,36.409,12.293,54.062,1.261,0,0-.946-.946-.946-7.566,0,0,10.56-89.21,2.994-102.764a45.975,45.975,0,0,0-23.641-11.348S187.98,231.958,184.04,232.982Z" transform="translate(-61.049 -42.593)"/><path class="cls-15" d="M177.578,239.681s31.837-1.261,40.033-7.88c0,0,6.4,20.876,6.651,28.363a9.229,9.229,0,0,1-.031,1.268s-35.305,13.555-45.393,10.088c0,0-11.663-4.1-9.771-21.751A11.325,11.325,0,0,1,177.578,239.681Z" transform="translate(-61.049 -42.593)"/><path class="cls-15" d="M230.851,267.263c2.837-.945,21.277-3.309,26.952-9.93,0,0-8.984-21.277-9.457-26.478,0,0-24.115,8.984-30.735,7.565Z" transform="translate(-61.049 -42.593)"/><path class="cls-16" d="M284.755,110.438c-1.531-.487-17.023-6.935-19.229-12.924,0,0-5.674,11.978-8.511,14.185,0,0,7.25,9.772,14.5,12.924,0,0-6.3,32.154-4.1,39.088,0,0,26.479,13.555,46.653,10.718,0,0,2.523-35.936,5.36-42.24l12.609-10.718-6.305-16.077s-15.132,8.511-21.751,8.827C303.983,114.221,291.69,112.645,284.755,110.438Z" transform="translate(-61.049 -42.593)"/><path class="cls-9" d="M281.287,66.307s-4.413,8.353-5.043,15.445a14.849,14.849,0,0,0-3,15.131s4.1,10.876,13.239,14.028c0,0,15.919,6.3,31.682-3.152,0,0,5.043-3.783,6.3-8.2,0,0,6.305.789,7.881-4.412,0,0,2.206-7.566-4.255-5.517,0,0,4.254-7.722,2.048-15.288s-3.94-10.244-5.831-11.506l-5.673-3.782s-3.468-1.734-4.573-2.365a31.514,31.514,0,0,0-5.2-2.522,13.285,13.285,0,0,0-4.412-.315c-1.576.158-5.518.631-7.408.946s-5.044-.473-6.463-.158-2.048-1.734-4.1-.473a12.855,12.855,0,0,0-4.256,3.625c-.631,1.1-.945,4.572-.945,4.572Z" transform="translate(-61.049 -42.593)"/><path class="cls-10" d="M281.287,66.779s1.262.631,4.73-4.255c0,0,5.2,1.891,7.722-1.419,0,0,10.087,9.142,12.924-1.733,0,0,2.522,6.935,9.142,1.576,0,0,.946,8.037,6.62,6.462,0,0-1.735,4.886,1.733,6.462s-3.625,4.1.788,7.25c0,0-4.728,4.1-.157,11.033,0,0,1.261-2.837,3.31-2.522,0,0,4.1-2.049,4.728,2.207,0,0,3.941.63,2.994-3.625,0,0,4.1-6.147.789-8.984,0,0,1.26-4.729-1.419-6.147,0,0,3-8.826-3.309-8.354,0,0-.317-7.25-4.887-7.092,0,0-.473-5.516-8.2-3.783,0,0,.631-7.722-4.729-8.511,0,0-4.728-.787-5.674,2.837,0,0-3.624-8.669-11.347-4.413,0,0-5.2,2.837-3.31,6.777,0,0-2.837-5.2-6.935-1.261,0,0-5.674-3.151-7.881.316,0,0-3.152,2.679-1.261,5.516,0,0-4.571,0-3.468,4.256,0,0-2.363,1.891-.945,3.94,0,0-1.576,1.418.788,2.837,0,0-5.044,1.577-2.68,5.674,0,0-1.261,2.207,1.892,4.728,0,0,.473,1.1,3.31,2.522C276.559,79.073,279.081,69.616,281.287,66.779Z" transform="translate(-61.049 -42.593)"/><path class="cls-9" d="M287.435,109.02s-.473,5.831,3.151,8.038c0,0,8.985,5.2,14.186-5.831C304.772,111.227,290.744,112.487,287.435,109.02Z" transform="translate(-61.049 -42.593)"/><path class="cls-12" d="M283.967,93.889s11.663,5.2,19.228,2.522c0,0-4.57,7.881-10.718,6.935C292.477,103.346,283.337,103.346,283.967,93.889Z" transform="translate(-61.049 -42.593)"/><path class="cls-17" d="M288.538,85.693s4.57-3.468,8.668,1.576C297.206,87.269,292.32,84.274,288.538,85.693Z" transform="translate(-61.049 -42.593)"/><path class="cls-17" d="M306.663,84.432s6.147-4.1,10.719,3.625A9.979,9.979,0,0,0,306.663,84.432Z" transform="translate(-61.049 -42.593)"/><path class="cls-17" d="M279.869,80.807s5.043-5.043,9.773.788A8.4,8.4,0,0,0,279.869,80.807Z" transform="translate(-61.049 -42.593)"/><path class="cls-10" d="M308.929,80.708c2.577-2.547,7.236-1.211,9.611.99.557.517,1.395-.317.835-.836-2.713-2.515-8.335-3.917-10.928-.525-.217.284.241.609.482.371Z" transform="translate(-61.049 -42.593)"/><path class="cls-10" d="M290.5,76.1c-1.485-2.678-5.22-2.98-7.922-2.545-.617.1-.357,1.047.26.94a8.3,8.3,0,0,1,7.25,1.923.264.264,0,0,0,.412-.318Z" transform="translate(-61.049 -42.593)"/><path class="cls-10" d="M198.622,166.615c.838-2.8,3.042-4.407,5.349-5.979.479-.326.052-1.086-.458-.784-2.534,1.493-4.771,3.664-5.369,6.631a.248.248,0,0,0,.478.132Z" transform="translate(-61.049 -42.593)"/><path class="cls-10" d="M189.242,169.424a27.452,27.452,0,0,0-15.389,5.2c-.525.385-.012,1.272.515.88,4.527-3.366,9.627-4.208,14.947-5.532a.278.278,0,0,0-.073-.544Z" transform="translate(-61.049 -42.593)"/><path class="cls-17" d="M190.327,178.44c1.213,2.473,1.7,4.715,1.089,5.007s-2.091-1.475-3.305-3.944-1.7-4.715-1.09-5.009S189.111,175.966,190.327,178.44Z" transform="translate(-61.049 -42.593)"/><path class="cls-17" d="M206.894,170.489c1.21,2.47,1.778,4.676,1.269,4.92s-1.917-1.557-3.13-4.027-1.779-4.678-1.267-4.924S205.678,168.014,206.894,170.489Z" transform="translate(-61.049 -42.593)"/><path class="cls-9" d="M214.3,237.947s19.859-2.837,27.9-12.767c0,0,19.386-27.9,24.588-41.61l.709-4.018s-4.255-5.911-2.6-12.767c0,0,.237-9.93-2.6-14.185,0,0-1.181-4.256,2.365-2.6,0,0,6.62,3.073,5.91,13,0,0,2.837,4.019,5.438-2.128,0,0,4.728-10.875,5.2-16.549s3.074-5.675,4.966-4.492c0,0,1.418,3.31-1.656,11.348,0,0-2.364,8.275-3.545,10.166,0,0,3.782,3.31,8.274-3.782,0,0,5.673-7.093,5.91-11.821,0,0,1.654-3.074,4.02-.946a10.12,10.12,0,0,1-.947,9.693s-5.673,8.511-9.22,10.875c0,0,8.748-5.91,10.4-11.112,0,0,1.654-2.837,3.309-1.891,0,0,3.31,2.364-.236,6.856,0,0-4.256,6.857-10.4,10.639,0,0,10.166-5.438,11.348-9.693,0,0,1.182-2.128,2.837.236,0,0,.946,2.365-2.837,6.856a36.594,36.594,0,0,1-9.694,7.094s-5.2,8.983-10.4,11.347a23.1,23.1,0,0,0-4.886,8.276s-16.392,39.4-26.794,48.23c0,0-13.554,11.033-29.947,15.446Z" transform="translate(-61.049 -42.593)"/><path class="cls-3" d="M191.252,548.885s-2.153,7.1,0,10.075a.616.616,0,0,0,1.062,0s20.248-1.157,29.841-.075c0,0,7.779-1.44,9.546-1.44,0,0,1.749-11.351-13.886-9.847l-15.662,2.7S194.733,550.677,191.252,548.885Z" transform="translate(-61.049 -42.593)"/><path class="cls-18" d="M317,91.6c-.468,1.677-3.5,2.3-6.769,1.383s-5.54-3.011-5.073-4.689,3.5-2.3,6.769-1.383S317.466,89.925,317,91.6Z" transform="translate(-61.049 -42.593)"/><path class="cls-18" d="M197.475,193.693c.653,2.048-2.057,4.742-6.053,6.014s-7.763.645-8.417-1.4,2.056-4.743,6.053-6.016S196.821,191.643,197.475,193.693Z" transform="translate(-61.049 -42.593)"/><path class="cls-18" d="M287.585,85.814c-.077,1.738-2.891,3.024-6.282,2.871s-6.077-1.686-6-3.426,2.891-3.025,6.283-2.872S287.663,84.074,287.585,85.814Z" transform="translate(-61.049 -42.593)"/><path class="cls-19" d="M362.845,374.929l7.364,69,34.479,92.015s4.018,4.343,7.366,0l-23.1-83.35s-.336-5.28-7.032-8.665l1.676-62.639Z" transform="translate(-61.049 -42.593)"/><path class="cls-5" d="M404.33,534.983s-8.93,13.072-16.881,13.169c0,0-6.445,2.108-6.445,7.129,0,0,11.392,6.779,28.793-13.055v5.02l2.257.906a101.128,101.128,0,0,0,0-12.21S405.62,538.423,404.33,534.983Z" transform="translate(-61.049 -42.593)"/><path class="cls-9" d="M382.929,389.657,367.865,439.2l79.209,72.5s5.72,1.653,4.481-5.545c-.534-3.112-58.582-63.938-58.582-63.938a15.5,15.5,0,0,0-9.372-6.026l21.756-35.151Z" transform="translate(-61.049 -42.593)"/><path class="cls-5" d="M446.228,510.923s5.076,12.472,2.566,19.753c0,0-3.666,5.1,2.937,7.195,0,0,7.607-4.686,3.591-22.008l3.013,2.51,1.506-2.51-8.88-10.73a10.514,10.514,0,0,1-3.887,6.566" transform="translate(-61.049 -42.593)"/><path class="cls-20" d="M392.973,442.216a15.5,15.5,0,0,0-9.372-6.026v1.2a14.457,14.457,0,0,1,8.953,5.524l58.4,62.206C444.779,496.5,392.973,442.216,392.973,442.216Z" transform="translate(-61.049 -42.593)"/><path class="cls-21" d="M351.268,226.759s31.837-17.023,54.849-.947c0,0,23.958,13.241,22.381,53.274,0,0,2.207,16.393-4.729,21.121,0,0-3.466,2.521-5.673,2.836,0,0,10.875,116,12.766,142.009,0,0-71.4,5.674-93.622,0,0,0,10.4-131.923,13.239-151.31,0,0-13.239-7.565-14.185-14.658S340.235,241.576,351.268,226.759Z" transform="translate(-61.049 -42.593)"/><path class="cls-16" d="M382.159,258.6s-7.88-.316-11.348,2.837c0,0-7.25-4.414-9.457-7.881l-6.619,5.674s4.729,8.2,6.936,9.142c0,0-8.512,7.565-9.774,9.457l-1.259,1.891s-8.511-12.608-17.337,1.262c0,0-3.783,8.2-4.1,10.4,0,0-9.141-5.36-11.031-2.207,0,0-2.523,3.152,1.89,9.456l2.207,2.208s-.946,7.88,16.708,15.131c0,0,2.835,1.89,3.466-5.045a29.109,29.109,0,0,0,8.2-8.2s7.249,12.61,21.119,12.294c0,0,33.1-3.782,35.306-44.447l-1.576-6.619-6.305-.316-6.935-.945Z" transform="translate(-61.049 -42.593)"/><path class="cls-9" d="M374.279,263.64s.946-8.195-2.522-8.195a1.462,1.462,0,0,0-1.2,1.6,4.6,4.6,0,0,0,.567,1.872c1.575,3.153-3.468-6.3-5.359-3.783,0,0-1.577.55,2.126,4.648,0,0-3.073-3.625-4.491-2.364,0,0-2.05,1.261,2.679,4.413,0,0-2.522-2.285-3.546-1.1,0,0-.866,1.5,2.285,2.916,0,0-2.049-1.262-2.758.393,0,0-.315.946,2.916,1.892,0,0,1.892,4.1,5.753,3.231A5.366,5.366,0,0,0,374.279,263.64Z" transform="translate(-61.049 -42.593)"/><path class="cls-9" d="M361.2,254.026s.945-8.2-2.522-8.2a1.465,1.465,0,0,0-1.2,1.6,4.632,4.632,0,0,0,.568,1.872c1.575,3.152-3.468-6.305-5.36-3.783,0,0-1.576.55,2.128,4.648,0,0-3.074-3.625-4.491-2.365,0,0-2.051,1.262,2.679,4.414,0,0-2.523-2.286-3.546-1.1,0,0-.867,1.5,2.284,2.916,0,0-2.049-1.261-2.758.394,0,0-.315.946,2.915,1.892,0,0,1.893,4.1,5.754,3.231A5.367,5.367,0,0,0,361.2,254.026Z" transform="translate(-61.049 -42.593)"/><path class="cls-7" d="M396.818,283.34s-19.15.472-27.424-13.949c0,0,6.146,15.6,25.533,16.313C394.927,285.7,395.872,285.468,396.818,283.34Z" transform="translate(-61.049 -42.593)"/><path class="cls-7" d="M357.336,287.832s-9.693-7.329-15.6-5.2c0,0-4.492,1.655-7.565,14.658,0,0-9.142-4.724-11.9,3.549,0,0,5.28-5.913,10.954-1.658l2.6,1.891s.709-12.294,7.329-16.549C343.15,284.522,344.569,281.212,357.336,287.832Z" transform="translate(-61.049 -42.593)"/><path class="cls-12" d="M349.477,141.029a.319.319,0,0,1-.337-.328c0-.9.286-5.743,1.645-7.1a42.526,42.526,0,0,1,5.116-3.337,35.668,35.668,0,0,0,4.942-3.247c.575-.862,2.31-1.169,3.744-1.169a9.56,9.56,0,0,1,1.535.121c1.882.313,2.72.968,2.72,2.125v.116l-.092.071c-.283.219-6.976,5.367-11.373,6.955C356.146,136.267,350.422,141.029,349.477,141.029Zm15.11-14.71c-1.622,0-2.969.385-3.35.958-.331.5-2.144,1.611-5.092,3.39a44.131,44.131,0,0,0-5.026,3.266c-1.093,1.094-1.471,5.205-1.5,6.587.869-.341,4.37-3.054,7.489-5.674l.074-.042c4.049-1.447,10.34-6.181,11.188-6.827-.037-.6-.4-1.223-2.321-1.543A8.939,8.939,0,0,0,364.587,126.319Z" transform="translate(-61.049 -42.593)"/><path class="cls-10" d="M384.052,116.113s-26.794-5.99-39.4,29c0,0-11.979,21.751-6.62,37.512,0,0,.631,25.533,13.87,31.207,0,0,6.3,3.783,17.023.631,0,0,7.881,4.1,14.815.631,0,0,20.175,10.4,30.892,6.619,0,0,11.033,4.434,11.033-17.022,0-1.232-5.115-26.242-1.232-44.442q.135-.639.287-1.266C429.129,140.7,418.412,117.689,384.052,116.113Z" transform="translate(-61.049 -42.593)"/><path class="cls-9" d="M354.735,133.766s-4.1,12.608-3.467,23.326a41.5,41.5,0,0,1-2.836,11.664s-5.045,5.044.314,18.913c0,0,5.044,13.87,14.5,16.392,0,0,13.238,5.044,28.686-8.511a34.2,34.2,0,0,0,5.989-6.62s7.565.631,10.717-6.3c0,0,3.467-5.359-1.576-6.305a3.926,3.926,0,0,0-4.414.631s7.882-15.762,6.936-25.534-23.012-23.326-23.012-23.326l-10.4-2.207-7.566,2.207Z" transform="translate(-61.049 -42.593)"/><path class="cls-9" d="M370.5,201.54s.632,19.228-.629,20.8l-5.359,1.577s4.413,13.871,17.022,9.456c0,0,9.142-5.358,12.293-10.717l-4.412-3.153s-2.838-13.869-.946-22.38Z" transform="translate(-61.049 -42.593)"/><path class="cls-10" d="M363.561,127.146s8.828,24.588,40.665,23.327c0,0-7.88,18.913-1.577,26.479,0,0,6.305-2.838,8.828-.316l5.358-17.022s.631-10.718,0-13.24,0-9.456-5.358-11.348-18.6-5.359-19.86-5.359-17.338-6.619-17.338-6.619-2.206-3.783-4.1-3.783S363.561,127.146,363.561,127.146Z" transform="translate(-61.049 -42.593)"/><path class="cls-9" d="M419.357,280.661s-25.848,13.555-43.186,11.348c0,0-4.414-6.62-10.718-5.359a34.246,34.246,0,0,1-14.185-1.576s-2.207,3.783,5.043,4.729c0,0-10.717,7.881-16.708,6.935,0,0-4.412.63-1.89,2.206,0,0-7.88-.315-3.153,2.522a37.116,37.116,0,0,0,36.251,4.1,58.689,58.689,0,0,1,7.251-2.522s28.371,3.784,42.871-2.521C420.933,300.521,425.03,287.912,419.357,280.661Z" transform="translate(-61.049 -42.593)"/><path class="cls-9" d="M343.387,312.815s7.251,11.032,16.077,13.239c0,0,11.978.945,19.228-6.619a4.346,4.346,0,0,0-3.467.314s6.3-6.3,5.989-10.4-.63-1.262-.63-1.262a145.612,145.612,0,0,0-17.968,5.99s-8.826-6.62-13.87-5.99C348.746,308.085,345.278,304.933,343.387,312.815Z" transform="translate(-61.049 -42.593)"/><path class="cls-9" d="M392.878,225.182s-8.512,4.414-10.4,14.185c0,0-11.665,8.826-5.045,19.229,0,0,6.936,11.348,22.7,10.4,0,0,10.088,0,16.707-5.989,0,0,.945,4.414,6.934.946,0,0,5.36-1.261,2.837-5.99,0,0-2.52-2.836-4.413-2.522,0,0,7.567-5.359,6.305-13.87,0,0-2.206-15.761-15.131-19.228C413.367,222.345,402.019,217.617,392.878,225.182Z" transform="translate(-61.049 -42.593)"/><path class="cls-17" d="M357.616,158.468c0,1.689-.36,2.97-.809,2.86s-.814-1.569-.817-3.257.361-2.969.809-2.861S357.614,156.777,357.616,158.468Z" transform="translate(-61.049 -42.593)"/><path class="cls-17" d="M381.936,164.192c-.143,2-.6,3.557-1.026,3.482s-.661-1.762-.52-3.76.6-3.559,1.031-3.482S382.078,162.19,381.936,164.192Z" transform="translate(-61.049 -42.593)"/><path class="cls-17" d="M378.654,155.089a11.02,11.02,0,0,1,6.146-.779c2.407.411,3.6,2.135,4.87,4.01a.249.249,0,0,0,.452-.191c-.985-5.533-7.806-5.443-11.706-3.448-.277.142-.035.527.238.408Z" transform="translate(-61.049 -42.593)"/><path class="cls-17" d="M365.068,151.905c-1.772-2.789-6.781-6.082-9.909-3.373-.234.2.018.547.284.488a8.057,8.057,0,0,1,4.83-.108,9.8,9.8,0,0,1,4.348,3.337c.2.255.618-.075.447-.344Z" transform="translate(-61.049 -42.593)"/><path class="cls-12" d="M369.888,159.958s-4.383,7.625-10.127,7.315l5.223,6.315L363,168.577A16.275,16.275,0,0,0,369.888,159.958Z" transform="translate(-61.049 -42.593)"/><path class="cls-12" d="M374.752,182.783s-10.988,3.31-15.924-1.966c0,0,.578,3.686,2.033,4.669C360.861,185.486,365.877,188.93,374.752,182.783Z" transform="translate(-61.049 -42.593)"/><path class="cls-17" d="M388.1,240.267c-.637,1.192-1.532,1.957-2,1.708s-.325-1.416.313-2.609,1.531-1.956,2-1.708S388.738,239.074,388.1,240.267Z" transform="translate(-61.049 -42.593)"/><path class="cls-17" d="M404.6,250.85c-.637,1.192-1.531,1.956-2,1.708s-.327-1.417.312-2.609,1.531-1.957,2-1.708S405.233,249.657,404.6,250.85Z" transform="translate(-61.049 -42.593)"/><path class="cls-17" d="M389.252,246.3a4.508,4.508,0,0,1,5.36,3.153S393.351,242.519,389.252,246.3Z" transform="translate(-61.049 -42.593)"/><path class="cls-17" d="M404.445,244.315a4.452,4.452,0,0,1,3.717,1.187,13.564,13.564,0,0,1,2.058,2.78.178.178,0,0,0,.324-.137,5.53,5.53,0,0,0-6.222-4.272c-.291.066-.164.493.123.442Z" transform="translate(-61.049 -42.593)"/><path class="cls-17" d="M393.225,237.79c-.279-2.291-2.087-4.595-4.642-4.241a.148.148,0,0,0-.035.27,11.837,11.837,0,0,1,2.838,1.227,4.275,4.275,0,0,1,1.467,2.794c.036.208.4.161.372-.05Z" transform="translate(-61.049 -42.593)"/><path class="cls-17" d="M384.623,249.828c1.2,3.4,4.359,6.215,8.186,5.305a.334.334,0,0,0-.088-.653,7.736,7.736,0,0,1-4.557-.834,8.068,8.068,0,0,1-3.13-3.991c-.1-.236-.5-.066-.411.173Z" transform="translate(-61.049 -42.593)"/><path class="cls-17" d="M424.559,225.643c-4.1-13.037-14.816-3.725-22.067-5.959,1.892,1.117,3.467,1.861,5.044,2.979a7.365,7.365,0,0,0-3.468,4.842c1.576-.373,3.153-.373,4.729-.745a27.006,27.006,0,0,1-.315,4.842,7.312,7.312,0,0,1,2.837-2.98c0,1.118.315,2.235.315,2.98,1.891-4.47,4.413-1.118,4.413,2.606a7.016,7.016,0,0,0,.631-1.861c.315,1.117.946,2.235,1.26,3.352a8.086,8.086,0,0,1,1.261-1.863,13.281,13.281,0,0,0,.946,2.235,23.21,23.21,0,0,0,2.836-1.489c.316,1.489,1.262,3.352,1.262,4.469,2.522-4.469,1.261-9.684.316-14.153" transform="translate(-61.049 -42.593)"/><path class="cls-18" d="M391.882,180.546c-.578,2.071-4.322,2.836-8.361,1.707s-6.844-3.719-6.266-5.791,4.321-2.836,8.36-1.709S392.46,178.474,391.882,180.546Z" transform="translate(-61.049 -42.593)"/><path class="cls-18" d="M404.3,259.63c-.345,1.238-2.582,1.695-4.995,1.021s-4.089-2.223-3.745-3.461,2.582-1.694,5-1.02S404.649,258.393,404.3,259.63Z" transform="translate(-61.049 -42.593)"/><path class="cls-18" d="M385.684,249.034c-.685,1.087-2.959.886-5.079-.45s-3.284-3.3-2.6-4.385,2.959-.887,5.078.449S386.368,247.947,385.684,249.034Z" transform="translate(-61.049 -42.593)"/><path class="cls-18" d="M358.912,174.693c-.578,2.071-3.609,3.035-6.769,2.152s-5.254-3.276-4.676-5.347,3.609-3.036,6.769-2.154S359.49,172.62,358.912,174.693Z" transform="translate(-61.049 -42.593)"/><path class="cls-11" d="M421.563,257.019s4.729.945,3.074,4.019c0,0-1.891,4.492-4.729,2.6l-2.6-2.6S421.563,258.438,421.563,257.019Z" transform="translate(-61.049 -42.593)"/><path class="cls-11" d="M399.34,186.093s3.309-6.147,3.783-8.275c0,0,4.965-1.182,4.965,1.182C408.088,179,406.905,189.166,399.34,186.093Z" transform="translate(-61.049 -42.593)"/><path class="cls-22" d="M143.891,504.1c5.18,3.021,7.337,3.885,11.652-1.294,2.159-3.453,14.783-15.754,6.367-18.992-3.6-1.386-11.113,8.633-13.27,9.929-3.022,2.158-9.5,6.041-3.884,11.221" transform="translate(-61.049 -42.593)"/><path class="cls-23" d="M87.889,532.688c-3.8,2.04-6,6.16-10.821,6.3-12.335.748-6.21-14.3-2.62-10.348-2.3-6.112-10.342-3.753-12.512,1.33-3.1,6.075,2.5,12.862,8.169,15.208,5.084,2.167,11.837,1.969,16.574-1.064,3.218-2.217,7.613-10.455,1.064-9.879" transform="translate(-61.049 -42.593)"/><path class="cls-22" d="M132.659,538.729c1.721-7.87,9.837-7.132,13.033-.738,1.721,3.442.983,5.408.246,8.607-.738,3.934-.738,4.425,3.2,5.409,2.213.739,8.115,1.23,7.623,4.92-.493,3.442-6.394,2.213-8.853,1.967-6.148-.493-11.311-1.477-14.263-7.623-1.721-3.444-2.951-9.1-.983-12.79" transform="translate(-61.049 -42.593)"/><path class="cls-23" d="M150.257,507.44c-.648-18.126-3.237-33.015-20.716-42.079-18.772-9.71-30.426-.647-40.135,14.889l-.648-2.588c-5.825,9.063-7.337,23.088-10.574,34.74-4.532,14.242-1.726,31.289,16.4,40.352,12.947,6.473,34.31,6.473,44.667-3.884C150.9,537.216,150.9,522.976,150.257,507.44Z" transform="translate(-61.049 -42.593)"/><g class="cls-24"><path class="cls-25" d="M143.015,488.7a4.156,4.156,0,0,0,3.156.494c-2.846-7.564-7.911-13.909-17.062-18.654-18.772-9.708-30.425-.645-40.135,14.889l-.647-2.588a31.12,31.12,0,0,0-1.7,3.036c4.177,6.772,10.519,9.118,17.8,9.9a6.338,6.338,0,0,0,2.447.632c2.115,1.789,6.006,2.576,12.111,1.559C125.007,497.361,140.366,495.592,143.015,488.7Z" transform="translate(-61.049 -42.593)"/></g><path class="cls-23" d="M152.414,465.469c0,17.221-13.18,28.808-32.368,28.808s-37.979,2.482-40.567-29.346c-1.4-17.165,19.008-30.643,38.194-30.643S152.414,448.249,152.414,465.469Z" transform="translate(-61.049 -42.593)"/><path class="cls-26" d="M126.736,471.618h0Z" transform="translate(-61.049 -42.593)"/><path class="cls-26" d="M126.741,471.619c-21.289.515-35.074,29.04-8.42,24.6,6.474-.648,23.305-2.589,25.246-10.357C145.51,476.8,133.863,472.914,126.741,471.619Z" transform="translate(-61.049 -42.593)"/><path class="cls-26" d="M126.763,471.618h1.268C127.605,471.605,127.184,471.609,126.763,471.618Z" transform="translate(-61.049 -42.593)"/><path class="cls-26" d="M88.758,444l-.121-.636c-18.815-8.154-22.579,13.8-18.189,28.226,5.646,17.562,14.426,7.525,17.562-5.019C89.893,458.417,95.029,450.9,88.758,444Z" transform="translate(-61.049 -42.593)"/><path class="cls-26" d="M157.339,450.166c-2.429-12.245-13.754-26.8-24.3-13.5l.161.512c-1.884,7.486,4.805,10.966,9.363,16.184C149.751,461.3,160.082,465.19,157.339,450.166Z" transform="translate(-61.049 -42.593)"/><path class="cls-27" d="M106.7,454.487c3.509,1.821,4.682,6.246,2.873,10.016-2.355,4.9-7.3,5.858-10.807,4.04s-4.787-6.855-2.863-10.568A8.539,8.539,0,0,1,106.7,454.487Z" transform="translate(-61.049 -42.593)"/><path class="cls-28" d="M110.412,462.527s-5.881,4.554-8.366-1.737c0,0-1.423-3.335.966-5.805,0,0,1.589-2.7,4.708.218C107.72,455.2,111.227,457.02,110.412,462.527Z" transform="translate(-61.049 -42.593)"/><path class="cls-27" d="M136.852,449.923a5.76,5.76,0,0,1,2.219,7.735,6.061,6.061,0,0,1-8.346,3.117c-2.712-1.4-3.7-5.293-2.212-8.16A6.594,6.594,0,0,1,136.852,449.923Z" transform="translate(-61.049 -42.593)"/><path class="cls-28" d="M139.717,456.131s-4.541,3.516-6.459-1.343a4.333,4.333,0,0,1,.743-4.481s1.227-2.088,3.636.168C137.637,450.475,140.347,451.876,139.717,456.131Z" transform="translate(-61.049 -42.593)"/><path class="cls-28" d="M121.772,476.69c-2.912.648-10.68,5.5-9.385,8.738,1.619,3.238,13.594,2.267,16.183,1.62,18.774-4.856-2.589-17.154-10.357-9.71" transform="translate(-61.049 -42.593)"/><path class="cls-29" d="M117.241,488.019s6.8,5.825,8.417,11.652c0,0,4.854,5.826,9.709-1.3,0,0,4.531-7.444,1.3-15.536,0,0-4.209-5.5-9.387-.971C127.276,481.869,115.623,480.9,117.241,488.019Z" transform="translate(-61.049 -42.593)"/><path class="cls-25" d="M148.1,478.739c-1.294-9.71-9.277-20.608-27.728-13.594h-.106c-11.006,0-22.659,6.473-22.011,19.421.648,7.12,4.531,12.3,12.3,9.063,7.12-2.59,8.092-12.461,13.918-15.7C132.886,474.045,150.689,500.1,148.1,478.739Z" transform="translate(-61.049 -42.593)"/><path class="cls-28" d="M121.773,461.477c-11.22-2.157-1.727,9.926,2.158,9.062,6.474-.861,4.317-15.966-.862-8.631" transform="translate(-61.049 -42.593)"/><path class="cls-30" d="M123.715,481.762a13.3,13.3,0,0,1,6.257,10.356s1.512-3.021-2.7-10.249C127.276,481.869,125.225,480.682,123.715,481.762Z" transform="translate(-61.049 -42.593)"/><path class="cls-27" d="M106.56,459.535a2.917,2.917,0,1,1-2.913-3.076A3,3,0,0,1,106.56,459.535Z" transform="translate(-61.049 -42.593)"/><path class="cls-27" d="M137.345,454.031a2.3,2.3,0,1,1-2.3-2.428A2.367,2.367,0,0,1,137.345,454.031Z" transform="translate(-61.049 -42.593)"/><path class="cls-26" d="M111.847,455.221s.149-.1.416-.287a6.454,6.454,0,0,0,1.046-.934,5.643,5.643,0,0,0,1.086-1.846,5.185,5.185,0,0,0,.207-2.691,5.514,5.514,0,0,0-1.165-2.41,6.609,6.609,0,0,0-1.588-1.4,7.385,7.385,0,0,0-1.252-.616l-.476-.172.369.344a12.858,12.858,0,0,1,.942.942,7.9,7.9,0,0,1,1.9,3.567,6.385,6.385,0,0,1-.562,3.928,10.694,10.694,0,0,1-.652,1.152Z" transform="translate(-61.049 -42.593)"/><path class="cls-26" d="M126.953,452.2s-.175-.074-.489-.211a2.676,2.676,0,0,1-.538-.268,3.924,3.924,0,0,1-.645-.432,4.177,4.177,0,0,1-.671-.626,6.122,6.122,0,0,1-.634-.813,9.314,9.314,0,0,1-.951-2.162,12.529,12.529,0,0,1-.419-2.375c-.008-.373-.045-.735-.017-1.071a7.232,7.232,0,0,1,.065-.945,6.385,6.385,0,0,1,.128-.782,3.641,3.641,0,0,1,.139-.592c.094-.328.148-.511.148-.511s-.118.15-.329.422a3.019,3.019,0,0,0-.342.534,4.882,4.882,0,0,0-.369.765,5.778,5.778,0,0,0-.318.987,7.589,7.589,0,0,0-.2,1.182,7.944,7.944,0,0,0,.266,2.747,6.891,6.891,0,0,0,1.325,2.464,5.385,5.385,0,0,0,.924.819,4.048,4.048,0,0,0,.929.519,3.87,3.87,0,0,0,.825.254,2.458,2.458,0,0,0,.634.082Z" transform="translate(-61.049 -42.593)"/><path class="cls-31" d="M150.472,440.978a11.783,11.783,0,0,1,.591,1.157,23.473,23.473,0,0,1,1.193,3.306,18.838,18.838,0,0,1,.514,2.338,8.523,8.523,0,0,1,.106,1.289,2.613,2.613,0,0,1-.2,1.147c-.082.116-.134.178-.223.185a.933.933,0,0,1-.435-.058,4.535,4.535,0,0,1-1.2-.677,17.2,17.2,0,0,1-2.368-2.15c-1.531-1.627-2.845-3.345-4.106-4.881a34.124,34.124,0,0,0-3.621-3.892,18.72,18.72,0,0,0-2.9-2.118c-.739-.406-1.155-.609-1.155-.609l1.042.777a22.209,22.209,0,0,1,2.554,2.411,46.679,46.679,0,0,1,3.211,4.1,49.22,49.22,0,0,0,4.03,5.1,15.6,15.6,0,0,0,2.6,2.281,5.385,5.385,0,0,0,1.591.791,1.943,1.943,0,0,0,1.075.017,1.456,1.456,0,0,0,.874-.774,3.449,3.449,0,0,0,.226-1.685,8.931,8.931,0,0,0-.229-1.416,17.059,17.059,0,0,0-.77-2.384,19.441,19.441,0,0,0-1.629-3.194A9.567,9.567,0,0,0,150.472,440.978Z" transform="translate(-61.049 -42.593)"/><path class="cls-31" d="M71.71,458.888s-.045.607-.164,1.7-.278,2.682-.3,4.669a18.461,18.461,0,0,0,.243,3.274,6.993,6.993,0,0,0,.568,1.83,3.389,3.389,0,0,0,.621.9,2.325,2.325,0,0,0,1.055.624,2.671,2.671,0,0,0,2.38-.511,4.908,4.908,0,0,0,1.337-1.936,18.215,18.215,0,0,0,1.056-4.4c.107-.735.187-1.519.306-2.14.1-.324.2-.647.3-.966.126-.324.25-.644.376-.962.537-1.266,1.161-2.47,1.75-3.623a33.706,33.706,0,0,0,2.767-6.4,8.889,8.889,0,0,0,.188-4.7,5.142,5.142,0,0,0-.435-1.2l-.183-.4s.044.147.131.422A5.364,5.364,0,0,1,84,446.288a8.921,8.921,0,0,1-.607,4.464,39.8,39.8,0,0,1-3.109,6.074c-.647,1.132-1.325,2.329-1.928,3.654q-.212.505-.426,1.021c-.121.366-.239.732-.361,1.105-.165.814-.23,1.506-.342,2.254a18.968,18.968,0,0,1-.92,4.111,3.9,3.9,0,0,1-.94,1.5,1.546,1.546,0,0,1-1.362.356,1.7,1.7,0,0,1-1.064-.928,6.284,6.284,0,0,1-.583-1.552,19.344,19.344,0,0,1-.458-3.11c-.144-1.944-.135-3.539-.15-4.638S71.71,458.888,71.71,458.888Z" transform="translate(-61.049 -42.593)"/><path class="cls-32" d="M104.942,480.25a1.187,1.187,0,0,1-.282-.2c-.1-.112-.2-.27-.247-.251-.121.021-.335.669-.335.669s.2.662.573.6A.521.521,0,0,0,105,480.6.606.606,0,0,0,104.942,480.25Z" transform="translate(-61.049 -42.593)"/><path class="cls-32" d="M107.1,483.272s-.338-.649-.754-.649-.757.649-.757.649.338.647.757.647S107.1,483.272,107.1,483.272Z" transform="translate(-61.049 -42.593)"/><path class="cls-32" d="M108.178,486.94s-.18-.057-.374-.1c-.2-.029-.406-.087-.522-.018a.335.335,0,0,0-.131.166c-.032.085-.065.174-.1.254-.073.172-.163.347-.163.347a.9.9,0,0,0,.267.294.692.692,0,0,0,.35.139.615.615,0,0,0,.4-.063.7.7,0,0,0,.328-.63A1.255,1.255,0,0,0,108.178,486.94Z" transform="translate(-61.049 -42.593)"/><path class="cls-32" d="M102.784,485.431s-.1-.171-.228-.343a.946.946,0,0,0-.507-.4.911.911,0,0,0-.711.225,1.258,1.258,0,0,0-.279.3,3.976,3.976,0,0,0,.228.34.932.932,0,0,0,.506.4.906.906,0,0,0,.711-.225A1.286,1.286,0,0,0,102.784,485.431Z" transform="translate(-61.049 -42.593)"/><path class="cls-32" d="M110.121,479.6a1.417,1.417,0,0,0-.025-.359.631.631,0,0,0-.309-.471c-.126-.052-.3.055-.454.167s-.29.232-.29.232a1.33,1.33,0,0,0,.024.358.621.621,0,0,0,.311.473c.122.051.294-.057.452-.167S110.121,479.6,110.121,479.6Z" transform="translate(-61.049 -42.593)"/><path class="cls-32" d="M108.394,475.5s-.084-.156-.18-.341c-.042-.09-.1-.161-.133-.242s-.047-.132-.092-.14a2.075,2.075,0,0,0-.889.077,1.558,1.558,0,0,0-.063.389.746.746,0,0,0,.046.343.814.814,0,0,0,.265.318.925.925,0,0,0,.452.071.782.782,0,0,0,.338-.174A1.031,1.031,0,0,0,108.394,475.5Z" transform="translate(-61.049 -42.593)"/><path class="cls-32" d="M113.574,481.978s-.243-.649-.541-.649-.539.649-.539.649.243.645.539.645S113.574,481.978,113.574,481.978Z" transform="translate(-61.049 -42.593)"/><path class="cls-32" d="M139.251,469.245a1.221,1.221,0,1,0-1.078.649A1.627,1.627,0,0,0,139.251,469.245Z" transform="translate(-61.049 -42.593)"/><path class="cls-32" d="M138.819,472.052a1.644,1.644,0,0,0-.082-.389.883.883,0,0,0-.432-.537.832.832,0,0,0-.637.079,2.529,2.529,0,0,0-.358.2,1.592,1.592,0,0,0,.084.388.871.871,0,0,0,.432.537.819.819,0,0,0,.634-.079A2.387,2.387,0,0,0,138.819,472.052Z" transform="translate(-61.049 -42.593)"/><path class="cls-32" d="M136.663,477.229s.313-.6.133-.782-.781.135-.781.135-.313.6-.132.782S136.663,477.229,136.663,477.229Z" transform="translate(-61.049 -42.593)"/><path class="cls-32" d="M144,477.229a2.064,2.064,0,0,0,.1-.5,1.594,1.594,0,0,0-.231-1.014,1.545,1.545,0,0,0-.879-.577,1.911,1.911,0,0,0-.5-.07,2.983,2.983,0,0,0,.021.5,1.963,1.963,0,0,0,.291.881,1.9,1.9,0,0,0,.731.588A2.675,2.675,0,0,0,144,477.229Z" transform="translate(-61.049 -42.593)"/><path class="cls-32" d="M141.841,480.466a.842.842,0,0,0,.144-.361.7.7,0,0,0-.237-.684.676.676,0,0,0-.651-.009,1.717,1.717,0,0,0-.334.191s.013.724.237.873c.084.083.292.02.462.011S141.841,480.466,141.841,480.466Z" transform="translate(-61.049 -42.593)"/><path class="cls-32" d="M140.115,475.5s-.053-.161-.128-.324a1.157,1.157,0,0,0-.131-.225c-.036-.064-.06-.109-.1-.11s-.032.027-.072.085a.727.727,0,0,1-.149.174,1.546,1.546,0,0,1-.288.185.719.719,0,0,0-.072.352.473.473,0,0,0,.1.3.443.443,0,0,0,.271.177.354.354,0,0,0,.258-.073.943.943,0,0,0,.161-.223A1.978,1.978,0,0,0,140.115,475.5Z" transform="translate(-61.049 -42.593)"/><path class="cls-32" d="M144.862,472.7a3.054,3.054,0,0,0,0-.368.546.546,0,0,0-.225-.492.6.6,0,0,0-.637.131.834.834,0,0,0-.22.3s.071.172.12.341.059.35.151.384c.114.066.319-.008.5-.091A1.693,1.693,0,0,0,144.862,472.7Z" transform="translate(-61.049 -42.593)"/><path class="cls-32" d="M115.731,475.072a.858.858,0,0,0,.116-.321.408.408,0,0,0-.231-.479.377.377,0,0,0-.415.262,1.754,1.754,0,0,0-.117.322,6.6,6.6,0,0,1,.166.658.635.635,0,0,1,.2-.248A2.278,2.278,0,0,1,115.731,475.072Z" transform="translate(-61.049 -42.593)"/><path class="cls-32" d="M112.709,487.8s.649-.242.649-.54-.649-.538-.649-.538-.646.241-.646.538S112.709,487.8,112.709,487.8Z" transform="translate(-61.049 -42.593)"/><path class="cls-27" d="M125.873,464.714a2.716,2.716,0,0,0,.4-.608,3.432,3.432,0,0,0,.284-1.588,2.873,2.873,0,0,0-.16-.826l-.219-.6-.308.07a1.3,1.3,0,0,0-.215.065l-.386.152-.028.1c-.076.275-.086.571-.16.753-.052.192-.075.317-.075.317a2.188,2.188,0,0,0,.317-.108,2.158,2.158,0,0,0,.746-.549c-.117.071-.231.143-.414.256a1.409,1.409,0,0,0,.215.065c-.155-.152-.307-.306-.529-.529a3.125,3.125,0,0,0-.076.906,5,5,0,0,0,.362,1.468C125.746,464.427,125.873,464.714,125.873,464.714Z" transform="translate(-61.049 -42.593)"/><path class="cls-27" d="M134.936,495.355l.245-.262a6.827,6.827,0,0,0,.608-.766,7.393,7.393,0,0,0,1.2-3.007,6.048,6.048,0,0,0-.458-3.245,5.72,5.72,0,0,0-.518-.848l-.211-.287s.009.131.024.362.069.541.076.928a19.4,19.4,0,0,1-.194,2.911c-.178,1.113-.348,2.154-.513,2.929-.063.395-.157.7-.193.93S134.936,495.355,134.936,495.355Z" transform="translate(-61.049 -42.593)"/><path class="cls-33" d="M139.251,548.87c11.653-11.654,11.653-25.894,11.006-41.43-.024-.653-.05-1.3-.08-1.942h-.351c-4.317-6.041-6.475-7.336-13.38-4.747-5.178,2.158-7.337,6.041-11.652,9.063-3.884,2.59-9.063,2.59-11.653,6.907-2.158,3.452-1.294,8.63-3.452,12.515-2.159,4.316-5.178,7.768-6.042,12.513a17.931,17.931,0,0,0,3.239,14.812C118.537,558.428,131.767,556.355,139.251,548.87Z" transform="translate(-61.049 -42.593)"/><path class="cls-22" d="M80.439,538.729c1.722-7.87,9.836-7.132,13.032-.738,1.721,3.442.987,5.408.247,8.607-.737,3.934-.737,4.425,3.2,5.409,2.213.739,8.115,1.23,7.623,4.92-.491,3.442-6.394,2.213-8.853,1.967-6.147-.493-11.311-1.477-14.264-7.623-1.72-3.444-2.949-9.1-.982-12.79" transform="translate(-61.049 -42.593)"/><path class="cls-22" d="M98.387,498.565c-2.112-.622-2.912,2.671-2.589,4.936l.08.17c.98,3.921,7.477,29.482,15.322,22.758C114.976,523.192,106.557,498.238,98.387,498.565Z" transform="translate(-61.049 -42.593)"/><path class="cls-22" d="M69.747,534.154A7.431,7.431,0,0,0,68,533.769a9.007,9.007,0,0,0-2.727.215,9.385,9.385,0,0,0-1.111.321,10.36,10.36,0,0,0,1.107.327,17.714,17.714,0,0,0,2.619.428c.75.071,1.449.076,2.034.1A5.8,5.8,0,0,1,69.747,534.154Z" transform="translate(-61.049 -42.593)"/><path class="cls-22" d="M70.97,537.347c.034-.038.06-.07.093-.107a4.66,4.66,0,0,1-.382-.456c-.021.007-.036.009-.057.015a7.162,7.162,0,0,0-2.109,1.039,6.507,6.507,0,0,0-1.607,1.736,6.741,6.741,0,0,0-.484.88,7.938,7.938,0,0,0,.921-.4,13.449,13.449,0,0,0,1.938-1.172A11.37,11.37,0,0,0,70.97,537.347Z" transform="translate(-61.049 -42.593)"/><path class="cls-34" d="M457.268,538.351s-1.765,6.256,1.284,11.71c0,0,4.171-1.122,5.133,3.048a2.765,2.765,0,0,1-.481,2.245s-7.38,1.766-10.909-.16c0,0-6.9-6.576-6.577-19.731S457.268,538.351,457.268,538.351Z" transform="translate(-61.049 -42.593)"/><path class="cls-35" d="M474.808,494.875s-3,4.065-22.459-.853c0,0-16.257-5.563-23.53,6.2,0,0-8.128,5.348-11.763,13.475,0,0-11.765,21.818-27.166,19.036a112.674,112.674,0,0,1-12.835-1.925s-6.2-1.71-6.416,4.493c0,0-1.5,10.052,14.759,7.914,0,0,17.753-.856,37-20.32a75.362,75.362,0,0,0,.428,23.956s.749,1.924-2.139,3.689c0,0-2.4,4.011-.32,5.614,0,0,5.775,3.53,10.588-.64,0,0,1.283.321,1.283-6.9,0,0,2.406-11.391,6.577-12.675,0,0,2.727-1.763,9.145,1.766,0,0,17.325,6.737,22.138,5.294,0,0,4.331,19.25,9.625,20.213,0,0,5.615,1.283,9.144-.321,0,0,1.283-4.973-3.048-6.256,0,0-2.245-8.5.642-13.8,0,0,9.786-.481,14.277-4.171,0,0,5.454,1.444,7.38,9.144,0,0,2.727,10.107,5.774,11.07,0,0,6.418,2.084,11.551-.321,0,0,0-6.579-4.171-7.219,0,0-4.331-7.38-2.887-15.562,0,0,1.764-16.683-3.69-22.3S489.3,490.865,474.808,494.875Z" transform="translate(-61.049 -42.593)"/><path class="cls-36" d="M370.639,535.3c.213-6.2,6.416-4.493,6.416-4.493a112.674,112.674,0,0,0,12.835,1.925c15.4,2.782,27.166-19.036,27.166-19.036,3.635-8.127,11.763-13.475,11.763-13.475,7.273-11.765,23.53-6.2,23.53-6.2,1.79.452,3.438.827,4.961,1.137a44.1,44.1,0,0,1-1.646,7.1,25.309,25.309,0,0,1-6.418,9.945c-4.171,3.851-8.982,3.209-13.475,5.455-5.169,2.473-9.864,4.792-13.757,8.274.191-1.93.388-3.033.388-3.033-19.251,19.464-37,20.32-37,20.32C369.142,545.355,370.639,535.3,370.639,535.3Z" transform="translate(-61.049 -42.593)"/><path class="cls-36" d="M466.252,506.427c7.7-1.926,15.4,19.571,1.283,15.4-8.663-2.245-9.946-13.474-.641-15.721" transform="translate(-61.049 -42.593)"/><path class="cls-37" d="M468.176,500.49a7.714,7.714,0,0,1,1.765-.962l.642-.16a16.4,16.4,0,0,1-2.469-2.916c5.535-.01,6.694-1.577,6.694-1.577,14.491-4.01,34.437,13,39.891,18.61a11.316,11.316,0,0,1,2.41,4.281,10.588,10.588,0,0,1-2.09-.431s-11.549,3.85-22.619-.641c0,0-10.266-.8-17.967-11.07a15.2,15.2,0,0,1-3.369-1.123s.962-.481,1.765-.8c0,0-.962.16-3.369-.962a5.331,5.331,0,0,0,2.086-1.284S470.583,501.613,468.176,500.49Z" transform="translate(-61.049 -42.593)"/><path class="cls-38" d="M486.465,542.842s3.529-14.919,10.588-16.524c0,0,12.192-.64,4.171,11.23-.386.571-.725,1.076-1.041,1.545C495.488,542.4,486.465,542.842,486.465,542.842Z" transform="translate(-61.049 -42.593)"/><path class="cls-35" d="M517.587,470.011a17.681,17.681,0,0,0,7.7-6.738s.8-3.53,4.011-1.284a15.847,15.847,0,0,1-1.123,17.005,43.079,43.079,0,0,1,3.849,8.182s6.739,9.625,11.872,11.711a14.321,14.321,0,0,1-7.059,2.566,43.218,43.218,0,0,1,5.615,4.492,19.587,19.587,0,0,0-4.171-.48l4.813,4.811a14.751,14.751,0,0,1-7.861-1.6,13.834,13.834,0,0,0,1.925,2.887,13.037,13.037,0,0,1-6.417.8,20.185,20.185,0,0,1,2.246,1.926s-10.106,4.011-16.042,2.085c0,0-11.551,3.851-22.619-.642,0,0-10.267-.8-17.968-11.068a15.324,15.324,0,0,1-3.369-1.123s.963-.481,1.765-.8c0,0-.963.16-3.368-.963a5.343,5.343,0,0,0,2.085-1.284s-.963.161-3.369-.962a7.691,7.691,0,0,1,1.765-.962l.641-.161a17,17,0,0,1-4.011-5.775,13.32,13.32,0,0,1,1.6.321l.481.16s-1.605-2.246-1.925-6.9a17.693,17.693,0,0,0,9.144-3.529,54.914,54.914,0,0,0,5.614-8.5s2.247-4.652,4.172-5.453c0,0,0-7.22,2.246-11.07,0,0,1.122,6.257,4.812,9.3C494.646,466.962,507.8,462.792,517.587,470.011Z" transform="translate(-61.049 -42.593)"/><path class="cls-27" d="M502.026,484.288c0,3.721,1.594,6.417,4.652,6.417s8.5-.932,8.5-4.652-4.564-8.5-7.621-8.5S502.026,480.567,502.026,484.288Z" transform="translate(-61.049 -42.593)"/><path class="cls-27" d="M482.755,486.142c2.475.38,4.449-.518,4.794-2.764s.339-6.344-2.136-6.723-6.172,2.486-6.517,4.732A4.343,4.343,0,0,0,482.755,486.142Z" transform="translate(-61.049 -42.593)"/><path class="cls-39" d="M466.572,468.777a.05.05,0,0,0,0-.1.05.05,0,0,0,0,.1Z" transform="translate(-61.049 -42.593)"/><path class="cls-36" d="M525.287,463.273s.8-3.53,4.011-1.284a15.847,15.847,0,0,1-1.123,17.005,43.079,43.079,0,0,1,3.849,8.182l.028.04c-2.838.976-5.874,2.091-8.53.762-1.764-.8-3.208-3.208-4.652-4.492-1.6-1.443-3.529-2.727-5.294-4.332a16.98,16.98,0,0,1-6.272-13.135,22.02,22.02,0,0,1,10.283,3.992A17.681,17.681,0,0,0,525.287,463.273Z" transform="translate(-61.049 -42.593)"/><path class="cls-40" d="M502.827,485.892a2.567,2.567,0,1,0,2.567-2.566A2.567,2.567,0,0,0,502.827,485.892Z" transform="translate(-61.049 -42.593)"/><path class="cls-40" d="M479.3,481.614a2.567,2.567,0,1,0,2.566-2.566A2.567,2.567,0,0,0,479.3,481.614Z" transform="translate(-61.049 -42.593)"/><path class="cls-37" d="M520.153,473.7a9.228,9.228,0,0,0,4.814-7.058s1.122-3.209,2.726-2.085a11.071,11.071,0,0,1-1.443,12.833S522.56,473.059,520.153,473.7Z" transform="translate(-61.049 -42.593)"/><path class="cls-37" d="M489.192,468.566s1.764-1.443,3.048-1.443-2.888-2.727-2.567-5.775C489.673,461.348,487.588,464.075,489.192,468.566Z" transform="translate(-61.049 -42.593)"/><path class="cls-40" d="M513.9,477.481c-.982-1.85-2.709-2.406-4.711-2.316-1.983.087-3.45,1.05-5.151,1.895-.144.071-.34-.083-.236-.238,1.115-1.675,3.885-2.19,5.738-2.253,1.985-.066,4.038.779,4.691,2.773a.182.182,0,0,1-.331.139Z" transform="translate(-61.049 -42.593)"/><path class="cls-40" d="M488.563,475.712a4.513,4.513,0,0,0-2-2.131c-.874-.482-1.825-.362-2.708-.708a.142.142,0,0,1,0-.271,4.138,4.138,0,0,1,2.921.615,4.719,4.719,0,0,1,2.076,2.323c.087.2-.2.373-.294.172Z" transform="translate(-61.049 -42.593)"/><path class="cls-41" d="M472.614,500.414a15.763,15.763,0,0,1,.7-3.292c1.924-6.1,4.813-7.06,10.268-9.625,3.528-1.605,8.021-6.738,11.549-4.171l-.641-.642c3.208-.322,8.022,10.908,10.267,13.475,4.171,5.454,5.775,14.759-.963,19.571a9.868,9.868,0,0,1-3.641,1.661,28.822,28.822,0,0,1-5.823-1.661s-10.267-.8-17.968-11.068a15.324,15.324,0,0,1-3.369-1.123s.963-.481,1.765-.8a5.225,5.225,0,0,1-2.182-.468c-.018-.341-.025-.686-.013-1.04a3.356,3.356,0,0,0,.912-.739A2.809,2.809,0,0,1,472.614,500.414Z" transform="translate(-61.049 -42.593)"/><path class="cls-40" d="M491.812,489.851s-2.887-2.782-6.417-2.034c0,0-1.925-.106-.213,2.139,0,0,.962,2.674,3.1,1.926C488.283,491.882,493.524,491.134,491.812,489.851Z" transform="translate(-61.049 -42.593)"/><path class="cls-40" d="M498.228,496.908s-9.3,4.172-10.585-3.316c0,0-3.638,5.563-7.7.108,0,0,1.069,3.316,4.064,3.529,0,0-.855,6.31,3,7.272,0,0,4.062,1.926,6.2-5.133A6.76,6.76,0,0,0,498.228,496.908Z" transform="translate(-61.049 -42.593)"/><path class="cls-40" d="M497.629,494.124c4.594-2.622,10.015-3.225,15.218-2.953a35.7,35.7,0,0,1,15.708,4.245c.134.078.016.265-.12.2-9.452-4.211-21.07-6.175-30.676-1.275-.146.075-.274-.138-.13-.221Z" transform="translate(-61.049 -42.593)"/><path class="cls-40" d="M496.05,495.694a36.26,36.26,0,0,1,16.26.781,35.712,35.712,0,0,1,7.364,2.98,22.5,22.5,0,0,1,6.668,4.954c.088.106-.031.3-.158.2-1.97-1.448-3.764-3.037-5.879-4.294a34.812,34.812,0,0,0-7.633-3.294,36.768,36.768,0,0,0-16.542-1.042c-.188.031-.272-.255-.08-.29Z" transform="translate(-61.049 -42.593)"/><path class="cls-40" d="M495.769,497.3c4.24-.374,8.334,1.465,11.858,3.648a35.158,35.158,0,0,1,5.308,4.1,15.975,15.975,0,0,1,3.8,4.52c.06.127-.1.271-.2.158-1.246-1.305-2.28-2.782-3.578-4.055a34.769,34.769,0,0,0-5.135-4.1c-3.521-2.337-7.747-4.2-12.05-3.993-.183.009-.178-.264,0-.28Z" transform="translate(-61.049 -42.593)"/><path class="cls-40" d="M481.542,491.412a27.488,27.488,0,0,0-6.795-8.554c-3.183-2.694-6.817-4.083-10.771-5.2-.12-.034-.1-.231.029-.221,7.661.612,14.63,7.18,17.758,13.845.069.147-.146.277-.221.129Z" transform="translate(-61.049 -42.593)"/><path class="cls-40" d="M480.291,493.03a21.3,21.3,0,0,0-11.741-5.263c-3.959-.5-7.972-.031-11.923-.492a.1.1,0,0,1,0-.2c8.245-.424,17.581-.4,23.819,5.8.1.1-.05.249-.155.157Z" transform="translate(-61.049 -42.593)"/><path class="cls-40" d="M480.981,494.341a27.508,27.508,0,0,0-10.168.337,37.4,37.4,0,0,0-5.185,1.38c-1.439.492-2.734,1.338-4.158,1.817a.116.116,0,0,1-.113-.192,10.3,10.3,0,0,1,3.757-1.9,35.723,35.723,0,0,1,5.588-1.5c3.317-.647,7.034-1.059,10.338-.148.139.037.08.238-.059.212Z" transform="translate(-61.049 -42.593)"/></g></g></svg>