<svg width="124" height="36" viewBox="0 0 124 36" fill="none" xmlns="http://www.w3.org/2000/svg">
<rect width="124" height="36" rx="2" fill="#0057FF"/>
<path d="M24.5781 17.0273C25.6074 16.4961 26.1719 15.7324 26.1719 14.5703C26.1719 12.2129 24.4121 11.6484 22.4199 11.6484H16.875V23.4023H22.5527C24.7109 23.4023 26.7031 22.373 26.7031 19.9824C26.7031 18.5215 26.0059 17.4258 24.5781 17.0273ZM19.4316 13.6406H21.8887C22.8184 13.6406 23.6484 13.9062 23.6484 15.002C23.6484 15.998 22.9844 16.3965 22.0547 16.3965H19.4316V13.6406ZM22.2207 21.4102H19.4316V18.1562H22.2539C23.416 18.1562 24.1133 18.6543 24.1133 19.8496C24.1133 21.0449 23.25 21.4102 22.2207 21.4102ZM34.1074 13.4082V12.2461H29.3594V13.4082H34.1074ZM36 19.2852C36 16.7617 34.5059 14.6367 31.8496 14.6367C29.2266 14.6367 27.4668 16.5957 27.4668 19.1523C27.4668 21.8086 29.1602 23.6348 31.8496 23.6348C33.875 23.6348 35.2031 22.7051 35.834 20.7793H33.7754C33.543 21.5098 32.6133 21.875 31.916 21.875C30.5547 21.875 29.8242 21.0781 29.8242 19.7168H35.9668C35.9668 19.584 36 19.418 36 19.2852ZM29.8242 18.2227C29.8906 17.127 30.6543 16.4297 31.75 16.4297C32.9453 16.4297 33.543 17.0938 33.6426 18.2227H29.8242Z" fill="white"/>
<path d="M45.1457 14.126H48.2932C48.9163 14.126 49.38 14.1528 49.6843 14.2065C49.9923 14.2567 50.2662 14.3641 50.5061 14.5288C50.7496 14.6935 50.9519 14.9137 51.113 15.1895C51.2742 15.4616 51.3547 15.7677 51.3547 16.1079C51.3547 16.4767 51.2545 16.8151 51.0539 17.123C50.857 17.431 50.5885 17.6619 50.2483 17.8159C50.7281 17.9556 51.0969 18.1937 51.3547 18.5303C51.6125 18.8669 51.7414 19.2625 51.7414 19.7173C51.7414 20.0754 51.6573 20.4245 51.489 20.7646C51.3243 21.1012 51.0969 21.3716 50.8069 21.5757C50.5204 21.7762 50.1659 21.8997 49.7434 21.9463C49.4784 21.9749 48.8393 21.9928 47.8259 22H45.1457V14.126ZM46.7356 15.4365V17.2573H47.7776C48.397 17.2573 48.782 17.2484 48.9324 17.2305C49.2045 17.1982 49.4176 17.1051 49.5715 16.9512C49.7291 16.7936 49.8079 16.5877 49.8079 16.3335C49.8079 16.09 49.7398 15.8931 49.6038 15.7427C49.4713 15.5887 49.2725 15.4956 49.0076 15.4634C48.85 15.4455 48.397 15.4365 47.6487 15.4365H46.7356ZM46.7356 18.5679V20.6733H48.2073C48.7802 20.6733 49.1436 20.6572 49.2976 20.625C49.5339 20.582 49.7255 20.4782 49.8723 20.3135C50.0227 20.1452 50.0979 19.9214 50.0979 19.6421C50.0979 19.4058 50.0406 19.2052 49.926 19.0405C49.8114 18.8758 49.6449 18.7559 49.4265 18.6807C49.2117 18.6055 48.7426 18.5679 48.0193 18.5679H46.7356ZM54.6296 22V14.126H60.468V15.458H56.2194V17.2036H60.1726V18.5303H56.2194V20.6733H60.6184V22H54.6296ZM63.5119 22V14.126H65.1017V17.2251H68.217V14.126H69.8068V22H68.217V18.5571H65.1017V22H63.5119ZM80.0963 22H78.3668L77.6793 20.2114H74.5319L73.882 22H72.1954L75.2623 14.126H76.9435L80.0963 22ZM77.1691 18.8848L76.0841 15.9629L75.0206 18.8848H77.1691ZM82.5011 22V14.126H84.0479L87.2706 19.3843V14.126H88.7476V22H87.1524L83.9781 16.8652V22H82.5011ZM97.0122 19.105L98.5538 19.5938C98.3174 20.4531 97.9235 21.0923 97.3721 21.5112C96.8243 21.9266 96.1278 22.1343 95.2828 22.1343C94.2372 22.1343 93.3778 21.778 92.7046 21.0654C92.0315 20.3493 91.6949 19.3717 91.6949 18.1328C91.6949 16.8223 92.0332 15.8053 92.71 15.082C93.3868 14.3551 94.2766 13.9917 95.3794 13.9917C96.3427 13.9917 97.125 14.2764 97.7266 14.8457C98.0847 15.1823 98.3532 15.6657 98.5323 16.2959L96.9585 16.6719C96.8654 16.2637 96.6703 15.9414 96.3731 15.7051C96.0795 15.4688 95.7214 15.3506 95.2989 15.3506C94.7152 15.3506 94.2408 15.5601 93.8755 15.979C93.5139 16.3979 93.333 17.0765 93.333 18.0146C93.333 19.0101 93.5121 19.7191 93.8702 20.1416C94.2282 20.5641 94.6937 20.7754 95.2666 20.7754C95.6892 20.7754 96.0526 20.6411 96.357 20.3726C96.6613 20.104 96.8798 19.6815 97.0122 19.105ZM101.463 22V14.126H107.302V15.458H103.053V17.2036H107.006V18.5303H103.053V20.6733H107.452V22H101.463Z" fill="white"/>
</svg>
