<svg width="133" height="39" viewBox="0 0 133 39" fill="none" xmlns="http://www.w3.org/2000/svg">
<rect y="0.09375" width="132.652" height="38.5118" rx="2.13955" fill="#0057FF"/>
<path d="M26.2938 19.1932C27.395 18.6249 27.9988 17.8079 27.9988 16.5647C27.9988 14.0428 26.1162 13.439 23.985 13.439H18.0532V26.013H24.1271C26.4359 26.013 28.5671 24.9119 28.5671 22.3544C28.5671 20.7916 27.8212 19.6194 26.2938 19.1932ZM20.7883 15.5702H23.4167C24.4113 15.5702 25.2993 15.8543 25.2993 17.0265C25.2993 18.0921 24.5889 18.5183 23.5943 18.5183H20.7883V15.5702ZM23.7719 23.8818H20.7883V20.4009H23.8074C25.0506 20.4009 25.7966 20.9337 25.7966 22.2124C25.7966 23.4911 24.873 23.8818 23.7719 23.8818ZM36.488 15.3215V14.0783H31.4087V15.3215H36.488ZM38.5127 21.6085C38.5127 18.909 36.9143 16.6358 34.0727 16.6358C31.2666 16.6358 29.3841 18.7314 29.3841 21.4665C29.3841 24.308 31.1956 26.2616 34.0727 26.2616C36.2394 26.2616 37.6602 25.2671 38.3351 23.2069H36.1328C35.8842 23.9884 34.8896 24.3791 34.1437 24.3791C32.6874 24.3791 31.906 23.5266 31.906 22.0703H38.4771C38.4771 21.9282 38.5127 21.7506 38.5127 21.6085ZM31.906 20.4719C31.977 19.2997 32.794 18.5538 33.9661 18.5538C35.2448 18.5538 35.8842 19.2642 35.9907 20.4719H31.906Z" fill="white"/>
<path d="M48.296 15.2289H51.6631C52.3296 15.2289 52.8256 15.2577 53.1512 15.3151C53.4807 15.3687 53.7737 15.4837 54.0304 15.6599C54.2908 15.8361 54.5073 16.0716 54.6796 16.3666C54.852 16.6577 54.9382 16.9852 54.9382 17.3491C54.9382 17.7437 54.8309 18.1057 54.6164 18.4351C54.4058 18.7645 54.1185 19.0116 53.7546 19.1763C54.2679 19.3257 54.6624 19.5805 54.9382 19.9405C55.214 20.3006 55.3519 20.7239 55.3519 21.2104C55.3519 21.5934 55.2619 21.9669 55.0818 22.3308C54.9056 22.6909 54.6624 22.9801 54.3521 23.1984C54.0457 23.4129 53.6665 23.5451 53.2144 23.5949C52.931 23.6255 52.2472 23.6447 51.1632 23.6523H48.296V15.2289ZM49.9968 16.6309V18.5788H51.1115C51.7742 18.5788 52.1859 18.5692 52.3468 18.55C52.6379 18.5156 52.8659 18.416 53.0306 18.2512C53.1991 18.0827 53.2834 17.8624 53.2834 17.5905C53.2834 17.33 53.2106 17.1193 53.0651 16.9584C52.9233 16.7937 52.7107 16.6941 52.4273 16.6596C52.2587 16.6405 51.7742 16.6309 50.9736 16.6309H49.9968ZM49.9968 19.9807V22.2331H51.5711C52.184 22.2331 52.5728 22.2159 52.7375 22.1814C52.9904 22.1354 53.1953 22.0244 53.3523 21.8481C53.5132 21.6681 53.5937 21.4287 53.5937 21.1299C53.5937 20.8771 53.5324 20.6626 53.4098 20.4864C53.2872 20.3102 53.1091 20.1818 52.8754 20.1014C52.6456 20.021 52.1438 19.9807 51.37 19.9807H49.9968ZM58.4416 23.6523V15.2289H64.6873V16.6539H60.1423V18.5213H64.3713V19.9405H60.1423V22.2331H64.8482V23.6523H58.4416ZM67.9436 23.6523V15.2289H69.6444V18.5443H72.977V15.2289H74.6777V23.6523H72.977V19.9693H69.6444V23.6523H67.9436ZM85.6852 23.6523H83.835L83.0995 21.739H79.7325L79.0372 23.6523H77.233L80.5139 15.2289H82.3124L85.6852 23.6523ZM82.5537 20.3197L81.393 17.194L80.2553 20.3197H82.5537ZM88.2577 23.6523V15.2289H89.9125L93.36 20.8541V15.2289H94.9401V23.6523H93.2336L89.8378 18.1593V23.6523H88.2577ZM103.781 20.5553L105.43 21.0782C105.178 21.9975 104.756 22.6813 104.166 23.1295C103.58 23.5738 102.835 23.796 101.931 23.796C100.813 23.796 99.8934 23.4148 99.1732 22.6526C98.4531 21.8865 98.093 20.8407 98.093 19.5153C98.093 18.1133 98.455 17.0255 99.179 16.2517C99.9029 15.4741 100.855 15.0853 102.035 15.0853C103.065 15.0853 103.902 15.3898 104.546 15.9989C104.929 16.3589 105.216 16.8761 105.407 17.5502L103.724 17.9525C103.624 17.5158 103.416 17.171 103.098 16.9182C102.784 16.6654 102.4 16.539 101.948 16.539C101.324 16.539 100.817 16.7631 100.426 17.2112C100.039 17.6594 99.8455 18.3853 99.8455 19.3889C99.8455 20.4538 100.037 21.2123 100.42 21.6643C100.803 22.1163 101.301 22.3423 101.914 22.3423C102.366 22.3423 102.755 22.1986 103.08 21.9114C103.406 21.6241 103.64 21.1721 103.781 20.5553ZM108.543 23.6523V15.2289H114.789V16.6539H110.244V18.5213H114.473V19.9405H110.244V22.2331H114.95V23.6523H108.543Z" fill="white"/>
</svg>
