<svg width="122" height="36" viewBox="0 0 122 36" fill="none" xmlns="http://www.w3.org/2000/svg">
<rect width="122" height="36" rx="2" fill="#010101"/>
<path d="M33.6484 14.875L25.4219 9.39062C25.1406 9.21484 24.8242 9.21484 24.543 9.39062L16.3164 14.875C16.1055 15.0156 16 15.2617 16 15.5078V20.9922C16 21.2734 16.1055 21.5195 16.3164 21.6602L24.543 27.1445C24.8242 27.3203 25.1406 27.3203 25.4219 27.1445L33.6484 21.6602C33.8594 21.5195 34 21.2734 34 20.9922V15.5078C34 15.2617 33.8594 15.0156 33.6484 14.875ZM25.7734 11.5L31.8203 15.5078L29.1133 17.3359L25.7734 15.0859V11.5ZM24.2266 11.5V15.0859L20.8516 17.3359L18.1445 15.5078L24.2266 11.5ZM17.5469 16.9844L19.4805 18.25L17.5469 19.5508V16.9844ZM24.2266 25.0352L18.1445 20.9922L20.8516 19.1992L24.2266 21.4492V25.0352ZM25 20.0781L22.2578 18.25L25 16.4219L27.707 18.25L25 20.0781ZM25.7734 25.0352V21.4492L29.1133 19.1992L31.8203 20.9922L25.7734 25.0352ZM32.4531 19.5508L30.4844 18.25L32.4531 16.9844V19.5508Z" fill="white"/>
<path d="M48.1785 19.105L49.72 19.5938C49.4836 20.4531 49.0898 21.0923 48.5383 21.5112C47.9905 21.9266 47.294 22.1343 46.449 22.1343C45.4034 22.1343 44.544 21.778 43.8708 21.0654C43.1977 20.3493 42.8611 19.3717 42.8611 18.1328C42.8611 16.8223 43.1995 15.8053 43.8762 15.082C44.553 14.3551 45.4428 13.9917 46.5456 13.9917C47.5089 13.9917 48.2913 14.2764 48.8928 14.8457C49.2509 15.1823 49.5194 15.6657 49.6985 16.2959L48.1247 16.6719C48.0316 16.2637 47.8365 15.9414 47.5393 15.7051C47.2457 15.4688 46.8876 15.3506 46.4651 15.3506C45.8814 15.3506 45.407 15.5601 45.0417 15.979C44.6801 16.3979 44.4993 17.0765 44.4993 18.0146C44.4993 19.0101 44.6783 19.7191 45.0364 20.1416C45.3944 20.5641 45.8599 20.7754 46.4329 20.7754C46.8554 20.7754 47.2188 20.6411 47.5232 20.3726C47.8275 20.104 48.046 19.6815 48.1785 19.105ZM52.3073 18.1113C52.3073 17.3092 52.4273 16.6361 52.6672 16.0918C52.8462 15.6908 53.0897 15.3309 53.3977 15.0122C53.7092 14.6935 54.0494 14.4572 54.4182 14.3032C54.9087 14.0955 55.4745 13.9917 56.1154 13.9917C57.2756 13.9917 58.203 14.3516 58.8977 15.0713C59.5959 15.791 59.945 16.7918 59.945 18.0737C59.945 19.3449 59.5995 20.3403 58.9084 21.0601C58.2173 21.7762 57.2935 22.1343 56.1369 22.1343C54.966 22.1343 54.035 21.778 53.3439 21.0654C52.6529 20.3493 52.3073 19.3646 52.3073 18.1113ZM53.9455 18.0576C53.9455 18.9492 54.1514 19.626 54.5632 20.0879C54.975 20.5462 55.4978 20.7754 56.1315 20.7754C56.7653 20.7754 57.2845 20.548 57.6892 20.0933C58.0974 19.6349 58.3015 18.9492 58.3015 18.0361C58.3015 17.1338 58.1027 16.4606 57.7053 16.0166C57.3114 15.5726 56.7868 15.3506 56.1315 15.3506C55.4763 15.3506 54.9481 15.5762 54.5471 16.0273C54.146 16.4749 53.9455 17.1517 53.9455 18.0576ZM62.7257 14.126H65.6315C66.2868 14.126 66.7863 14.1761 67.13 14.2764C67.592 14.4124 67.9876 14.6541 68.3171 15.0015C68.6465 15.3488 68.8971 15.7749 69.069 16.2798C69.2409 16.7811 69.3268 17.4006 69.3268 18.1382C69.3268 18.7863 69.2463 19.3449 69.0851 19.814C68.8882 20.3869 68.6071 20.8506 68.2419 21.2051C67.9661 21.4736 67.5937 21.6831 67.1247 21.8335C66.7738 21.9445 66.3047 22 65.7174 22H62.7257V14.126ZM64.3156 15.458V20.6733H65.5026C65.9466 20.6733 66.2671 20.6483 66.464 20.5981C66.7218 20.5337 66.9349 20.4245 67.1032 20.2705C67.2751 20.1165 67.4147 19.8641 67.5221 19.5132C67.6296 19.1587 67.6833 18.6771 67.6833 18.0684C67.6833 17.4596 67.6296 16.9924 67.5221 16.6665C67.4147 16.3407 67.2643 16.0864 67.071 15.9038C66.8776 15.7212 66.6323 15.5977 66.3351 15.5332C66.1131 15.4831 65.6781 15.458 65.0299 15.458H64.3156ZM72.2203 22V14.126H78.0587V15.458H73.8102V17.2036H77.7633V18.5303H73.8102V20.6733H78.2091V22H72.2203ZM81.0972 22V14.126H83.6485C84.6153 14.126 85.2455 14.1654 85.5391 14.2441C85.9903 14.3623 86.3681 14.6201 86.6724 15.0176C86.9768 15.4115 87.129 15.9217 87.129 16.5483C87.129 17.0317 87.0413 17.4382 86.8658 17.7676C86.6903 18.097 86.4666 18.3566 86.1944 18.5464C85.9259 18.7326 85.6519 18.8561 85.3726 18.917C84.9931 18.9922 84.4434 19.0298 83.7237 19.0298H82.6871V22H81.0972ZM82.6871 15.458V17.6924H83.5572C84.1838 17.6924 84.6028 17.6512 84.814 17.5688C85.0253 17.4865 85.19 17.3576 85.3082 17.1821C85.4299 17.0067 85.4908 16.8026 85.4908 16.5698C85.4908 16.2834 85.4067 16.047 85.2384 15.8608C85.0701 15.6746 84.857 15.5583 84.5992 15.5117C84.4094 15.4759 84.0281 15.458 83.4552 15.458H82.6871ZM89.9742 22V14.126H95.8125V15.458H91.564V17.2036H95.5171V18.5303H91.564V20.6733H95.9629V22H89.9742ZM98.8672 22V14.126H100.414L103.637 19.3843V14.126H105.114V22H103.519L100.344 16.8652V22H98.8672Z" fill="white"/>
</svg>
