<svg width="132" height="40" viewBox="0 0 132 40" fill="none" xmlns="http://www.w3.org/2000/svg">
<rect x="0.628906" y="0.791992" width="130.512" height="38.5118" rx="2.13955" fill="#010101"/>
<path d="M36.6259 16.5191L27.8254 10.6521C27.5245 10.464 27.186 10.464 26.8851 10.6521L18.0846 16.5191C17.8589 16.6696 17.7461 16.9328 17.7461 17.1961V23.0631C17.7461 23.364 17.8589 23.6273 18.0846 23.7777L26.8851 29.6447C27.186 29.8328 27.5245 29.8328 27.8254 29.6447L36.6259 23.7777C36.8516 23.6273 37.002 23.364 37.002 23.0631V17.1961C37.002 16.9328 36.8516 16.6696 36.6259 16.5191ZM28.2015 12.9086L34.6702 17.1961L31.7743 19.1518L28.2015 16.7448V12.9086ZM26.5466 12.9086V16.7448L22.9362 19.1518L20.0403 17.1961L26.5466 12.9086ZM19.4009 18.7757L21.4694 20.1296L19.4009 21.5212V18.7757ZM26.5466 27.3882L20.0403 23.0631L22.9362 21.1451L26.5466 23.5521V27.3882ZM27.3741 22.0853L24.4405 20.1296L27.3741 18.1739L30.27 20.1296L27.3741 22.0853ZM28.2015 27.3882V23.5521L31.7743 21.1451L34.6702 23.0631L28.2015 27.3882ZM35.3472 21.5212L33.2411 20.1296L35.3472 18.7757V21.5212Z" fill="white"/>
<path d="M52.1681 21.2536L53.8172 21.7764C53.5644 22.6958 53.143 23.3795 52.5531 23.8277C51.967 24.2721 51.222 24.4942 50.318 24.4942C49.1995 24.4942 48.2801 24.1131 47.56 23.3508C46.8398 22.5847 46.4797 21.5389 46.4797 20.2136C46.4797 18.8116 46.8417 17.7237 47.5657 16.9499C48.2897 16.1723 49.2416 15.7835 50.4214 15.7835C51.4518 15.7835 52.2888 16.0881 52.9323 16.6971C53.3154 17.0572 53.6027 17.5743 53.7942 18.2485L52.1107 18.6507C52.0111 18.214 51.8023 17.8693 51.4844 17.6164C51.1703 17.3636 50.7872 17.2372 50.3352 17.2372C49.7108 17.2372 49.2033 17.4613 48.8126 17.9095C48.4257 18.3577 48.2322 19.0836 48.2322 20.0872C48.2322 21.1521 48.4238 21.9105 48.8068 22.3625C49.1899 22.8145 49.6878 23.0405 50.3007 23.0405C50.7527 23.0405 51.1416 22.8969 51.4671 22.6096C51.7927 22.3223 52.0264 21.8703 52.1681 21.2536ZM56.5851 20.1906C56.5851 19.3325 56.7134 18.6124 56.9701 18.0301C57.1616 17.6011 57.4221 17.2162 57.7515 16.8752C58.0848 16.5343 58.4487 16.2815 58.8432 16.1168C59.368 15.8946 59.9732 15.7835 60.6589 15.7835C61.9 15.7835 62.8921 16.1685 63.6353 16.9384C64.3822 17.7084 64.7557 18.779 64.7557 20.1504C64.7557 21.5102 64.386 22.5751 63.6467 23.3451C62.9074 24.1112 61.9192 24.4942 60.6819 24.4942C59.4293 24.4942 58.4333 24.1131 57.694 23.3508C56.9547 22.5847 56.5851 21.5313 56.5851 20.1906ZM58.3376 20.1331C58.3376 21.0869 58.5578 21.8109 58.9984 22.3051C59.4389 22.7954 59.9981 23.0405 60.6761 23.0405C61.3542 23.0405 61.9096 22.7973 62.3424 22.3108C62.7791 21.8205 62.9975 21.0869 62.9975 20.1101C62.9975 19.1448 62.7849 18.4247 62.3597 17.9497C61.9383 17.4747 61.3771 17.2372 60.6761 17.2372C59.9751 17.2372 59.4101 17.4785 58.9811 17.9612C58.5521 18.44 58.3376 19.164 58.3376 20.1331ZM67.7304 15.9272H70.8389C71.5399 15.9272 72.0743 15.9808 72.442 16.0881C72.9362 16.2336 73.3595 16.4922 73.7119 16.8637C74.0643 17.2353 74.3324 17.6911 74.5163 18.2313C74.7002 18.7675 74.7921 19.4302 74.7921 20.2193C74.7921 20.9127 74.7059 21.5102 74.5335 22.012C74.3228 22.6249 74.0221 23.121 73.6314 23.5002C73.3365 23.7875 72.9381 24.0116 72.4363 24.1725C72.0609 24.2912 71.5591 24.3506 70.9309 24.3506H67.7304V15.9272ZM69.4312 17.3521V22.9314H70.701C71.176 22.9314 71.5189 22.9045 71.7295 22.8509C72.0054 22.782 72.2333 22.6651 72.4133 22.5004C72.5972 22.3357 72.7466 22.0657 72.8615 21.6903C72.9764 21.311 73.0339 20.7958 73.0339 20.1446C73.0339 19.4934 72.9764 18.9935 72.8615 18.645C72.7466 18.2964 72.5857 18.0244 72.3788 17.829C72.172 17.6337 71.9096 17.5015 71.5916 17.4326C71.3542 17.379 70.8887 17.3521 70.1954 17.3521H69.4312ZM77.8875 24.3506V15.9272H84.1332V17.3521H79.5883V19.2195H83.8172V20.6388H79.5883V22.9314H84.2941V24.3506H77.8875ZM87.3838 24.3506V15.9272H90.1131C91.1473 15.9272 91.8215 15.9693 92.1356 16.0536C92.6182 16.18 93.0224 16.4558 93.348 16.881C93.6736 17.3023 93.8364 17.8482 93.8364 18.5185C93.8364 19.0357 93.7425 19.4704 93.5548 19.8229C93.3671 20.1753 93.1277 20.453 92.8366 20.656C92.5493 20.8552 92.2563 20.9873 91.9575 21.0525C91.5514 21.1329 90.9634 21.1731 90.1935 21.1731H89.0845V24.3506H87.3838ZM89.0845 17.3521V19.7424H90.0154C90.6857 19.7424 91.1339 19.6984 91.3599 19.6103C91.5859 19.5222 91.7621 19.3843 91.8885 19.1966C92.0188 19.0089 92.0839 18.7905 92.0839 18.5415C92.0839 18.2351 91.9939 17.9823 91.8138 17.7831C91.6338 17.5839 91.4059 17.4594 91.1301 17.4096C90.9271 17.3713 90.5191 17.3521 89.9062 17.3521H89.0845ZM96.8801 24.3506V15.9272H103.126V17.3521H98.5808V19.2195H102.81V20.6388H98.5808V22.9314H103.287V24.3506H96.8801ZM106.394 24.3506V15.9272H108.048L111.496 21.5524V15.9272H113.076V24.3506H111.369L107.974 18.8576V24.3506H106.394Z" fill="white"/>
</svg>
