<svg width="125" height="36" viewBox="0 0 125 36" fill="none" xmlns="http://www.w3.org/2000/svg">
<rect width="125" height="36" rx="2" fill="#EA4C89"/>
<path d="M24.5 9.39062C19.9512 9.39062 16.2656 13.1094 16.2656 17.625C16.2656 22.1738 19.9512 25.8594 24.5 25.8594C29.0156 25.8594 32.7344 22.1738 32.7344 17.625C32.7344 13.1094 29.0156 9.39062 24.5 9.39062ZM29.9121 13.209C30.9082 14.4043 31.5059 15.9316 31.5059 17.5918C31.2734 17.5254 28.9492 17.0605 26.625 17.3594C26.4258 16.8945 26.2598 16.4961 25.9941 15.9648C28.6172 14.9023 29.7793 13.4082 29.9121 13.209ZM29.1484 12.3789C29.0156 12.5781 27.9531 14.0059 25.4629 14.9355C24.3008 12.8105 23.0391 11.084 22.8398 10.8184C25.0645 10.2871 27.4219 10.8516 29.1484 12.3789ZM21.4785 11.2832C21.6777 11.5488 22.9395 13.2754 24.1016 15.3672C20.8145 16.2305 17.9258 16.2305 17.5938 16.1973C18.0586 14.0391 19.5195 12.2129 21.4785 11.2832ZM17.4609 17.6582C17.4609 17.5918 17.4609 17.5254 17.4609 17.4258C17.7598 17.459 21.1797 17.4922 24.666 16.4297C24.8984 16.8281 25.0645 17.2266 25.2637 17.625C22.707 18.3555 20.3828 20.4141 19.2539 22.3398C18.125 21.1113 17.4609 19.4512 17.4609 17.6582ZM20.1504 23.2031C20.9141 21.709 22.9062 19.75 25.7285 18.7871C26.7246 21.3438 27.123 23.502 27.2227 24.1328C24.9648 25.0957 22.2422 24.8301 20.1504 23.2031ZM28.418 23.4688C28.3516 23.0703 27.9531 21.0117 27.0566 18.4551C29.248 18.123 31.1738 18.6875 31.4395 18.7539C31.1074 20.7129 29.9785 22.4062 28.418 23.4688Z" fill="white"/>
<path d="M42.1458 14.126H45.0515C45.7068 14.126 46.2063 14.1761 46.5501 14.2764C47.012 14.4124 47.4077 14.6541 47.7371 15.0015C48.0665 15.3488 48.3172 15.7749 48.489 16.2798C48.6609 16.7811 48.7469 17.4006 48.7469 18.1382C48.7469 18.7863 48.6663 19.3449 48.5052 19.814C48.3082 20.3869 48.0271 20.8506 47.6619 21.2051C47.3862 21.4736 47.0138 21.6831 46.5447 21.8335C46.1938 21.9445 45.7247 22 45.1375 22H42.1458V14.126ZM43.7356 15.458V20.6733H44.9226C45.3666 20.6733 45.6871 20.6483 45.8841 20.5981C46.1419 20.5337 46.3549 20.4245 46.5232 20.2705C46.6951 20.1165 46.8347 19.8641 46.9422 19.5132C47.0496 19.1587 47.1033 18.6771 47.1033 18.0684C47.1033 17.4596 47.0496 16.9924 46.9422 16.6665C46.8347 16.3407 46.6844 16.0864 46.491 15.9038C46.2976 15.7212 46.0524 15.5977 45.7552 15.5332C45.5332 15.4831 45.0981 15.458 44.45 15.458H43.7356ZM51.6457 22V14.126H54.9919C55.8334 14.126 56.4439 14.1976 56.8235 14.3408C57.2066 14.4805 57.5128 14.7311 57.7419 15.0928C57.9711 15.4544 58.0857 15.868 58.0857 16.3335C58.0857 16.9243 57.912 17.4131 57.5647 17.7998C57.2174 18.1829 56.6982 18.4246 56.0071 18.5249C56.3508 18.7254 56.6337 18.9456 56.8557 19.1855C57.0813 19.4255 57.3839 19.8516 57.7634 20.4639L58.7248 22H56.8235L55.6741 20.2866C55.2659 19.6743 54.9866 19.2894 54.8362 19.1318C54.6858 18.9707 54.5264 18.8615 54.3581 18.8042C54.1899 18.7433 53.9231 18.7129 53.5579 18.7129H53.2356V22H51.6457ZM53.2356 17.4561H54.4119C55.1746 17.4561 55.6508 17.4238 55.8406 17.3594C56.0303 17.2949 56.1789 17.1839 56.2864 17.0264C56.3938 16.8688 56.4475 16.6719 56.4475 16.4355C56.4475 16.1706 56.3759 15.9575 56.2327 15.7964C56.093 15.6317 55.8943 15.5278 55.6365 15.4849C55.5076 15.467 55.1208 15.458 54.4763 15.458H53.2356V17.4561ZM61.0813 22V14.126H62.6711V22H61.0813ZM65.7365 14.126H68.8839C69.507 14.126 69.9707 14.1528 70.2751 14.2065C70.583 14.2567 70.8569 14.3641 71.0968 14.5288C71.3403 14.6935 71.5426 14.9137 71.7038 15.1895C71.8649 15.4616 71.9455 15.7677 71.9455 16.1079C71.9455 16.4767 71.8452 16.8151 71.6447 17.123C71.4477 17.431 71.1792 17.6619 70.839 17.8159C71.3188 17.9556 71.6877 18.1937 71.9455 18.5303C72.2033 18.8669 72.3322 19.2625 72.3322 19.7173C72.3322 20.0754 72.248 20.4245 72.0797 20.7646C71.915 21.1012 71.6877 21.3716 71.3976 21.5757C71.1112 21.7762 70.7567 21.8997 70.3341 21.9463C70.0692 21.9749 69.43 21.9928 68.4167 22H65.7365V14.126ZM67.3263 15.4365V17.2573H68.3683C68.9878 17.2573 69.3727 17.2484 69.5231 17.2305C69.7952 17.1982 70.0083 17.1051 70.1623 16.9512C70.3198 16.7936 70.3986 16.5877 70.3986 16.3335C70.3986 16.09 70.3306 15.8931 70.1945 15.7427C70.062 15.5887 69.8633 15.4956 69.5983 15.4634C69.4407 15.4455 68.9878 15.4365 68.2394 15.4365H67.3263ZM67.3263 18.5679V20.6733H68.798C69.3709 20.6733 69.7344 20.6572 69.8883 20.625C70.1247 20.582 70.3162 20.4782 70.463 20.3135C70.6134 20.1452 70.6886 19.9214 70.6886 19.6421C70.6886 19.4058 70.6313 19.2052 70.5168 19.0405C70.4022 18.8758 70.2357 18.7559 70.0172 18.6807C69.8024 18.6055 69.3333 18.5679 68.61 18.5679H67.3263ZM75.2257 14.126H78.3732C78.9962 14.126 79.4599 14.1528 79.7643 14.2065C80.0722 14.2567 80.3461 14.3641 80.5861 14.5288C80.8295 14.6935 81.0319 14.9137 81.193 15.1895C81.3541 15.4616 81.4347 15.7677 81.4347 16.1079C81.4347 16.4767 81.3344 16.8151 81.1339 17.123C80.937 17.431 80.6684 17.6619 80.3282 17.8159C80.8081 17.9556 81.1769 18.1937 81.4347 18.5303C81.6925 18.8669 81.8214 19.2625 81.8214 19.7173C81.8214 20.0754 81.7373 20.4245 81.569 20.7646C81.4043 21.1012 81.1769 21.3716 80.8868 21.5757C80.6004 21.7762 80.2459 21.8997 79.8234 21.9463C79.5584 21.9749 78.9192 21.9928 77.9059 22H75.2257V14.126ZM76.8155 15.4365V17.2573H77.8575C78.477 17.2573 78.8619 17.2484 79.0123 17.2305C79.2845 17.1982 79.4975 17.1051 79.6515 16.9512C79.809 16.7936 79.8878 16.5877 79.8878 16.3335C79.8878 16.09 79.8198 15.8931 79.6837 15.7427C79.5512 15.5887 79.3525 15.4956 79.0875 15.4634C78.93 15.4455 78.477 15.4365 77.7286 15.4365H76.8155ZM76.8155 18.5679V20.6733H78.2872C78.8601 20.6733 79.2236 20.6572 79.3776 20.625C79.6139 20.582 79.8055 20.4782 79.9523 20.3135C80.1027 20.1452 80.1779 19.9214 80.1779 19.6421C80.1779 19.4058 80.1206 19.2052 80.006 19.0405C79.8914 18.8758 79.7249 18.7559 79.5065 18.6807C79.2916 18.6055 78.8225 18.5679 78.0992 18.5679H76.8155ZM84.7149 14.126H87.8624C88.4854 14.126 88.9491 14.1528 89.2535 14.2065C89.5614 14.2567 89.8354 14.3641 90.0753 14.5288C90.3188 14.6935 90.5211 14.9137 90.6822 15.1895C90.8433 15.4616 90.9239 15.7677 90.9239 16.1079C90.9239 16.4767 90.8236 16.8151 90.6231 17.123C90.4262 17.431 90.1576 17.6619 89.8175 17.8159C90.2973 17.9556 90.6661 18.1937 90.9239 18.5303C91.1817 18.8669 91.3106 19.2625 91.3106 19.7173C91.3106 20.0754 91.2265 20.4245 91.0582 20.7646C90.8935 21.1012 90.6661 21.3716 90.3761 21.5757C90.0896 21.7762 89.7351 21.8997 89.3126 21.9463C89.0476 21.9749 88.4084 21.9928 87.3951 22H84.7149V14.126ZM86.3048 15.4365V17.2573H87.3468C87.9662 17.2573 88.3512 17.2484 88.5015 17.2305C88.7737 17.1982 88.9867 17.1051 89.1407 16.9512C89.2983 16.7936 89.377 16.5877 89.377 16.3335C89.377 16.09 89.309 15.8931 89.1729 15.7427C89.0404 15.5887 88.8417 15.4956 88.5767 15.4634C88.4192 15.4455 87.9662 15.4365 87.2179 15.4365H86.3048ZM86.3048 18.5679V20.6733H87.7764C88.3494 20.6733 88.7128 20.6572 88.8668 20.625C89.1031 20.582 89.2947 20.4782 89.4415 20.3135C89.5919 20.1452 89.6671 19.9214 89.6671 19.6421C89.6671 19.4058 89.6098 19.2052 89.4952 19.0405C89.3806 18.8758 89.2141 18.7559 88.9957 18.6807C88.7808 18.6055 88.3118 18.5679 87.5885 18.5679H86.3048ZM94.2417 22V14.1904H95.8316V20.6733H99.7847V22H94.2417ZM102.463 22V14.126H108.302V15.458H104.053V17.2036H108.006V18.5303H104.053V20.6733H108.452V22H102.463Z" fill="white"/>
</svg>
