<svg width="134" height="40" viewBox="0 0 134 40" fill="none" xmlns="http://www.w3.org/2000/svg">
<rect y="0.791992" width="133.722" height="38.5118" rx="2.13955" fill="#EA4C89"/>
<path d="M26.2103 11.7219C21.344 11.7219 17.4013 15.7001 17.4013 20.5308C17.4013 25.397 21.344 29.3397 26.2103 29.3397C31.041 29.3397 35.0192 25.397 35.0192 20.5308C35.0192 15.7001 31.041 11.7219 26.2103 11.7219ZM32 15.8066C33.0656 17.0854 33.7049 18.7193 33.7049 20.4953C33.4563 20.4242 30.9699 19.9269 28.4835 20.2466C28.2704 19.7493 28.0928 19.3231 27.8087 18.7548C30.6147 17.6182 31.8579 16.0198 32 15.8066ZM31.183 14.9187C31.041 15.1318 29.9043 16.6591 27.2403 17.6537C25.9971 15.3804 24.6474 13.5334 24.4343 13.2492C26.8141 12.6809 29.336 13.2847 31.183 14.9187ZM22.978 13.7465C23.1911 14.0307 24.5408 15.8777 25.784 18.1154C22.2676 19.0389 19.1773 19.0389 18.8221 19.0034C19.3194 16.6946 20.8823 14.7411 22.978 13.7465ZM18.6801 20.5663C18.6801 20.4953 18.6801 20.4242 18.6801 20.3177C18.9997 20.3532 22.6583 20.3887 26.3879 19.2521C26.6365 19.6783 26.8141 20.1045 27.0272 20.5308C24.2922 21.3122 21.8058 23.5144 20.5981 25.5746C19.3905 24.2604 18.6801 22.4844 18.6801 20.5663ZM21.5572 26.4981C22.3741 24.8997 24.5053 22.804 27.5245 21.774C28.5901 24.509 29.0163 26.8178 29.1229 27.4927C26.7075 28.5227 23.7949 28.2386 21.5572 26.4981ZM30.4016 26.7823C30.3306 26.356 29.9043 24.1538 28.9453 21.4188C31.2896 21.0636 33.3497 21.6674 33.6339 21.7385C33.2787 23.8341 32.071 25.6456 30.4016 26.7823Z" fill="white"/>
<path d="M45.0851 15.9272H48.1936C48.8946 15.9272 49.429 15.9808 49.7967 16.0881C50.2908 16.2336 50.7141 16.4922 51.0665 16.8637C51.4189 17.2353 51.6871 17.6911 51.871 18.2313C52.0548 18.7675 52.1468 19.4302 52.1468 20.2193C52.1468 20.9127 52.0606 21.5102 51.8882 22.012C51.6775 22.6249 51.3768 23.121 50.9861 23.5002C50.6911 23.7875 50.2928 24.0116 49.791 24.1725C49.4156 24.2912 48.9138 24.3506 48.2855 24.3506H45.0851V15.9272ZM46.7859 17.3521V22.9314H48.0557C48.5307 22.9314 48.8735 22.9045 49.0842 22.8509C49.36 22.782 49.5879 22.6651 49.768 22.5004C49.9518 22.3357 50.1012 22.0657 50.2162 21.6903C50.3311 21.311 50.3885 20.7958 50.3885 20.1446C50.3885 19.4934 50.3311 18.9935 50.2162 18.645C50.1012 18.2964 49.9403 18.0244 49.7335 17.829C49.5266 17.6337 49.2643 17.5015 48.9463 17.4326C48.7088 17.379 48.2434 17.3521 47.5501 17.3521H46.7859ZM55.2479 24.3506V15.9272H58.8276C59.7278 15.9272 60.3809 16.0038 60.7869 16.157C61.1968 16.3064 61.5243 16.5745 61.7694 16.9614C62.0146 17.3483 62.1372 17.7907 62.1372 18.2887C62.1372 18.9208 61.9514 19.4436 61.5798 19.8573C61.2083 20.2672 60.6528 20.5258 59.9135 20.633C60.2813 20.8475 60.5839 21.0831 60.8214 21.3398C61.0627 21.5964 61.3864 22.0522 61.7924 22.7073L62.8209 24.3506H60.7869L59.5573 22.5177C59.1206 21.8626 58.8218 21.4508 58.6609 21.2823C58.5001 21.1099 58.3296 20.9931 58.1496 20.9318C57.9695 20.8667 57.6841 20.8341 57.2934 20.8341H56.9487V24.3506H55.2479ZM56.9487 19.4896H58.207C59.0229 19.4896 59.5324 19.4551 59.7354 19.3862C59.9384 19.3172 60.0974 19.1985 60.2123 19.0299C60.3272 18.8614 60.3847 18.6507 60.3847 18.3979C60.3847 18.1144 60.3081 17.8865 60.1549 17.7141C60.0055 17.5379 59.7929 17.4268 59.5171 17.3809C59.3792 17.3617 58.9655 17.3521 58.276 17.3521H56.9487V19.4896ZM65.3418 24.3506V15.9272H67.0425V24.3506H65.3418ZM70.3218 15.9272H73.6889C74.3554 15.9272 74.8515 15.9559 75.177 16.0134C75.5065 16.067 75.7995 16.1819 76.0562 16.3581C76.3166 16.5343 76.5331 16.7699 76.7054 17.0648C76.8778 17.356 76.964 17.6835 76.964 18.0474C76.964 18.4419 76.8568 18.8039 76.6422 19.1334C76.4316 19.4628 76.1443 19.7099 75.7804 19.8746C76.2937 20.024 76.6882 20.2787 76.964 20.6388C77.2398 20.9988 77.3777 21.4221 77.3777 21.9086C77.3777 22.2917 77.2877 22.6651 77.1077 23.029C76.9314 23.3891 76.6882 23.6783 76.3779 23.8967C76.0715 24.1112 75.6923 24.2433 75.2403 24.2931C74.9568 24.3238 74.273 24.3429 73.189 24.3506H70.3218V15.9272ZM72.0226 17.3292V19.277H73.1373C73.8 19.277 74.2117 19.2674 74.3726 19.2483C74.6638 19.2138 74.8917 19.1142 75.0564 18.9495C75.2249 18.7809 75.3092 18.5607 75.3092 18.2887C75.3092 18.0282 75.2364 17.8176 75.0909 17.6567C74.9491 17.492 74.7365 17.3924 74.4531 17.3579C74.2845 17.3387 73.8 17.3292 72.9994 17.3292H72.0226ZM72.0226 20.679V22.9314H73.5969C74.2098 22.9314 74.5986 22.9141 74.7633 22.8796C75.0162 22.8337 75.2211 22.7226 75.3782 22.5464C75.539 22.3664 75.6195 22.1269 75.6195 21.8282C75.6195 21.5753 75.5582 21.3608 75.4356 21.1846C75.313 21.0084 75.1349 20.8801 74.9012 20.7996C74.6714 20.7192 74.1696 20.679 73.3958 20.679H72.0226ZM80.4731 15.9272H83.8402C84.5067 15.9272 85.0028 15.9559 85.3284 16.0134C85.6578 16.067 85.9508 16.1819 86.2075 16.3581C86.468 16.5343 86.6844 16.7699 86.8568 17.0648C87.0291 17.356 87.1153 17.6835 87.1153 18.0474C87.1153 18.4419 87.0081 18.8039 86.7936 19.1334C86.5829 19.4628 86.2956 19.7099 85.9317 19.8746C86.445 20.024 86.8395 20.2787 87.1153 20.6388C87.3911 20.9988 87.529 21.4221 87.529 21.9086C87.529 22.2917 87.439 22.6651 87.259 23.029C87.0828 23.3891 86.8395 23.6783 86.5292 23.8967C86.2228 24.1112 85.8436 24.2433 85.3916 24.2931C85.1081 24.3238 84.4243 24.3429 83.3403 24.3506H80.4731V15.9272ZM82.1739 17.3292V19.277H83.2886C83.9513 19.277 84.3631 19.2674 84.5239 19.2483C84.8151 19.2138 85.043 19.1142 85.2077 18.9495C85.3762 18.7809 85.4605 18.5607 85.4605 18.2887C85.4605 18.0282 85.3877 17.8176 85.2422 17.6567C85.1004 17.492 84.8878 17.3924 84.6044 17.3579C84.4358 17.3387 83.9513 17.3292 83.1507 17.3292H82.1739ZM82.1739 20.679V22.9314H83.7482C84.3611 22.9314 84.7499 22.9141 84.9147 22.8796C85.1675 22.8337 85.3724 22.7226 85.5295 22.5464C85.6903 22.3664 85.7708 22.1269 85.7708 21.8282C85.7708 21.5753 85.7095 21.3608 85.5869 21.1846C85.4643 21.0084 85.2862 20.8801 85.0526 20.7996C84.8227 20.7192 84.3209 20.679 83.5471 20.679H82.1739ZM90.6244 15.9272H93.9915C94.658 15.9272 95.1541 15.9559 95.4797 16.0134C95.8091 16.067 96.1021 16.1819 96.3588 16.3581C96.6193 16.5343 96.8357 16.7699 97.0081 17.0648C97.1804 17.356 97.2666 17.6835 97.2666 18.0474C97.2666 18.4419 97.1594 18.8039 96.9449 19.1334C96.7342 19.4628 96.4469 19.7099 96.083 19.8746C96.5963 20.024 96.9908 20.2787 97.2666 20.6388C97.5424 20.9988 97.6803 21.4221 97.6803 21.9086C97.6803 22.2917 97.5903 22.6651 97.4103 23.029C97.2341 23.3891 96.9908 23.6783 96.6806 23.8967C96.3741 24.1112 95.9949 24.2433 95.5429 24.2931C95.2594 24.3238 94.5757 24.3429 93.4916 24.3506H90.6244V15.9272ZM92.3252 17.3292V19.277H93.4399C94.1026 19.277 94.5144 19.2674 94.6753 19.2483C94.9664 19.2138 95.1943 19.1142 95.359 18.9495C95.5276 18.7809 95.6118 18.5607 95.6118 18.2887C95.6118 18.0282 95.539 17.8176 95.3935 17.6567C95.2518 17.492 95.0392 17.3924 94.7557 17.3579C94.5872 17.3387 94.1026 17.3292 93.302 17.3292H92.3252ZM92.3252 20.679V22.9314H93.8996C94.5125 22.9314 94.9013 22.9141 95.066 22.8796C95.3188 22.8337 95.5237 22.7226 95.6808 22.5464C95.8417 22.3664 95.9221 22.1269 95.9221 21.8282C95.9221 21.5753 95.8608 21.3608 95.7382 21.1846C95.6157 21.0084 95.4375 20.8801 95.2039 20.7996C94.974 20.7192 94.4722 20.679 93.6985 20.679H92.3252ZM100.816 24.3506V15.9961H102.517V22.9314H106.746V24.3506H100.816ZM109.611 24.3506V15.9272H115.857V17.3521H111.312V19.2195H115.541V20.6388H111.312V22.9314H116.018V24.3506H109.611Z" fill="white"/>
</svg>
