<svg width="114" height="39" viewBox="0 0 114 39" fill="none" xmlns="http://www.w3.org/2000/svg">
<path d="M111.674 0.394531H2.55752C1.37588 0.394531 0.417969 1.35244 0.417969 2.53408V36.7668C0.417969 37.9484 1.37588 38.9063 2.55752 38.9063H111.674C112.856 38.9063 113.814 37.9484 113.814 36.7668V2.53408C113.814 1.35244 112.856 0.394531 111.674 0.394531Z" fill="#0D0543"/>
<path d="M26.12 10C27.0729 10 27.7714 11.5291 28.6312 11.8071C29.5223 12.0952 30.9885 11.2768 31.7303 11.8141C32.4795 12.3569 32.1479 14.0014 32.693 14.7471C33.2328 15.4855 34.9095 15.6767 35.1989 16.5637C35.4779 17.4196 34.2435 18.5515 34.2435 19.5C34.2435 20.4485 35.4779 21.5804 35.1987 22.4363C34.9095 23.3233 33.2328 23.5145 32.6928 24.2529C32.1475 24.9986 32.4793 26.6435 31.7301 27.1859C30.9883 27.7232 29.5221 26.9048 28.631 27.1929C27.7714 27.4709 27.0729 29 26.12 29C25.1671 29 24.4686 27.4709 23.6088 27.1929C22.7177 26.9048 21.2515 27.7232 20.5097 27.1859C19.7605 26.6431 20.0921 24.9986 19.547 24.2529C19.0072 23.5145 17.3305 23.3233 17.0411 22.4363C16.7621 21.5804 17.9965 20.4485 17.9965 19.5C17.9965 18.5515 16.7621 17.4196 17.0413 16.5637C17.3305 15.6767 19.0072 15.4855 19.5472 14.7471C20.0925 14.0014 19.7607 12.3565 20.51 11.8141C21.2517 11.2768 22.7179 12.0952 23.609 11.8071C24.4686 11.5291 25.1671 10 26.12 10Z" fill="url(#paint0_linear_713_646)"/>
<path d="M25.9625 15.0194L23.3921 19.9035C23.3639 19.9571 23.3499 20.0172 23.3514 20.0779C23.353 20.1386 23.37 20.1978 23.4009 20.2499C23.4317 20.302 23.4754 20.3451 23.5276 20.3752C23.5799 20.4052 23.6389 20.4211 23.699 20.4213H25.0501C25.0959 20.4213 25.1413 20.4304 25.1836 20.4481C25.2259 20.4658 25.2644 20.4917 25.2968 20.5244C25.3292 20.5571 25.3549 20.596 25.3724 20.6387C25.39 20.6815 25.399 20.7273 25.399 20.7736V23.7077C25.399 24.0705 25.8762 24.1965 26.0518 23.8799L28.7355 19.0427C28.7652 18.9891 28.7805 18.9286 28.7799 18.8672C28.7793 18.8057 28.7628 18.7455 28.7321 18.6925C28.7014 18.6395 28.6575 18.5955 28.6048 18.565C28.5521 18.5344 28.4923 18.5182 28.4315 18.5181L26.9668 18.5165C26.8744 18.5164 26.7858 18.4792 26.7205 18.4132C26.6552 18.3471 26.6185 18.2576 26.6185 18.1643V15.185C26.6191 14.8178 26.1331 14.6955 25.9625 15.0194Z" fill="white"/>
<path d="M43.3062 23.9546V15.5312H49.0808V16.9562H45.007V18.9499H48.5234V20.375H45.007V23.9546H43.3062ZM52.1245 15.5312H53.8252V20.0935C53.8252 20.8174 53.8463 21.2867 53.8884 21.5012C53.9612 21.846 54.1336 22.1236 54.4056 22.3342C54.6814 22.5411 55.0568 22.6446 55.5318 22.6446C56.0144 22.6446 56.3783 22.5468 56.6235 22.3515C56.8686 22.1523 57.0161 21.9091 57.0659 21.6218C57.1157 21.3345 57.1406 20.8576 57.1406 20.191V15.5312H58.8414V19.9555C58.8414 20.9667 58.7954 21.6811 58.7035 22.0987C58.6115 22.5162 58.4411 22.8687 58.1921 23.156C57.9469 23.4433 57.6175 23.673 57.2038 23.8454C56.7901 24.014 56.25 24.0982 55.5835 24.0982C54.7791 24.0982 54.1681 24.0064 53.7505 23.8225C53.3368 23.6348 53.0093 23.3934 52.768 23.0984C52.5267 22.7997 52.3677 22.4875 52.2911 22.1619C52.18 21.6792 52.1245 20.9668 52.1245 20.0245V15.5312ZM62.2873 23.9546V15.5312H68.533V16.9562H63.988V18.8235H68.217V20.2428H63.988V22.5354H68.6939V23.9546H62.2873ZM71.8295 23.9546V15.6002H73.5303V22.5354H77.7592V23.9546H71.8295ZM80.6248 23.9546V15.5312H86.8706V16.9562H82.3256V18.8235H86.5545V20.2428H82.3256V22.5354H87.0314V23.9546H80.6248ZM90.1268 23.9546V15.5312H93.7065C94.6067 15.5312 95.2598 15.6079 95.6658 15.7611C96.0757 15.9105 96.4032 16.1786 96.6484 16.5655C96.8935 16.9524 97.0161 17.3947 97.0161 17.8927C97.0161 18.5247 96.8303 19.0476 96.4588 19.4613C96.0872 19.8712 95.5318 20.1298 94.7925 20.237C95.1602 20.4515 95.4628 20.6871 95.7003 20.9438C95.9416 21.2004 96.2653 21.6562 96.6714 22.3113L97.6999 23.9546H95.6658L94.4362 22.1217C93.9996 21.4666 93.7008 21.0549 93.5399 20.8864C93.379 20.714 93.2085 20.5972 93.0285 20.5359C92.8485 20.4708 92.5631 20.4382 92.1724 20.4382H91.8276V23.9546H90.1268ZM91.8276 19.0937H93.086C93.9019 19.0937 94.4113 19.0591 94.6144 18.9902C94.8174 18.9212 94.9763 18.8025 95.0913 18.6339C95.2062 18.4654 95.2636 18.2547 95.2636 18.0019C95.2636 17.7184 95.187 17.4905 95.0338 17.3181C94.8844 17.1419 94.6718 17.0308 94.396 16.9849C94.2581 16.9657 93.8444 16.9562 93.1549 16.9562H91.8276V19.0937Z" fill="white"/>
<defs>
<linearGradient id="paint0_linear_713_646" x1="18.7914" y1="12.66" x2="33.5029" y2="26.4486" gradientUnits="userSpaceOnUse">
<stop stop-color="#00FBFF"/>
<stop offset="0.9999" stop-color="#10DCE8"/>
<stop offset="1" stop-color="#09C9E3"/>
</linearGradient>
</defs>
</svg>
