<svg width="106" height="36" viewBox="0 0 106 36" fill="none" xmlns="http://www.w3.org/2000/svg">
<rect width="106" height="36" rx="2" fill="#0D0543"/>
<path d="M33 18.0004C33 18.9031 31.5513 19.5649 31.288 20.3794C31.0151 21.2236 31.7904 22.6126 31.2813 23.3153C30.7671 24.0252 29.2092 23.711 28.5028 24.2274C27.8032 24.7388 27.6221 26.3273 26.7817 26.6015C25.9709 26.8658 24.8986 25.6963 24 25.6963C23.1014 25.6963 22.0291 26.8658 21.2183 26.6013C20.3779 26.3273 20.1968 24.7388 19.4972 24.2272C18.7908 23.7106 17.2325 24.025 16.7187 23.3151C16.2096 22.6124 16.9849 21.2234 16.712 20.3792C16.4487 19.5649 15 18.9031 15 18.0004C15 17.0976 16.4487 16.4358 16.712 15.6213C16.9849 14.7771 16.2096 13.3881 16.7187 12.6854C17.2329 11.9755 18.7908 12.2897 19.4972 11.7733C20.1968 11.2619 20.3779 9.67345 21.2183 9.39924C22.0291 9.13493 23.1014 10.3044 24 10.3044C24.8986 10.3044 25.9709 9.13493 26.7817 9.39944C27.6221 9.67345 27.8032 11.2619 28.5028 11.7735C29.2092 12.2901 30.7675 11.9757 31.2813 12.6856C31.7904 13.3883 31.0151 14.7773 31.288 15.6215C31.5513 16.4358 33 17.0976 33 18.0004Z" fill="url(#paint0_linear)"/>
<path d="M23.8527 13.8582L21.4175 18.4852C21.3908 18.536 21.3776 18.5929 21.379 18.6504C21.3805 18.7079 21.3966 18.764 21.4259 18.8134C21.4551 18.8627 21.4965 18.9036 21.5459 18.9321C21.5954 18.9605 21.6513 18.9756 21.7083 18.9758H22.9883C23.0317 18.9757 23.0747 18.9844 23.1148 19.0011C23.1549 19.0179 23.1913 19.0425 23.222 19.0735C23.2527 19.1044 23.277 19.1412 23.2937 19.1818C23.3103 19.2223 23.3188 19.2657 23.3188 19.3095V22.0892C23.3188 22.4329 23.7709 22.5523 23.9373 22.2524L26.4797 17.6697C26.5078 17.6189 26.5223 17.5616 26.5217 17.5034C26.5212 17.4452 26.5056 17.3882 26.4765 17.338C26.4474 17.2878 26.4058 17.2461 26.3559 17.2171C26.3059 17.1881 26.2493 17.1728 26.1918 17.1728L24.8041 17.1713C24.7166 17.1711 24.6327 17.1359 24.5708 17.0733C24.5089 17.0107 24.4742 16.9259 24.4741 16.8375V14.015C24.4747 13.6672 24.0142 13.5513 23.8527 13.8582Z" fill="white"/>
<path d="M40.0896 22V14.126H45.4875V15.458H41.6794V17.3218H44.9665V18.6538H41.6794V22H40.0896ZM48.3327 14.126H49.9225V18.3906C49.9225 19.0674 49.9422 19.506 49.9816 19.7065C50.0496 20.0288 50.2108 20.2884 50.465 20.4854C50.7228 20.6787 51.0737 20.7754 51.5177 20.7754C51.9689 20.7754 52.3091 20.6841 52.5382 20.5015C52.7674 20.3153 52.9053 20.0879 52.9518 19.8193C52.9984 19.5508 53.0216 19.105 53.0216 18.4819V14.126H54.6115V18.2617C54.6115 19.207 54.5685 19.8748 54.4826 20.2651C54.3966 20.6554 54.2373 20.9849 54.0045 21.2534C53.7754 21.522 53.4674 21.7368 53.0807 21.8979C52.694 22.0555 52.1891 22.1343 51.5661 22.1343C50.8141 22.1343 50.243 22.0483 49.8527 21.8765C49.466 21.701 49.1598 21.4754 48.9342 21.1997C48.7087 20.9204 48.5601 20.6286 48.4884 20.3242C48.3846 19.873 48.3327 19.207 48.3327 18.3262V14.126ZM57.8326 22V14.126H63.671V15.458H59.4225V17.2036H63.3756V18.5303H59.4225V20.6733H63.8214V22H57.8326ZM66.7525 22V14.1904H68.3424V20.6733H72.2955V22H66.7525ZM74.9742 22V14.126H80.8125V15.458H76.564V17.2036H80.5171V18.5303H76.564V20.6733H80.9629V22H74.9742ZM83.8564 22V14.126H87.2026C88.0441 14.126 88.6546 14.1976 89.0342 14.3408C89.4173 14.4805 89.7235 14.7311 89.9526 15.0928C90.1818 15.4544 90.2964 15.868 90.2964 16.3335C90.2964 16.9243 90.1227 17.4131 89.7754 17.7998C89.4281 18.1829 88.9089 18.4246 88.2178 18.5249C88.5615 18.7254 88.8444 18.9456 89.0664 19.1855C89.292 19.4255 89.5946 19.8516 89.9741 20.4639L90.9355 22H89.0342L87.8848 20.2866C87.4766 19.6743 87.1973 19.2894 87.0469 19.1318C86.8965 18.9707 86.7371 18.8615 86.5688 18.8042C86.4006 18.7433 86.1338 18.7129 85.7686 18.7129H85.4463V22H83.8564ZM85.4463 17.4561H86.6226C87.3853 17.4561 87.8615 17.4238 88.0513 17.3594C88.241 17.2949 88.3896 17.1839 88.4971 17.0264C88.6045 16.8688 88.6582 16.6719 88.6582 16.4355C88.6582 16.1706 88.5866 15.9575 88.4434 15.7964C88.3037 15.6317 88.105 15.5278 87.8472 15.4849C87.7183 15.467 87.3315 15.458 86.687 15.458H85.4463V17.4561Z" fill="white"/>
<defs>
<linearGradient id="paint0_linear" x1="24" y1="9.36035" x2="24" y2="26.6404" gradientUnits="userSpaceOnUse">
<stop stop-color="#00FBFF"/>
<stop offset="0.9999" stop-color="#10DCE8"/>
<stop offset="1" stop-color="#09C9E3"/>
</linearGradient>
</defs>
</svg>
