<svg width="114" height="39" viewBox="0 0 114 39" fill="none" xmlns="http://www.w3.org/2000/svg">
<rect x="0.417969" y="0.396484" width="113.396" height="38.5118" rx="2.13955" fill="#0D0543"/>
<path d="M35.7208 19.652C35.7208 20.6178 34.171 21.3257 33.8893 22.197C33.5973 23.1001 34.4268 24.5861 33.8822 25.3378C33.3321 26.0972 31.6654 25.7611 30.9097 26.3135C30.1614 26.8606 29.9676 28.5599 29.0686 28.8533C28.2013 29.136 27.0541 27.885 26.0928 27.885C25.1315 27.885 23.9843 29.136 23.117 28.853C22.218 28.5599 22.0242 26.8606 21.2759 26.3133C20.5202 25.7607 18.8531 26.097 18.3034 25.3376C17.7588 24.5859 18.5883 23.0999 18.2963 22.1968C18.0146 21.3257 16.4648 20.6178 16.4648 19.652C16.4648 18.6863 18.0146 17.9783 18.2963 17.107C18.5883 16.2039 17.7588 14.718 18.3034 13.9662C18.8535 13.2068 20.5202 13.5429 21.2759 12.9905C22.0242 12.4434 22.218 10.7441 23.117 10.4508C23.9843 10.168 25.1315 11.4191 26.0928 11.4191C27.0541 11.4191 28.2013 10.168 29.0686 10.451C29.9676 10.7441 30.1614 12.4434 30.9097 12.9907C31.6654 13.5433 33.3325 13.207 33.8822 13.9664C34.4268 14.7182 33.5973 16.2041 33.8893 17.1072C34.171 17.9783 35.7208 18.6863 35.7208 19.652Z" fill="url(#paint0_linear)"/>
<path d="M25.9355 15.2202L23.3304 20.17C23.3018 20.2244 23.2876 20.2853 23.2892 20.3468C23.2907 20.4083 23.308 20.4683 23.3393 20.5211C23.3706 20.5739 23.4148 20.6176 23.4678 20.6481C23.5207 20.6785 23.5805 20.6946 23.6414 20.6948H25.0107C25.0572 20.6948 25.1031 20.704 25.146 20.722C25.1889 20.7399 25.2279 20.7662 25.2608 20.7993C25.2936 20.8325 25.3196 20.8719 25.3374 20.9152C25.3552 20.9585 25.3643 21.005 25.3643 21.0519V24.0255C25.3643 24.3931 25.848 24.5209 26.0259 24.2001L28.7458 19.2976C28.7758 19.2433 28.7913 19.182 28.7907 19.1197C28.7901 19.0575 28.7734 18.9965 28.7423 18.9428C28.7112 18.8891 28.6667 18.8445 28.6133 18.8135C28.5599 18.7825 28.4993 18.7661 28.4377 18.766L26.9532 18.7644C26.8596 18.7643 26.7698 18.7266 26.7037 18.6596C26.6375 18.5927 26.6003 18.502 26.6002 18.4074V15.388C26.6008 15.0159 26.1083 14.8919 25.9355 15.2202Z" fill="white"/>
<path d="M43.3062 23.9551V15.5317H49.0808V16.9566H45.007V18.9504H48.5234V20.3754H45.007V23.9551H43.3062ZM52.1245 15.5317H53.8252V20.0939C53.8252 20.8178 53.8463 21.2871 53.8884 21.5016C53.9612 21.8464 54.1336 22.1241 54.4056 22.3347C54.6814 22.5416 55.0568 22.645 55.5318 22.645C56.0144 22.645 56.3783 22.5473 56.6235 22.352C56.8686 22.1528 57.0161 21.9096 57.0659 21.6223C57.1157 21.335 57.1406 20.8581 57.1406 20.1915V15.5317H58.8414V19.956C58.8414 20.9672 58.7954 21.6816 58.7035 22.0992C58.6115 22.5167 58.4411 22.8691 58.1921 23.1564C57.9469 23.4437 57.6175 23.6735 57.2038 23.8459C56.7901 24.0145 56.25 24.0987 55.5835 24.0987C54.7791 24.0987 54.1681 24.0068 53.7505 23.8229C53.3368 23.6352 53.0093 23.3939 52.768 23.0989C52.5267 22.8002 52.3677 22.488 52.2911 22.1624C52.18 21.6797 52.1245 20.9672 52.1245 20.0249V15.5317ZM62.2873 23.9551V15.5317H68.533V16.9566H63.988V18.824H68.217V20.2433H63.988V22.5359H68.6939V23.9551H62.2873ZM71.8295 23.9551V15.6006H73.5303V22.5359H77.7592V23.9551H71.8295ZM80.6248 23.9551V15.5317H86.8706V16.9566H82.3256V18.824H86.5545V20.2433H82.3256V22.5359H87.0314V23.9551H80.6248ZM90.1268 23.9551V15.5317H93.7065C94.6067 15.5317 95.2598 15.6083 95.6658 15.7615C96.0757 15.9109 96.4032 16.179 96.6484 16.5659C96.8935 16.9528 97.0161 17.3952 97.0161 17.8932C97.0161 18.5252 96.8303 19.0481 96.4588 19.4618C96.0872 19.8717 95.5318 20.1303 94.7925 20.2375C95.1602 20.452 95.4628 20.6876 95.7003 20.9443C95.9416 21.2009 96.2653 21.6567 96.6714 22.3118L97.6999 23.9551H95.6658L94.4362 22.1222C93.9996 21.4671 93.7008 21.0553 93.5399 20.8868C93.379 20.7144 93.2085 20.5976 93.0285 20.5363C92.8485 20.4712 92.5631 20.4386 92.1724 20.4386H91.8276V23.9551H90.1268ZM91.8276 19.0941H93.086C93.9019 19.0941 94.4113 19.0596 94.6144 18.9907C94.8174 18.9217 94.9763 18.803 95.0913 18.6344C95.2062 18.4659 95.2636 18.2552 95.2636 18.0024C95.2636 17.7189 95.187 17.491 95.0338 17.3186C94.8844 17.1424 94.6718 17.0313 94.396 16.9854C94.2581 16.9662 93.8444 16.9566 93.1549 16.9566H91.8276V19.0941Z" fill="white"/>
<defs>
<linearGradient id="paint0_linear" x1="26.0928" y1="10.4092" x2="26.0928" y2="28.8949" gradientUnits="userSpaceOnUse">
<stop stop-color="#00FBFF"/>
<stop offset="0.9999" stop-color="#10DCE8"/>
<stop offset="1" stop-color="#09C9E3"/>
</linearGradient>
</defs>
</svg>
