<svg width="158" height="40" viewBox="0 0 158 40" fill="none" xmlns="http://www.w3.org/2000/svg">
<rect y="0.698242" width="157.257" height="38.5118" rx="2.13955" fill="url(#paint0_linear)"/>
<path d="M25.8091 15.7108C23.4021 15.7108 21.484 17.6665 21.484 20.0359C21.484 22.4429 23.4021 24.3609 25.8091 24.3609C28.1785 24.3609 30.1342 22.4429 30.1342 20.0359C30.1342 17.6665 28.1785 15.7108 25.8091 15.7108ZM25.8091 22.8566C24.2671 22.8566 22.9884 21.6155 22.9884 20.0359C22.9884 18.4939 24.2295 17.2528 25.8091 17.2528C27.3511 17.2528 28.5922 18.4939 28.5922 20.0359C28.5922 21.6155 27.3511 22.8566 25.8091 22.8566ZM31.3 15.5604C31.3 14.9962 30.8487 14.5449 30.2846 14.5449C29.7205 14.5449 29.2691 14.9962 29.2691 15.5604C29.2691 16.1245 29.7205 16.5758 30.2846 16.5758C30.8487 16.5758 31.3 16.1245 31.3 15.5604ZM34.1583 16.5758C34.0831 15.2219 33.7822 14.0184 32.8044 13.0406C31.8266 12.0627 30.6231 11.7618 29.2691 11.6866C27.8776 11.6114 23.703 11.6114 22.3114 11.6866C20.9575 11.7618 19.7916 12.0627 18.7762 13.0406C17.7983 14.0184 17.4975 15.2219 17.4222 16.5758C17.347 17.9674 17.347 22.142 17.4222 23.5335C17.4975 24.8875 17.7983 26.0533 18.7762 27.0688C19.7916 28.0466 20.9575 28.3475 22.3114 28.4227C23.703 28.4979 27.8776 28.4979 29.2691 28.4227C30.6231 28.3475 31.8266 28.0466 32.8044 27.0688C33.7822 26.0533 34.0831 24.8875 34.1583 23.5335C34.2336 22.142 34.2336 17.9674 34.1583 16.5758ZM32.3531 25.0003C32.0898 25.7525 31.4881 26.3166 30.7735 26.6175C29.6452 27.0688 27.0126 26.956 25.8091 26.956C24.568 26.956 21.9353 27.0688 20.8447 26.6175C20.0925 26.3166 19.5284 25.7525 19.2275 25.0003C18.7762 23.9096 18.889 21.277 18.889 20.0359C18.889 18.8324 18.7762 16.1997 19.2275 15.0715C19.5284 14.3569 20.0925 13.7927 20.8447 13.4919C21.9353 13.0406 24.568 13.1534 25.8091 13.1534C27.0126 13.1534 29.6452 13.0406 30.7735 13.4919C31.4881 13.7551 32.0522 14.3569 32.3531 15.0715C32.8044 16.1997 32.6916 18.8324 32.6916 20.0359C32.6916 21.277 32.8044 23.9096 32.3531 25.0003Z" fill="white"/>
<path d="M44.5133 25.2568V15.3019H46.5233V25.2568H44.5133ZM50.1343 25.2568V15.3019H52.0899L56.1643 21.9498V15.3019H58.0317V25.2568H56.0149L52.0017 18.7651V25.2568H50.1343ZM61.3235 22.0177L63.2791 21.8276C63.3969 22.484 63.6345 22.9662 63.9922 23.274C64.3543 23.5818 64.841 23.7358 65.4521 23.7358C66.0995 23.7358 66.5861 23.5999 66.9121 23.3283C67.2426 23.0522 67.4078 22.7308 67.4078 22.3641C67.4078 22.1287 67.3376 21.9295 67.1973 21.7665C67.0615 21.599 66.8216 21.4541 66.4775 21.3319C66.2421 21.2504 65.7056 21.1055 64.8681 20.8973C63.7907 20.6302 63.0347 20.302 62.6001 19.9127C61.9889 19.3649 61.6834 18.6972 61.6834 17.9095C61.6834 17.4024 61.826 16.9294 62.1112 16.4902C62.4009 16.0466 62.8151 15.7093 63.3538 15.4784C63.8971 15.2476 64.5512 15.1321 65.3163 15.1321C66.5658 15.1321 67.5051 15.406 68.1344 15.9538C68.7682 16.5016 69.1009 17.2327 69.1326 18.1471L67.1226 18.2354C67.0366 17.7238 66.851 17.3572 66.5658 17.1353C66.2851 16.909 65.8618 16.7958 65.2959 16.7958C64.712 16.7958 64.2547 16.9158 63.9243 17.1557C63.7115 17.3096 63.6051 17.5156 63.6051 17.7736C63.6051 18.0091 63.7047 18.2105 63.9039 18.378C64.1574 18.5908 64.7731 18.8126 65.7509 19.0435C66.7287 19.2744 67.4508 19.5143 67.9171 19.7633C68.3879 20.0077 68.7546 20.345 69.0172 20.7751C69.2843 21.2006 69.4178 21.728 69.4178 22.3573C69.4178 22.9277 69.2594 23.4619 68.9425 23.9598C68.6256 24.4578 68.1774 24.829 67.5979 25.0735C67.0185 25.3134 66.2964 25.4334 65.4318 25.4334C64.1732 25.4334 63.2067 25.1437 62.5322 24.5642C61.8577 23.9802 61.4548 23.1314 61.3235 22.0177ZM75.0184 25.2568V16.9859H72.0645V15.3019H79.9755V16.9859H77.0284V25.2568H75.0184ZM90.8931 25.2568H88.7065L87.8373 22.9956H83.8581L83.0364 25.2568H80.9042L84.7816 15.3019H86.907L90.8931 25.2568ZM87.1922 21.3183L85.8205 17.6243L84.476 21.3183H87.1922ZM98.266 21.5967V19.9195H102.598V23.8851C102.177 24.2926 101.566 24.6525 100.765 24.9648C99.9681 25.2727 99.1601 25.4266 98.3407 25.4266C97.2995 25.4266 96.3918 25.2093 95.6177 24.7747C94.8435 24.3356 94.2618 23.7109 93.8725 22.9005C93.4832 22.0856 93.2885 21.2006 93.2885 20.2454C93.2885 19.2087 93.5058 18.2875 93.9404 17.4817C94.375 16.6758 95.011 16.0579 95.8485 15.6278C96.4869 15.2974 97.2813 15.1321 98.232 15.1321C99.4679 15.1321 100.432 15.3924 101.125 15.913C101.822 16.4291 102.27 17.1444 102.469 18.0589L100.473 18.4323C100.333 17.9434 100.068 17.5586 99.6784 17.2779C99.2936 16.9927 98.8115 16.8501 98.232 16.8501C97.3538 16.8501 96.6544 17.1285 96.1337 17.6854C95.6177 18.2422 95.3596 19.0684 95.3596 20.1639C95.3596 21.3455 95.6222 22.2328 96.1473 22.8258C96.6725 23.4143 97.3606 23.7086 98.2117 23.7086C98.6327 23.7086 99.0537 23.6271 99.4747 23.4641C99.9002 23.2966 100.265 23.0952 100.568 22.8598V21.5967H98.266ZM106.135 25.2568V15.3019H110.365C111.429 15.3019 112.201 15.3924 112.681 15.5735C113.165 15.7501 113.552 16.067 113.842 16.5242C114.132 16.9814 114.276 17.5043 114.276 18.0928C114.276 18.8398 114.057 19.4577 113.618 19.9466C113.179 20.431 112.522 20.7366 111.649 20.8633C112.083 21.1169 112.441 21.3953 112.721 21.6986C113.007 22.0019 113.389 22.5406 113.869 23.3147L115.085 25.2568H112.681L111.228 23.0906C110.711 22.3165 110.358 21.8299 110.168 21.6307C109.978 21.427 109.777 21.2889 109.564 21.2165C109.351 21.1395 109.014 21.101 108.552 21.101H108.145V25.2568H106.135ZM108.145 19.512H109.632C110.596 19.512 111.198 19.4713 111.438 19.3898C111.678 19.3083 111.866 19.168 112.002 18.9688C112.137 18.7696 112.205 18.5206 112.205 18.2218C112.205 17.8868 112.115 17.6175 111.934 17.4137C111.757 17.2055 111.506 17.0742 111.18 17.0199C111.017 16.9973 110.528 16.9859 109.713 16.9859H108.145V19.512ZM126.824 25.2568H124.637L123.768 22.9956H119.789L118.967 25.2568H116.835L120.712 15.3019H122.838L126.824 25.2568ZM123.123 21.3183L121.751 17.6243L120.407 21.3183H123.123ZM129.538 25.2568V15.3019H132.547L134.353 22.0924L136.139 15.3019H139.154V25.2568H137.286V17.4205L135.31 25.2568H133.375L131.406 17.4205V25.2568H129.538Z" fill="white"/>
<defs>
<linearGradient id="paint0_linear" x1="4.74937" y1="39.2101" x2="21.4661" y2="-27.6408" gradientUnits="userSpaceOnUse">
<stop stop-color="#FFD600"/>
<stop offset="0.59375" stop-color="#FF0100"/>
<stop offset="1" stop-color="#D800B9"/>
</linearGradient>
</defs>
</svg>
