<svg width="147" height="36" viewBox="0 0 147 36" fill="none" xmlns="http://www.w3.org/2000/svg">
<rect width="147" height="36" rx="2" fill="url(#paint0_linear)"/>
<path d="M24.125 14.207C21.875 14.207 20.082 16.0352 20.082 18.25C20.082 20.5 21.875 22.293 24.125 22.293C26.3398 22.293 28.168 20.5 28.168 18.25C28.168 16.0352 26.3398 14.207 24.125 14.207ZM24.125 20.8867C22.6836 20.8867 21.4883 19.7266 21.4883 18.25C21.4883 16.8086 22.6484 15.6484 24.125 15.6484C25.5664 15.6484 26.7266 16.8086 26.7266 18.25C26.7266 19.7266 25.5664 20.8867 24.125 20.8867ZM29.2578 14.0664C29.2578 13.5391 28.8359 13.1172 28.3086 13.1172C27.7812 13.1172 27.3594 13.5391 27.3594 14.0664C27.3594 14.5938 27.7812 15.0156 28.3086 15.0156C28.8359 15.0156 29.2578 14.5938 29.2578 14.0664ZM31.9297 15.0156C31.8594 13.75 31.5781 12.625 30.6641 11.7109C29.75 10.7969 28.625 10.5156 27.3594 10.4453C26.0586 10.375 22.1562 10.375 20.8555 10.4453C19.5898 10.5156 18.5 10.7969 17.5508 11.7109C16.6367 12.625 16.3555 13.75 16.2852 15.0156C16.2148 16.3164 16.2148 20.2188 16.2852 21.5195C16.3555 22.7852 16.6367 23.875 17.5508 24.8242C18.5 25.7383 19.5898 26.0195 20.8555 26.0898C22.1562 26.1602 26.0586 26.1602 27.3594 26.0898C28.625 26.0195 29.75 25.7383 30.6641 24.8242C31.5781 23.875 31.8594 22.7852 31.9297 21.5195C32 20.2188 32 16.3164 31.9297 15.0156ZM30.2422 22.8906C29.9961 23.5938 29.4336 24.1211 28.7656 24.4023C27.7109 24.8242 25.25 24.7188 24.125 24.7188C22.9648 24.7188 20.5039 24.8242 19.4844 24.4023C18.7812 24.1211 18.2539 23.5938 17.9727 22.8906C17.5508 21.8711 17.6562 19.4102 17.6562 18.25C17.6562 17.125 17.5508 14.6641 17.9727 13.6094C18.2539 12.9414 18.7812 12.4141 19.4844 12.1328C20.5039 11.7109 22.9648 11.8164 24.125 11.8164C25.25 11.8164 27.7109 11.7109 28.7656 12.1328C29.4336 12.3789 29.9609 12.9414 30.2422 13.6094C30.6641 14.6641 30.5586 17.125 30.5586 18.25C30.5586 19.4102 30.6641 21.8711 30.2422 22.8906Z" fill="white"/>
<path d="M41.6118 22V12.6943H43.4907V22H41.6118ZM46.8661 22V12.6943H48.6943L52.5029 18.9087V12.6943H54.2485V22H52.3632L48.6117 15.9316V22H46.8661ZM57.3256 18.9722L59.1537 18.7944C59.2637 19.408 59.4859 19.8587 59.8202 20.1465C60.1587 20.4342 60.6136 20.5781 61.1849 20.5781C61.7901 20.5781 62.245 20.4512 62.5497 20.1973C62.8586 19.9391 63.0131 19.6387 63.0131 19.2959C63.0131 19.0758 62.9475 18.8896 62.8163 18.7373C62.6893 18.5807 62.465 18.4453 62.1434 18.3311C61.9234 18.2549 61.4219 18.1195 60.639 17.9248C59.6319 17.6751 58.9252 17.3683 58.5189 17.0044C57.9476 16.4924 57.662 15.8682 57.662 15.1318C57.662 14.6579 57.7953 14.2157 58.0619 13.8052C58.3327 13.3905 58.7199 13.0752 59.2235 12.8594C59.7313 12.6436 60.3428 12.5356 61.058 12.5356C62.2259 12.5356 63.104 12.7917 63.6922 13.3037C64.2847 13.8158 64.5957 14.4992 64.6254 15.354L62.7464 15.4365C62.666 14.9583 62.4925 14.6156 62.2259 14.4082C61.9636 14.1966 61.5679 14.0908 61.0389 14.0908C60.493 14.0908 60.0656 14.203 59.7567 14.4272C59.5578 14.5711 59.4584 14.7637 59.4584 15.0049C59.4584 15.2249 59.5515 15.4132 59.7377 15.5698C59.9746 15.7687 60.5502 15.9761 61.4642 16.1919C62.3783 16.4077 63.0533 16.632 63.4891 16.8647C63.9292 17.0933 64.272 17.4085 64.5174 17.8105C64.7671 18.2083 64.892 18.7013 64.892 19.2896C64.892 19.8228 64.7438 20.3221 64.4476 20.7876C64.1514 21.2531 63.7325 21.6001 63.1908 21.8286C62.6491 22.0529 61.9742 22.165 61.1659 22.165C59.9894 22.165 59.086 21.8942 58.4554 21.3525C57.8249 20.8066 57.4483 20.0132 57.3256 18.9722ZM70.1273 22V14.2686H67.366V12.6943H74.761V14.2686H72.0062V22H70.1273ZM84.9665 22H82.9226L82.1101 19.8862H78.3904L77.6223 22H75.6291L79.2537 12.6943H81.2405L84.9665 22ZM81.5071 18.3184L80.2248 14.8652L78.968 18.3184H81.5071ZM91.8586 18.5786V17.0107H95.9084V20.7178C95.5148 21.0986 94.9435 21.4351 94.1945 21.7271C93.4497 22.0148 92.6944 22.1587 91.9284 22.1587C90.9551 22.1587 90.1066 21.9556 89.383 21.5493C88.6594 21.1388 88.1156 20.5549 87.7516 19.7974C87.3877 19.0356 87.2057 18.2083 87.2057 17.3154C87.2057 16.3464 87.4089 15.4852 87.8151 14.7319C88.2214 13.9787 88.8159 13.401 89.5988 12.999C90.1955 12.6901 90.9382 12.5356 91.8268 12.5356C92.9821 12.5356 93.8835 12.779 94.5309 13.2656C95.1826 13.748 95.6016 14.4167 95.7878 15.2715L93.9216 15.6206C93.7904 15.1636 93.5428 14.8039 93.1789 14.5415C92.8192 14.2749 92.3685 14.1416 91.8268 14.1416C91.0059 14.1416 90.3521 14.4019 89.8654 14.9224C89.383 15.4429 89.1418 16.2152 89.1418 17.2393C89.1418 18.3438 89.3872 19.1732 89.8781 19.7275C90.369 20.2777 91.0122 20.5527 91.8078 20.5527C92.2014 20.5527 92.5949 20.4766 92.9885 20.3242C93.3862 20.1676 93.7269 19.9793 94.0104 19.7593V18.5786H91.8586ZM99.214 22V12.6943H103.169C104.163 12.6943 104.885 12.779 105.333 12.9482C105.786 13.1133 106.148 13.4095 106.419 13.8369C106.689 14.2643 106.825 14.7531 106.825 15.3032C106.825 16.0015 106.62 16.5791 106.209 17.0361C105.799 17.4889 105.185 17.7746 104.368 17.8931C104.775 18.13 105.109 18.3903 105.371 18.6738C105.638 18.9574 105.995 19.4609 106.444 20.1846L107.58 22H105.333L103.975 19.9751C103.492 19.2515 103.162 18.7965 102.984 18.6104C102.807 18.4199 102.618 18.2909 102.42 18.2231C102.221 18.1512 101.905 18.1152 101.474 18.1152H101.093V22H99.214ZM101.093 16.6299H102.483C103.384 16.6299 103.947 16.5918 104.172 16.5156C104.396 16.4395 104.571 16.3083 104.698 16.1221C104.825 15.9359 104.889 15.7031 104.889 15.4238C104.889 15.1107 104.804 14.8589 104.635 14.6685C104.47 14.4738 104.235 14.3511 103.93 14.3003C103.778 14.2791 103.321 14.2686 102.559 14.2686H101.093V16.6299ZM118.554 22H116.51L115.697 19.8862H111.978L111.21 22H109.216L112.841 12.6943H114.828L118.554 22ZM115.094 18.3184L113.812 14.8652L112.555 18.3184H115.094ZM121.091 22V12.6943H123.903L125.592 19.042L127.261 12.6943H130.08V22H128.334V14.6748L126.487 22H124.678L122.837 14.6748V22H121.091Z" fill="white"/>
<defs>
<linearGradient id="paint0_linear" x1="4.4396" y1="36" x2="20.0661" y2="-26.4907" gradientUnits="userSpaceOnUse">
<stop stop-color="#FFD600"/>
<stop offset="0.59375" stop-color="#FF0100"/>
<stop offset="1" stop-color="#D800B9"/>
</linearGradient>
</defs>
</svg>
