<svg width="128" height="39" viewBox="0 0 128 39" fill="none" xmlns="http://www.w3.org/2000/svg">
<rect y="0.396484" width="127.303" height="38.5118" rx="2.13955" fill="#0A66C2"/>
<path d="M33.0301 11.3096H18.5505C17.9112 11.3096 17.3846 11.8738 17.3846 12.5507V26.9551C17.3846 27.632 17.9112 28.1586 18.5505 28.1586H33.0301C33.6694 28.1586 34.2336 27.632 34.2336 26.9551V12.5507C34.2336 11.8738 33.6694 11.3096 33.0301 11.3096ZM22.4619 25.7516H19.9797V17.7408H22.4619V25.7516ZM21.2208 16.6125C20.3934 16.6125 19.754 15.9732 19.754 15.1834C19.754 14.3936 20.3934 13.7166 21.2208 13.7166C22.0106 13.7166 22.6499 14.3936 22.6499 15.1834C22.6499 15.9732 22.0106 16.6125 21.2208 16.6125ZM31.8266 25.7516H29.3068V21.8402C29.3068 20.9376 29.3068 19.7341 28.028 19.7341C26.7117 19.7341 26.5237 20.7496 26.5237 21.8026V25.7516H24.0415V17.7408H26.4108V18.8315H26.4485C26.7869 18.1921 27.6143 17.5152 28.8178 17.5152C31.3376 17.5152 31.8266 19.2076 31.8266 21.3513V25.7516Z" fill="white"/>
<path d="M43.9464 23.9551V15.6006H45.6471V22.5359H49.8761V23.9551H43.9464ZM52.6899 23.9551V15.5317H54.3907V23.9551H52.6899ZM57.6815 23.9551V15.5317H59.3363L62.7838 21.1568V15.5317H64.3639V23.9551H62.6574L59.2616 18.462V23.9551H57.6815ZM67.8385 23.9551V15.5317H69.5393V19.2722L72.9753 15.5317H75.2622L72.0905 18.8125L75.4345 23.9551H73.2339L70.9183 20.0019L69.5393 21.4097V23.9551H67.8385ZM77.9669 23.9551V15.5317H84.2126V16.9566H79.6676V18.824H83.8966V20.2433H79.6676V22.5359H84.3735V23.9551H77.9669ZM87.4574 15.5317H90.5659C91.2669 15.5317 91.8013 15.5853 92.169 15.6925C92.6631 15.8381 93.0864 16.0967 93.4388 16.4682C93.7912 16.8398 94.0594 17.2956 94.2432 17.8357C94.4271 18.372 94.519 19.0347 94.519 19.8238C94.519 20.5171 94.4329 21.1147 94.2605 21.6165C94.0498 22.2294 93.7491 22.7255 93.3584 23.1047C93.0634 23.392 92.6651 23.6161 92.1632 23.777C91.7879 23.8957 91.286 23.9551 90.6578 23.9551H87.4574V15.5317ZM89.1582 16.9566V22.5359H90.428C90.903 22.5359 91.2458 22.509 91.4565 22.4554C91.7323 22.3865 91.9602 22.2696 92.1403 22.1049C92.3241 21.9402 92.4735 21.6701 92.5884 21.2947C92.7034 20.9155 92.7608 20.4003 92.7608 19.7491C92.7608 19.0979 92.7034 18.598 92.5884 18.2494C92.4735 17.9009 92.3126 17.6289 92.1058 17.4335C91.8989 17.2382 91.6365 17.106 91.3186 17.0371C91.0811 16.9834 90.6157 16.9566 89.9224 16.9566H89.1582ZM97.5627 23.9551V15.5317H99.2635V23.9551H97.5627ZM102.554 23.9551V15.5317H104.209L107.657 21.1568V15.5317H109.237V23.9551H107.53L104.134 18.462V23.9551H102.554Z" fill="white"/>
</svg>
