<svg width="119" height="36" viewBox="0 0 119 36" fill="none" xmlns="http://www.w3.org/2000/svg">
<rect width="119" height="36" rx="2" fill="#0A66C2"/>
<path d="M30.875 10.375H17.3398C16.7422 10.375 16.25 10.9023 16.25 11.5352V25C16.25 25.6328 16.7422 26.125 17.3398 26.125H30.875C31.4727 26.125 32 25.6328 32 25V11.5352C32 10.9023 31.4727 10.375 30.875 10.375ZM20.9961 23.875H18.6758V16.3867H20.9961V23.875ZM19.8359 15.332C19.0625 15.332 18.4648 14.7344 18.4648 13.9961C18.4648 13.2578 19.0625 12.625 19.8359 12.625C20.5742 12.625 21.1719 13.2578 21.1719 13.9961C21.1719 14.7344 20.5742 15.332 19.8359 15.332ZM29.75 23.875H27.3945V20.2188C27.3945 19.375 27.3945 18.25 26.1992 18.25C24.9688 18.25 24.793 19.1992 24.793 20.1836V23.875H22.4727V16.3867H24.6875V17.4062H24.7227C25.0391 16.8086 25.8125 16.1758 26.9375 16.1758C29.293 16.1758 29.75 17.7578 29.75 19.7617V23.875Z" fill="white"/>
<path d="M41.0818 22V14.1904H42.6717V20.6733H46.6248V22H41.0818ZM49.2551 22V14.126H50.845V22H49.2551ZM53.9211 22V14.126H55.468L58.6906 19.3843V14.126H60.1677V22H58.5725L55.3981 16.8652V22H53.9211ZM63.4157 22V14.126H65.0055V17.6226L68.2174 14.126H70.3551L67.3903 17.1929L70.5163 22H68.4591L66.2946 18.3047L65.0055 19.6206V22H63.4157ZM72.8834 22V14.126H78.7218V15.458H74.4733V17.2036H78.4264V18.5303H74.4733V20.6733H78.8722V22H72.8834ZM81.755 14.126H84.6607C85.316 14.126 85.8155 14.1761 86.1593 14.2764C86.6212 14.4124 87.0168 14.6541 87.3463 15.0015C87.6757 15.3488 87.9263 15.7749 88.0982 16.2798C88.2701 16.7811 88.356 17.4006 88.356 18.1382C88.356 18.7863 88.2755 19.3449 88.1143 19.814C87.9174 20.3869 87.6363 20.8506 87.2711 21.2051C86.9954 21.4736 86.623 21.6831 86.1539 21.8335C85.803 21.9445 85.3339 22 84.7467 22H81.755V14.126ZM83.3448 15.458V20.6733H84.5318C84.9758 20.6733 85.2963 20.6483 85.4932 20.5981C85.7511 20.5337 85.9641 20.4245 86.1324 20.2705C86.3043 20.1165 86.4439 19.8641 86.5513 19.5132C86.6588 19.1587 86.7125 18.6771 86.7125 18.0684C86.7125 17.4596 86.6588 16.9924 86.5513 16.6665C86.4439 16.3407 86.2935 16.0864 86.1002 15.9038C85.9068 15.7212 85.6615 15.5977 85.3643 15.5332C85.1423 15.4831 84.7073 15.458 84.0592 15.458H83.3448ZM91.2012 22V14.126H92.7911V22H91.2012ZM95.8672 22V14.126H97.4141L100.637 19.3843V14.126H102.114V22H100.519L97.3442 16.8652V22H95.8672Z" fill="white"/>
</svg>
