<svg width="130" height="36" viewBox="0 0 130 36" fill="none" xmlns="http://www.w3.org/2000/svg">
<rect width="129.999" height="36" rx="2" fill="#010F1A"/>
<path d="M31.998 17.7946C31.998 19.1135 31.6912 20.3617 31.1456 21.4702C30.369 23.048 29.108 24.3441 27.5563 25.1653C26.395 25.7799 25.0705 26.1279 23.6653 26.1279C22.308 26.1279 21.0269 25.8033 19.8945 25.2282C19.232 24.8914 18.6201 24.4682 18.074 23.9738L18.0734 23.9733C18.074 23.9872 18.074 24.0006 18.074 24.0145C18.074 25.4075 16.9449 26.5371 15.5514 26.5371C15.4773 26.5371 15.4044 26.5337 15.332 26.5276V17.7946C15.332 17.5814 15.3404 17.3698 15.356 17.1599C15.5213 14.9653 16.5368 13.0078 18.074 11.6159C18.6201 11.1216 19.2314 10.6984 19.8945 10.3616C21.0269 9.78649 22.308 9.46191 23.6653 9.46191C25.0705 9.46191 26.395 9.80988 27.5563 10.4245C30.0216 11.7284 31.7541 14.2337 31.9746 17.1605C31.9902 17.3698 31.998 17.5814 31.998 17.7946Z" fill="#00C0EB"/>
<path d="M31.666 17.7946C31.666 19.1135 31.3592 20.3617 30.8136 21.4702C30.0369 23.048 28.7759 24.3441 27.2243 25.1653C26.0629 25.7799 24.7385 26.1279 23.3333 26.1279C21.9759 26.1279 20.6949 25.8033 19.5625 25.2282C18.9 24.8914 18.2881 24.4682 17.7419 23.9738L17.7414 23.9733C17.7419 23.9872 17.7419 24.0006 17.7419 24.0145C17.7419 25.4075 16.6129 26.5371 15.2194 26.5371C15.1453 26.5371 15.0724 26.5337 15 26.5276V17.7946C15 17.5814 15.0084 17.3698 15.0239 17.1599C15.1893 14.9653 16.2048 13.0078 17.7419 11.6159C18.2881 11.1216 18.8994 10.6984 19.5625 10.3616C20.6949 9.78649 21.9759 9.46191 23.3333 9.46191C24.7385 9.46191 26.0629 9.80988 27.2243 10.4245C29.6895 11.7284 31.4221 14.2337 31.6426 17.1605C31.6582 17.3698 31.666 17.5814 31.666 17.7946Z" fill="#00CEFE"/>
<path d="M24.3547 17.4232C24.9389 17.4232 25.4125 16.9496 25.4125 16.3654C25.4125 15.7812 24.9389 15.3076 24.3547 15.3076C23.7705 15.3076 23.2969 15.7812 23.2969 16.3654C23.2969 16.9496 23.7705 17.4232 24.3547 17.4232Z" fill="#010F1A"/>
<path d="M27.4872 17.3591C27.2517 15.4689 25.6394 14.0069 23.6858 14.0069C22.9303 14.0069 22.2255 14.2257 21.632 14.6038C21.3169 13.9919 20.6783 13.5732 19.9423 13.5732C19.9134 13.5732 19.8839 13.5738 19.8555 13.5749V17.9125C19.895 19.9941 21.5947 21.6693 23.6858 21.6693C25.802 21.6693 27.5167 19.954 27.5167 17.8384C27.5167 17.6758 27.5067 17.5161 27.4872 17.3591ZM24.6596 17.3435C24.2348 17.3435 23.8907 16.9994 23.8907 16.5746C23.8907 16.1498 24.2348 15.8058 24.6596 15.8058C25.0838 15.8058 25.4279 16.1498 25.4279 16.5746C25.4279 16.9989 25.0838 17.3435 24.6596 17.3435Z" fill="#00C0EB"/>
<path d="M27.206 17.1364C26.9705 15.2463 25.3582 13.7843 23.4046 13.7843C22.6491 13.7843 21.9443 14.0031 21.3508 14.3811C21.0357 13.7693 20.3971 13.3506 19.6611 13.3506C19.6321 13.3506 19.6026 13.3511 19.5742 13.3523V17.6898C19.6137 19.7714 21.3135 21.4467 23.4046 21.4467C25.5207 21.4467 27.2355 19.7314 27.2355 17.6158C27.2355 17.4532 27.2255 17.2934 27.206 17.1364ZM24.3783 17.1208C23.9535 17.1208 23.6095 16.7768 23.6095 16.352C23.6095 15.9272 23.9535 15.5831 24.3783 15.5831C24.8025 15.5831 25.1466 15.9272 25.1466 16.352C25.1466 16.7762 24.8025 17.1208 24.3783 17.1208Z" fill="white"/>
<path d="M39.2742 22V14.126H41.8255C42.7923 14.126 43.4225 14.1654 43.7161 14.2441C44.1673 14.3623 44.5451 14.6201 44.8494 15.0176C45.1538 15.4115 45.306 15.9217 45.306 16.5483C45.306 17.0317 45.2182 17.4382 45.0428 17.7676C44.8673 18.097 44.6435 18.3566 44.3714 18.5464C44.1029 18.7326 43.8289 18.8561 43.5496 18.917C43.1701 18.9922 42.6204 19.0298 41.9007 19.0298H40.8641V22H39.2742ZM40.8641 15.458V17.6924H41.7342C42.3608 17.6924 42.7798 17.6512 42.991 17.5688C43.2023 17.4865 43.367 17.3576 43.4852 17.1821C43.6069 17.0067 43.6678 16.8026 43.6678 16.5698C43.6678 16.2834 43.5836 16.047 43.4154 15.8608C43.2471 15.6746 43.034 15.5583 42.7762 15.5117C42.5864 15.4759 42.2051 15.458 41.6321 15.458H40.8641ZM47.8289 18.1113C47.8289 17.3092 47.9488 16.6361 48.1888 16.0918C48.3678 15.6908 48.6113 15.3309 48.9192 15.0122C49.2307 14.6935 49.5709 14.4572 49.9397 14.3032C50.4303 14.0955 50.996 13.9917 51.637 13.9917C52.7971 13.9917 53.7246 14.3516 54.4192 15.0713C55.1175 15.791 55.4666 16.7918 55.4666 18.0737C55.4666 19.3449 55.121 20.3403 54.43 21.0601C53.7389 21.7762 52.8151 22.1343 51.6585 22.1343C50.4876 22.1343 49.5566 21.778 48.8655 21.0654C48.1744 20.3493 47.8289 19.3646 47.8289 18.1113ZM49.4671 18.0576C49.4671 18.9492 49.673 19.626 50.0847 20.0879C50.4965 20.5462 51.0193 20.7754 51.6531 20.7754C52.2869 20.7754 52.8061 20.548 53.2107 20.0933C53.6189 19.6349 53.823 18.9492 53.823 18.0361C53.823 17.1338 53.6243 16.4606 53.2268 16.0166C52.833 15.5726 52.3084 15.3506 51.6531 15.3506C50.9978 15.3506 50.4697 15.5762 50.0686 16.0273C49.6676 16.4749 49.4671 17.1517 49.4671 18.0576ZM58.258 22V14.126H61.6042C62.4457 14.126 63.0562 14.1976 63.4358 14.3408C63.8189 14.4805 64.1251 14.7311 64.3542 15.0928C64.5834 15.4544 64.698 15.868 64.698 16.3335C64.698 16.9243 64.5243 17.4131 64.177 17.7998C63.8297 18.1829 63.3105 18.4246 62.6194 18.5249C62.9631 18.7254 63.246 18.9456 63.468 19.1855C63.6936 19.4255 63.9962 19.8516 64.3757 20.4639L65.3371 22H63.4358L62.2864 20.2866C61.8782 19.6743 61.5989 19.2894 61.4485 19.1318C61.2981 18.9707 61.1387 18.8615 60.9704 18.8042C60.8022 18.7433 60.5354 18.7129 60.1702 18.7129H59.8479V22H58.258ZM59.8479 17.4561H61.0242C61.7869 17.4561 62.2631 17.4238 62.4529 17.3594C62.6426 17.2949 62.7913 17.1839 62.8987 17.0264C63.0061 16.8688 63.0598 16.6719 63.0598 16.4355C63.0598 16.1706 62.9882 15.9575 62.845 15.7964C62.7053 15.6317 62.5066 15.5278 62.2488 15.4849C62.1199 15.467 61.7331 15.458 61.0886 15.458H59.8479V17.4561ZM69.5144 22V15.458H67.1779V14.126H73.4353V15.458H71.1042V22H69.5144ZM76.0172 22V14.126H81.4152V15.458H77.6071V17.3218H80.8942V18.6538H77.6071V22H76.0172ZM83.9488 18.1113C83.9488 17.3092 84.0688 16.6361 84.3087 16.0918C84.4877 15.6908 84.7312 15.3309 85.0392 15.0122C85.3507 14.6935 85.6909 14.4572 86.0597 14.3032C86.5502 14.0955 87.116 13.9917 87.757 13.9917C88.9171 13.9917 89.8445 14.3516 90.5392 15.0713C91.2374 15.791 91.5865 16.7918 91.5865 18.0737C91.5865 19.3449 91.241 20.3403 90.5499 21.0601C89.8588 21.7762 88.935 22.1343 87.7784 22.1343C86.6075 22.1343 85.6766 21.778 84.9855 21.0654C84.2944 20.3493 83.9488 19.3646 83.9488 18.1113ZM85.587 18.0576C85.587 18.9492 85.7929 19.626 86.2047 20.0879C86.6165 20.5462 87.1393 20.7754 87.7731 20.7754C88.4069 20.7754 88.9261 20.548 89.3307 20.0933C89.7389 19.6349 89.943 18.9492 89.943 18.0361C89.943 17.1338 89.7443 16.4606 89.3468 16.0166C88.9529 15.5726 88.4283 15.3506 87.7731 15.3506C87.1178 15.3506 86.5896 15.5762 86.1886 16.0273C85.7876 16.4749 85.587 17.1517 85.587 18.0576ZM94.4156 22V14.1904H96.0054V20.6733H99.9586V22H94.4156ZM102.589 22V14.126H104.179V22H102.589ZM106.917 18.1113C106.917 17.3092 107.036 16.6361 107.276 16.0918C107.455 15.6908 107.699 15.3309 108.007 15.0122C108.318 14.6935 108.659 14.4572 109.027 14.3032C109.518 14.0955 110.084 13.9917 110.725 13.9917C111.885 13.9917 112.812 14.3516 113.507 15.0713C114.205 15.791 114.554 16.7918 114.554 18.0737C114.554 19.3449 114.209 20.3403 113.518 21.0601C112.826 21.7762 111.903 22.1343 110.746 22.1343C109.575 22.1343 108.644 21.778 107.953 21.0654C107.262 20.3493 106.917 19.3646 106.917 18.1113ZM108.555 18.0576C108.555 18.9492 108.761 19.626 109.172 20.0879C109.584 20.5462 110.107 20.7754 110.741 20.7754C111.375 20.7754 111.894 20.548 112.298 20.0933C112.707 19.6349 112.911 18.9492 112.911 18.0361C112.911 17.1338 112.712 16.4606 112.314 16.0166C111.921 15.5726 111.396 15.3506 110.741 15.3506C110.085 15.3506 109.557 15.5762 109.156 16.0273C108.755 16.4749 108.555 17.1517 108.555 18.0576Z" fill="white"/>
</svg>
