<svg width="141" height="39" viewBox="0 0 141 39" fill="none" xmlns="http://www.w3.org/2000/svg">
<rect x="0.929688" y="0.396484" width="139.074" height="38.5118" rx="2.13955" fill="#010F1A"/>
<path d="M35.1647 19.4336C35.1647 20.8446 34.8366 22.1799 34.2529 23.3657C33.4221 25.0536 32.0731 26.4401 30.4132 27.3186C29.1708 27.9761 27.7539 28.3483 26.2506 28.3483C24.7986 28.3483 23.4282 28.0011 22.2167 27.3859C21.508 27.0255 20.8535 26.5729 20.2692 26.044L20.2686 26.0434C20.2692 26.0583 20.2692 26.0726 20.2692 26.0875C20.2692 27.5776 19.0613 28.7861 17.5706 28.7861C17.4914 28.7861 17.4134 28.7825 17.3359 28.776V19.4336C17.3359 19.2055 17.3449 18.9792 17.3615 18.7547C17.5384 16.4069 18.6248 14.3128 20.2692 12.8238C20.8535 12.295 21.5074 11.8423 22.2167 11.482C23.4282 10.8668 24.7986 10.5195 26.2506 10.5195C27.7539 10.5195 29.1708 10.8918 30.4132 11.5493C33.0504 12.9442 34.9039 15.6243 35.1397 18.7553C35.1564 18.9792 35.1647 19.2055 35.1647 19.4336Z" fill="#00C0EB"/>
<path d="M34.8054 19.4336C34.8054 20.8446 34.4772 22.1799 33.8935 23.3657C33.0627 25.0536 31.7137 26.4401 30.0538 27.3186C28.8114 27.9761 27.3945 28.3483 25.8913 28.3483C24.4392 28.3483 23.0688 28.0011 21.8574 27.3859C21.1486 27.0255 20.4941 26.5729 19.9098 26.044L19.9092 26.0434C19.9098 26.0583 19.9098 26.0726 19.9098 26.0875C19.9098 27.5776 18.702 28.7861 17.2112 28.7861C17.132 28.7861 17.054 28.7825 16.9766 28.776V19.4336C16.9766 19.2055 16.9855 18.9792 17.0022 18.7547C17.1791 16.4069 18.2654 14.3128 19.9098 12.8238C20.4941 12.295 21.148 11.8423 21.8574 11.482C23.0688 10.8668 24.4392 10.5195 25.8913 10.5195C27.3945 10.5195 28.8114 10.8918 30.0538 11.5493C32.691 12.9442 34.5445 15.6243 34.7803 18.7553C34.797 18.9792 34.8054 19.2055 34.8054 19.4336Z" fill="#00CEFE"/>
<path d="M26.991 19.0347C27.616 19.0347 28.1226 18.5281 28.1226 17.9031C28.1226 17.2781 27.616 16.7715 26.991 16.7715C26.366 16.7715 25.8594 17.2781 25.8594 17.9031C25.8594 18.5281 26.366 19.0347 26.991 19.0347Z" fill="#010F1A"/>
<path d="M30.3361 18.966C30.0842 16.944 28.3594 15.38 26.2695 15.38C25.4613 15.38 24.7073 15.614 24.0724 16.0184C23.7353 15.3639 23.0521 14.916 22.2648 14.916C22.2338 14.916 22.2022 14.9166 22.1719 14.9178V19.558C22.2142 21.7849 24.0325 23.577 26.2695 23.577C28.5333 23.577 30.3677 21.742 30.3677 19.4788C30.3677 19.3049 30.357 19.1339 30.3361 18.966ZM27.3112 18.9493C26.8567 18.9493 26.4887 18.5812 26.4887 18.1268C26.4887 17.6724 26.8567 17.3043 27.3112 17.3043C27.765 17.3043 28.1331 17.6724 28.1331 18.1268C28.1331 18.5806 27.765 18.9493 27.3112 18.9493Z" fill="#00C0EB"/>
<path d="M30.0275 18.7267C29.7756 16.7047 28.0508 15.1407 25.9609 15.1407C25.1527 15.1407 24.3987 15.3748 23.7638 15.7792C23.4267 15.1246 22.7436 14.6768 21.9562 14.6768C21.9252 14.6768 21.8937 14.6774 21.8633 14.6785V19.3187C21.9056 21.5456 23.7239 23.3377 25.9609 23.3377C28.2247 23.3377 30.0591 21.5027 30.0591 19.2395C30.0591 19.0656 30.0484 18.8947 30.0275 18.7267ZM27.0026 18.71C26.5481 18.71 26.1801 18.342 26.1801 17.8875C26.1801 17.4331 26.5481 17.065 27.0026 17.065C27.4564 17.065 27.8245 17.4331 27.8245 17.8875C27.8245 18.3414 27.4564 18.71 27.0026 18.71Z" fill="white"/>
<path d="M42.9491 23.9551V15.5317H45.6784C46.7126 15.5317 47.3868 15.5738 47.7009 15.6581C48.1836 15.7845 48.5877 16.0603 48.9133 16.4855C49.2389 16.9068 49.4017 17.4527 49.4017 18.123C49.4017 18.6402 49.3078 19.0749 49.1201 19.4273C48.9324 19.7798 48.693 20.0575 48.4019 20.2605C48.1146 20.4597 47.8216 20.5918 47.5228 20.657C47.1167 20.7374 46.5288 20.7776 45.7588 20.7776H44.6499V23.9551H42.9491ZM44.6499 16.9566V19.3469H45.5807C46.251 19.3469 46.6992 19.3029 46.9252 19.2148C47.1512 19.1266 47.3274 18.9887 47.4538 18.801C47.5841 18.6134 47.6492 18.395 47.6492 18.146C47.6492 17.8396 47.5592 17.5868 47.3791 17.3876C47.1991 17.1884 46.9712 17.0639 46.6954 17.0141C46.4924 16.9758 46.0844 16.9566 45.4715 16.9566H44.6499ZM52.1006 19.7951C52.1006 18.937 52.2289 18.2169 52.4856 17.6346C52.6771 17.2056 52.9376 16.8206 53.267 16.4797C53.6003 16.1388 53.9642 15.886 54.3587 15.7213C54.8835 15.4991 55.4888 15.388 56.1744 15.388C57.4155 15.388 58.4077 15.773 59.1508 16.5429C59.8977 17.3129 60.2712 18.3835 60.2712 19.7549C60.2712 21.1147 59.9016 22.1796 59.1623 22.9496C58.423 23.7157 57.4347 24.0987 56.1974 24.0987C54.9448 24.0987 53.9489 23.7176 53.2096 22.9553C52.4703 22.1892 52.1006 21.1358 52.1006 19.7951ZM53.8531 19.7376C53.8531 20.6914 54.0734 21.4154 54.5139 21.9096C54.9544 22.3999 55.5137 22.645 56.1917 22.645C56.8697 22.645 57.4251 22.4018 57.858 21.9153C58.2947 21.425 58.513 20.6914 58.513 19.7146C58.513 18.7493 58.3004 18.0292 57.8752 17.5542C57.4538 17.0792 56.8927 16.8417 56.1917 16.8417C55.4907 16.8417 54.9257 17.083 54.4966 17.5657C54.0676 18.0445 53.8531 18.7685 53.8531 19.7376ZM63.2575 23.9551V15.5317H66.8371C67.7373 15.5317 68.3904 15.6083 68.7965 15.7615C69.2063 15.9109 69.5338 16.179 69.779 16.5659C70.0242 16.9528 70.1467 17.3952 70.1467 17.8932C70.1467 18.5252 69.961 19.0481 69.5894 19.4618C69.2178 19.8717 68.6624 20.1303 67.9231 20.2375C68.2908 20.452 68.5934 20.6876 68.8309 20.9443C69.0723 21.2009 69.3959 21.6567 69.802 22.3118L70.8305 23.9551H68.7965L67.5668 22.1222C67.1302 21.4671 66.8314 21.0553 66.6705 20.8868C66.5096 20.7144 66.3391 20.5976 66.1591 20.5363C65.9791 20.4712 65.6937 20.4386 65.303 20.4386H64.9582V23.9551H63.2575ZM64.9582 19.0941H66.2166C67.0325 19.0941 67.5419 19.0596 67.745 18.9907C67.948 18.9217 68.107 18.803 68.2219 18.6344C68.3368 18.4659 68.3942 18.2552 68.3942 18.0024C68.3942 17.7189 68.3176 17.491 68.1644 17.3186C68.015 17.1424 67.8024 17.0313 67.5266 16.9854C67.3887 16.9662 66.975 16.9566 66.2855 16.9566H64.9582V19.0941ZM75.2992 23.9551V16.9566H72.7997V15.5317H79.4936V16.9566H76.9999V23.9551H75.2992ZM82.2558 23.9551V15.5317H88.0304V16.9566H83.9565V18.9504H87.473V20.3754H83.9565V23.9551H82.2558ZM90.7408 19.7951C90.7408 18.937 90.8691 18.2169 91.1258 17.6346C91.3173 17.2056 91.5778 16.8206 91.9072 16.4797C92.2405 16.1388 92.6044 15.886 92.9989 15.7213C93.5237 15.4991 94.1289 15.388 94.8146 15.388C96.0557 15.388 97.0478 15.773 97.7909 16.5429C98.5379 17.3129 98.9114 18.3835 98.9114 19.7549C98.9114 21.1147 98.5417 22.1796 97.8024 22.9496C97.0631 23.7157 96.0749 24.0987 94.8376 24.0987C93.585 24.0987 92.589 23.7176 91.8497 22.9553C91.1104 22.1892 90.7408 21.1358 90.7408 19.7951ZM92.4933 19.7376C92.4933 20.6914 92.7135 21.4154 93.154 21.9096C93.5946 22.3999 94.1538 22.645 94.8318 22.645C95.5098 22.645 96.0653 22.4018 96.4981 21.9153C96.9348 21.425 97.1532 20.6914 97.1532 19.7146C97.1532 18.7493 96.9406 18.0292 96.5154 17.5542C96.094 17.0792 95.5328 16.8417 94.8318 16.8417C94.1308 16.8417 93.5658 17.083 93.1368 17.5657C92.7078 18.0445 92.4933 18.7685 92.4933 19.7376ZM101.938 23.9551V15.6006H103.639V22.5359H107.868V23.9551H101.938ZM110.681 23.9551V15.5317H112.382V23.9551H110.681ZM115.311 19.7951C115.311 18.937 115.439 18.2169 115.696 17.6346C115.887 17.2056 116.148 16.8206 116.477 16.4797C116.811 16.1388 117.175 15.886 117.569 15.7213C118.094 15.4991 118.699 15.388 119.385 15.388C120.626 15.388 121.618 15.773 122.361 16.5429C123.108 17.3129 123.482 18.3835 123.482 19.7549C123.482 21.1147 123.112 22.1796 122.373 22.9496C121.633 23.7157 120.645 24.0987 119.408 24.0987C118.155 24.0987 117.159 23.7176 116.42 22.9553C115.681 22.1892 115.311 21.1358 115.311 19.7951ZM117.063 19.7376C117.063 20.6914 117.284 21.4154 117.724 21.9096C118.165 22.3999 118.724 22.645 119.402 22.645C120.08 22.645 120.635 22.4018 121.068 21.9153C121.505 21.425 121.723 20.6914 121.723 19.7146C121.723 18.7493 121.511 18.0292 121.086 17.5542C120.664 17.0792 120.103 16.8417 119.402 16.8417C118.701 16.8417 118.136 17.083 117.707 17.5657C117.278 18.0445 117.063 18.7685 117.063 19.7376Z" fill="white"/>
</svg>
