<svg width="117" height="36" viewBox="0 0 117 36" fill="none" xmlns="http://www.w3.org/2000/svg">
<rect width="117" height="36" rx="2" fill="#1DA1F2"/>
<path d="M32.1367 14.5938C32.8398 14.0664 33.4727 13.4336 33.9648 12.6953C33.332 12.9766 32.5938 13.1875 31.8555 13.2578C32.6289 12.8008 33.1914 12.0977 33.4727 11.2188C32.7695 11.6406 31.9609 11.957 31.1523 12.1328C30.4492 11.3945 29.5 10.9727 28.4453 10.9727C26.4062 10.9727 24.7539 12.625 24.7539 14.6641C24.7539 14.9453 24.7891 15.2266 24.8594 15.5078C21.8008 15.332 19.0586 13.8555 17.2305 11.6406C16.9141 12.168 16.7383 12.8008 16.7383 13.5039C16.7383 14.7695 17.3711 15.8945 18.3906 16.5625C17.793 16.5273 17.1953 16.3867 16.7031 16.1055V16.1406C16.7031 17.9336 17.9688 19.4102 19.6562 19.7617C19.375 19.832 19.0234 19.9023 18.707 19.9023C18.4609 19.9023 18.25 19.8672 18.0039 19.832C18.4609 21.3086 19.832 22.3633 21.4492 22.3984C20.1836 23.3828 18.6016 23.9805 16.8789 23.9805C16.5625 23.9805 16.2812 23.9453 16 23.9102C17.6172 24.9648 19.5508 25.5625 21.6602 25.5625C28.4453 25.5625 32.1367 19.9727 32.1367 15.0859C32.1367 14.9102 32.1367 14.7695 32.1367 14.5938Z" fill="white"/>
<path d="M45.4236 22V15.458H43.0872V14.126H49.3445V15.458H47.0134V22H45.4236ZM53.0329 22L51.153 14.126H52.7805L53.9675 19.5347L55.4069 14.126H57.2976L58.6779 19.626L59.8864 14.126H61.487L59.5749 22H57.8884L56.32 16.1133L54.757 22H53.0329ZM63.7951 22V14.126H65.3849V22H63.7951ZM70.2174 22V15.458H67.881V14.126H74.1383V15.458H71.8072V22H70.2174ZM78.482 22V15.458H76.1456V14.126H82.4029V15.458H80.0719V22H78.482ZM84.9742 22V14.126H90.8125V15.458H86.564V17.2036H90.5171V18.5303H86.564V20.6733H90.9629V22H84.9742ZM93.8564 22V14.126H97.2026C98.0441 14.126 98.6546 14.1976 99.0342 14.3408C99.4173 14.4805 99.7235 14.7311 99.9526 15.0928C100.182 15.4544 100.296 15.868 100.296 16.3335C100.296 16.9243 100.123 17.4131 99.7754 17.7998C99.4281 18.1829 98.9089 18.4246 98.2178 18.5249C98.5615 18.7254 98.8444 18.9456 99.0664 19.1855C99.292 19.4255 99.5946 19.8516 99.9741 20.4639L100.936 22H99.0342L97.8848 20.2866C97.4766 19.6743 97.1973 19.2894 97.0469 19.1318C96.8965 18.9707 96.7371 18.8615 96.5688 18.8042C96.4006 18.7433 96.1338 18.7129 95.7686 18.7129H95.4463V22H93.8564ZM95.4463 17.4561H96.6226C97.3853 17.4561 97.8615 17.4238 98.0513 17.3594C98.241 17.2949 98.3896 17.1839 98.4971 17.0264C98.6045 16.8688 98.6582 16.6719 98.6582 16.4355C98.6582 16.1706 98.5866 15.9575 98.4434 15.7964C98.3037 15.6317 98.105 15.5278 97.8472 15.4849C97.7183 15.467 97.3315 15.458 96.687 15.458H95.4463V17.4561Z" fill="white"/>
</svg>
