<svg width="126" height="39" viewBox="0 0 126 39" fill="none" xmlns="http://www.w3.org/2000/svg">
<rect width="125.163" height="38.5118" rx="2.13955" fill="#1DA1F2"/>
<path d="M34.3798 15.4263C35.132 14.8621 35.809 14.1852 36.3355 13.3954C35.6585 13.6962 34.8687 13.9219 34.0789 13.9971C34.9063 13.5082 35.5081 12.756 35.809 11.8158C35.0568 12.2671 34.1918 12.6056 33.3268 12.7936C32.5746 12.0038 31.5591 11.5525 30.4308 11.5525C28.2495 11.5525 26.4819 13.3202 26.4819 15.5015C26.4819 15.8024 26.5195 16.1032 26.5947 16.4041C23.3227 16.2161 20.3892 14.6365 18.4335 12.2671C18.095 12.8312 17.907 13.5082 17.907 14.2604C17.907 15.6143 18.5839 16.8178 19.6746 17.5324C19.0353 17.4948 18.3959 17.3443 17.8694 17.0435V17.0811C17.8694 18.9991 19.2233 20.5787 21.0285 20.9548C20.7277 21.03 20.3516 21.1053 20.0131 21.1053C19.7498 21.1053 19.5242 21.0676 19.2609 21.03C19.7498 22.6096 21.2166 23.7379 22.9466 23.7755C21.5927 24.8286 19.9003 25.4679 18.0574 25.4679C17.7189 25.4679 17.4181 25.4303 17.1172 25.3927C18.8472 26.521 20.9157 27.1603 23.1723 27.1603C30.4308 27.1603 34.3798 21.1805 34.3798 15.9528C34.3798 15.7647 34.3798 15.6143 34.3798 15.4263Z" fill="white"/>
<path d="M48.5921 23.5586V16.5601H46.0927V15.1352H52.7866V16.5601H50.2929V23.5586H48.5921ZM56.7324 23.5586L54.7213 15.1352H56.4623L57.7322 20.9212L59.2721 15.1352H61.2946L62.7713 21.0189L64.0641 15.1352H65.7764L63.7308 23.5586H61.9266L60.2489 17.2611L58.5768 23.5586H56.7324ZM68.2455 23.5586V15.1352H69.9462V23.5586H68.2455ZM75.1159 23.5586V16.5601H72.6165V15.1352H79.3104V16.5601H76.8167V23.5586H75.1159ZM83.9572 23.5586V16.5601H81.4577V15.1352H88.1516V16.5601H85.6579V23.5586H83.9572ZM90.9023 23.5586V15.1352H97.148V16.5601H92.6031V18.4275H96.832V19.8468H92.6031V22.1394H97.3089V23.5586H90.9023ZM100.404 23.5586V15.1352H103.984C104.884 15.1352 105.537 15.2118 105.943 15.365C106.353 15.5144 106.681 15.7825 106.926 16.1694C107.171 16.5563 107.294 16.9987 107.294 17.4967C107.294 18.1288 107.108 18.6516 106.736 19.0653C106.365 19.4752 105.809 19.7338 105.07 19.841C105.438 20.0555 105.74 20.2911 105.978 20.5478C106.219 20.8044 106.543 21.2603 106.949 21.9153L107.977 23.5586H105.943L104.714 21.7257C104.277 21.0706 103.978 20.6589 103.817 20.4903C103.656 20.3179 103.486 20.2011 103.306 20.1398C103.126 20.0747 102.841 20.0421 102.45 20.0421H102.105V23.5586H100.404ZM102.105 18.6976H103.363C104.179 18.6976 104.689 18.6631 104.892 18.5942C105.095 18.5252 105.254 18.4065 105.369 18.2379C105.484 18.0694 105.541 17.8587 105.541 17.6059C105.541 17.3224 105.465 17.0945 105.311 16.9221C105.162 16.7459 104.949 16.6348 104.673 16.5889C104.536 16.5697 104.122 16.5601 103.432 16.5601H102.105V18.6976Z" fill="white"/>
</svg>
