<svg width="161" height="44" viewBox="0 0 161 44" fill="none" xmlns="http://www.w3.org/2000/svg">
<rect width="161" height="44" rx="9" fill="#1DA1F2"/>
<path d="M42.8262 17.8594C43.6465 17.2441 44.3848 16.5059 44.959 15.6445C44.2207 15.9727 43.3594 16.2188 42.498 16.3008C43.4004 15.7676 44.0566 14.9473 44.3848 13.9219C43.5645 14.4141 42.6211 14.7832 41.6777 14.9883C40.8574 14.127 39.75 13.6348 38.5195 13.6348C36.1406 13.6348 34.2129 15.5625 34.2129 17.9414C34.2129 18.2695 34.2539 18.5977 34.3359 18.9258C30.7676 18.7207 27.5684 16.998 25.4355 14.4141C25.0664 15.0293 24.8613 15.7676 24.8613 16.5879C24.8613 18.0645 25.5996 19.377 26.7891 20.1562C26.0918 20.1152 25.3945 19.9512 24.8203 19.623V19.6641C24.8203 21.7559 26.2969 23.4785 28.2656 23.8887C27.9375 23.9707 27.5273 24.0527 27.1582 24.0527C26.8711 24.0527 26.625 24.0117 26.3379 23.9707C26.8711 25.6934 28.4707 26.9238 30.3574 26.9648C28.8809 28.1133 27.0352 28.8105 25.0254 28.8105C24.6562 28.8105 24.3281 28.7695 24 28.7285C25.8867 29.959 28.1426 30.6562 30.6035 30.6562C38.5195 30.6562 42.8262 24.1348 42.8262 18.4336C42.8262 18.2285 42.8262 18.0645 42.8262 17.8594Z" fill="white"/>
<path d="M62.7326 28V18.0889H66.2438V16.022H56.7228V18.0889H60.2257V28H62.7326ZM76.1619 19.8154H76.2366L78.511 28H80.8768L84.056 16.022H81.4578L79.5652 24.6963H79.4988L77.2576 16.022H75.1409L72.8997 24.6963H72.8333L70.949 16.022H68.3509L71.5218 28H73.8875L76.1619 19.8154ZM89.2758 28V16.022H86.769V28H89.2758ZM98.0401 28V18.0889H101.551V16.022H92.0303V18.0889H95.5333V28H98.0401ZM109.71 28V18.0889H113.221V16.022H103.7V18.0889H107.203V28H109.71ZM123.903 25.9248H118.474V22.9033H123.596V20.9775H118.474V18.0889H123.903V16.022H115.967V28H123.903V25.9248ZM129.579 17.981H131.754C132.999 17.981 133.779 18.728 133.779 19.8901C133.779 21.0771 133.041 21.7993 131.779 21.7993H129.579V17.981ZM129.579 23.6172H131.629L133.862 28H136.701L134.178 23.2437C135.556 22.7041 136.353 21.376 136.353 19.8403C136.353 17.4746 134.775 16.022 132.02 16.022H127.072V28H129.579V23.6172Z" fill="white"/>
</svg>
