<?xml version="1.0" standalone="no"?>
<!DOCTYPE svg PUBLIC "-//W3C//DTD SVG 20010904//EN"
 "http://www.w3.org/TR/2001/REC-SVG-20010904/DTD/svg10.dtd">
<svg version="1.0" xmlns="http://www.w3.org/2000/svg"
 width="1187.000000pt" height="1187.000000pt" viewBox="0 0 1187.000000 1187.000000"
 preserveAspectRatio="xMidYMid meet">
<metadata>
Created by potrace 1.11, written by Peter Selinger 2001-2013
</metadata>
<g transform="translate(0.000000,1187.000000) scale(0.100000,-0.100000)"
fill="#000000" stroke="none">
<path d="M5787 11864 c-1 -1 -67 -4 -147 -8 -136 -6 -168 -8 -295 -21 -718
-73 -1397 -272 -2030 -595 -803 -409 -1485 -983 -2026 -1705 -353 -473 -628
-988 -825 -1551 -43 -123 -100 -307 -120 -384 -33 -132 -67 -271 -70 -295 -3
-16 -9 -43 -14 -60 -5 -16 -13 -59 -19 -95 -6 -36 -13 -76 -16 -90 -5 -28 -14
-81 -20 -135 -3 -21 -7 -50 -9 -64 -4 -24 -9 -60 -21 -161 -2 -19 -7 -69 -10
-110 -4 -41 -9 -93 -12 -115 -10 -73 -11 -6455 -1 -6461 6 -4 67 -6 136 -5
187 2 295 14 422 47 8 2 34 8 57 14 76 18 236 82 331 131 384 200 673 521 832
924 37 94 86 271 94 340 1 6 5 38 10 72 7 52 13 143 15 226 1 14 19 3 74 -45
132 -114 178 -152 316 -257 358 -272 810 -535 1206 -701 83 -35 164 -69 182
-77 160 -68 573 -195 809 -247 200 -44 172 -39 424 -81 14 -2 48 -7 75 -10 28
-4 61 -8 75 -10 24 -4 82 -10 185 -20 146 -15 298 -20 555 -19 291 0 463 8
620 29 19 3 58 7 85 11 57 6 63 7 200 29 130 20 186 31 280 51 11 2 29 6 40 8
11 2 43 10 70 16 28 6 57 13 65 15 155 34 612 179 681 216 13 7 25 12 26 11 9
-5 277 110 433 185 746 360 1417 889 1956 1543 352 427 679 973 875 1464 22
56 49 121 59 146 10 25 33 88 50 140 17 52 36 104 41 115 20 45 131 452 145
529 3 17 10 51 15 76 6 25 13 56 15 70 3 14 13 70 24 125 10 55 21 120 24 145
3 25 8 62 11 83 11 79 14 104 21 177 3 41 8 91 10 110 23 220 23 764 -1 988
-2 20 -7 66 -10 102 -3 36 -7 76 -9 90 -3 14 -7 45 -10 70 -14 113 -20 146
-52 320 -74 396 -213 857 -350 1162 -18 43 -34 80 -34 83 0 13 -179 370 -242
484 -205 365 -433 690 -693 986 -253 288 -524 545 -800 760 -50 38 -94 73
-100 78 -33 26 -165 119 -255 179 -276 184 -608 366 -890 488 -41 18 -88 38
-105 45 -143 62 -633 228 -735 249 -14 3 -92 21 -175 40 -138 33 -315 68 -411
81 -21 3 -52 7 -69 10 -92 14 -113 17 -250 30 -33 3 -78 8 -100 10 -86 11
-609 26 -618 19z m-2194 -2720 c276 -48 513 -169 707 -364 53 -52 105 -106
115 -120 41 -51 125 -185 125 -197 0 -21 13 -16 95 32 183 109 398 201 605
260 69 19 136 38 150 41 43 9 233 42 280 49 74 10 490 14 555 5 33 -4 83 -11
110 -14 124 -15 291 -52 420 -92 50 -15 92 -29 95 -29 3 -1 12 -5 20 -8 8 -3
42 -16 75 -28 207 -74 529 -262 715 -418 114 -95 281 -260 346 -341 16 -19 31
-37 34 -40 14 -12 102 -133 157 -215 174 -259 302 -560 372 -868 16 -73 32
-152 35 -177 3 -25 8 -55 10 -67 25 -124 25 -622 1 -696 -2 -6 -6 -30 -9 -52
-18 -141 -54 -288 -109 -450 -63 -185 -63 -184 -148 -352 -136 -269 -281 -466
-503 -688 -299 -297 -640 -507 -1036 -638 -96 -32 -239 -70 -300 -81 -14 -2
-52 -9 -85 -14 -160 -28 -245 -35 -435 -36 -141 0 -291 8 -349 19 -9 1 -41 6
-71 10 -81 11 -293 60 -390 90 -733 232 -1344 785 -1645 1490 -42 99 -108 284
-119 337 -3 12 -14 59 -25 103 -11 44 -22 97 -25 119 -4 21 -8 41 -10 45 -2 3
-7 35 -10 71 -4 36 -11 94 -16 130 -4 36 -9 771 -9 1633 l-1 1568 99 -2 c54
-1 133 -7 174 -15z"/>
<path d="M6590 7609 c-84 -11 -99 -16 -177 -54 -177 -87 -297 -285 -292 -479
5 -153 55 -274 158 -375 294 -290 791 -152 895 249 21 79 15 219 -13 300 -82
240 -321 390 -571 359z"/>
</g>
</svg>
