<?xml version="1.0" encoding="utf-8"?>
<!-- Generator: Adobe Illustrator 23.0.1, SVG Export Plug-In . SVG Version: 6.00 Build 0)  -->
<svg version="1.1" id="Capa_1" xmlns="http://www.w3.org/2000/svg" xmlns:xlink="http://www.w3.org/1999/xlink" x="0px" y="0px"
	 viewBox="0 0 512 512" style="enable-background:new 0 0 512 512;" xml:space="preserve">
<style type="text/css">
	.st0{fill:#EDF5FA;}
	.st1{fill:#D0E7F2;}
	.st2{fill:#07B2CD;}
	.st3{fill:#00CEFE;}
	.st4{fill:#02C7DD;}
	.st5{fill:#00F2A6;}
	.st6{fill:#05E39C;}
	.st7{fill:#FE5CA7;}
	.st8{fill:#BD80E1;}
	.st9{fill:#AF66DA;}
	.st10{fill:#6CF5C2;}
</style>
<g>
	<g>
		<path class="st0" d="M512,114.2V412c0,18.8-15.3,34.1-34.1,34.1H34.1C15.3,446.1,0,430.8,0,412V114.2c0-18.1,14.6-32.7,32.7-32.7
			h446.6C497.4,81.5,512,96.1,512,114.2L512,114.2z"/>
		<path class="st1" d="M479.3,81.5h-21.8c18,0,32.7,14.6,32.7,32.7V412c0,18.8-15.3,34.1-34.1,34.1h21.8c18.9,0,34.1-15.3,34.1-34.1
			V114.2C512,96.1,497.4,81.5,479.3,81.5L479.3,81.5z"/>
	</g>
	<path class="st2" d="M512,98.6v15H0v-15c0-18.1,14.6-32.7,32.7-32.7h446.6C497.4,65.9,512,80.5,512,98.6L512,98.6z"/>
	<path class="st3" d="M512,98.6v15H0v-15c0-18.1,14.6-32.7,32.7-32.7h446.6C497.4,65.9,512,80.5,512,98.6L512,98.6z"/>
	<path class="st4" d="M479.3,65.9h-21.8c18,0,32.7,14.6,32.7,32.7v15H512v-15C512,80.5,497.4,65.9,479.3,65.9z"/>
	<path class="st5" d="M461,175v271.1H51V175c0-10.9,8.8-19.8,19.8-19.8h370.5C452.1,155.2,461,164.1,461,175z"/>
	<path class="st6" d="M441.2,155.2h-22.8c10.9,0,19.8,8.8,19.8,19.8v271.1H461V175C461,164.1,452.1,155.2,441.2,155.2z"/>
	<path class="st7" d="M426,213.7v42.5c0,9.9-8,17.9-17.9,17.9H103.9c-9.9,0-17.9-8-17.9-17.9v-42.5c0-9.9,8-17.9,17.9-17.9h304.2
		C418,195.7,426,203.8,426,213.7L426,213.7z"/>
	<path class="st8" d="M124.6,378.2h-21.8c-9.3,0-16.8-7.5-16.8-16.8v-26.1c0-9.3,7.5-16.8,16.8-16.8h21.8c9.3,0,16.8,7.5,16.8,16.8
		v26.1C141.5,370.7,133.9,378.2,124.6,378.2z"/>
	<path class="st9" d="M124.6,318.4h-20.5c9.3,0,16.8,7.5,16.8,16.8v26.1c0,9.3-7.5,16.8-16.8,16.8h20.5c9.3,0,16.8-7.5,16.8-16.8
		v-26.1C141.5,326,133.9,318.4,124.6,318.4z"/>
	<path class="st8" d="M426,213.7v42.5c0,9.9-8,17.9-17.9,17.9H141.5l64.5-78.4h202.2C418,195.7,426,203.8,426,213.7z"/>
	<path class="st9" d="M408.1,195.7h-22.5c9.9,0,17.9,8,17.9,17.9v42.5c0,9.9-8,17.9-17.9,17.9h22.5c9.9,0,17.9-8,17.9-17.9v-42.5
		C426,203.8,418,195.7,408.1,195.7L408.1,195.7z"/>
	<g>
		<g>
			<circle class="st8" cx="468.5" cy="90.3" r="7.6"/>
		</g>
		<g>
			<circle class="st4" cx="444.5" cy="90.3" r="7.6"/>
		</g>
		<g>
			<path class="st4" d="M271.4,98h-30.8c-4.3,0-7.7-3.5-7.7-7.7c0-4.3,3.5-7.7,7.7-7.7h30.8c4.3,0,7.7,3.5,7.7,7.7
				C279.1,94.5,275.7,98,271.4,98z"/>
		</g>
	</g>
	<g>
		<path class="st10" d="M326.6,422.9c-4.3,0-7.7-3.5-7.7-7.7V298.9c0-4.3,3.5-7.7,7.7-7.7c4.3,0,7.7,3.5,7.7,7.7v116.3
			C334.3,419.5,330.9,422.9,326.6,422.9z"/>
	</g>
	<g>
		<path class="st0" d="M290.2,329.6H174.1c-4.3,0-7.7-3.5-7.7-7.7c0-4.3,3.5-7.7,7.7-7.7h116.2c4.3,0,7.7,3.5,7.7,7.7
			C298,326.2,294.5,329.6,290.2,329.6z"/>
	</g>
	<g>
		<path class="st0" d="M290.2,358.5h-26.4c-4.3,0-7.7-3.5-7.7-7.7s3.5-7.7,7.7-7.7h26.4c4.3,0,7.7,3.5,7.7,7.7
			S294.5,358.5,290.2,358.5z"/>
	</g>
	<g>
		<path class="st0" d="M227.3,358.5h-53.3c-4.3,0-7.7-3.5-7.7-7.7s3.5-7.7,7.7-7.7h53.3c4.3,0,7.7,3.5,7.7,7.7
			S231.6,358.5,227.3,358.5z"/>
	</g>
	<g>
		<path class="st0" d="M417.8,329.6h-56.2c-4.3,0-7.7-3.5-7.7-7.7c0-4.3,3.5-7.7,7.7-7.7h56.2c4.3,0,7.7,3.5,7.7,7.7
			C425.5,326.2,422.1,329.6,417.8,329.6z"/>
	</g>
	<g>
		<path class="st0" d="M417.8,358.5h-56.2c-4.3,0-7.7-3.5-7.7-7.7s3.5-7.7,7.7-7.7h56.2c4.3,0,7.7,3.5,7.7,7.7
			S422.1,358.5,417.8,358.5z"/>
	</g>
	<g>
		<path class="st0" d="M290.2,387.3H174.1c-4.3,0-7.7-3.5-7.7-7.7c0-4.3,3.5-7.7,7.7-7.7h116.2c4.3,0,7.7,3.5,7.7,7.7
			C298,383.8,294.5,387.3,290.2,387.3z"/>
	</g>
	<g>
		<path class="st0" d="M290.2,416.1h-195c-4.3,0-7.7-3.5-7.7-7.7s3.5-7.7,7.7-7.7h195c4.3,0,7.7,3.5,7.7,7.7
			S294.5,416.1,290.2,416.1z"/>
	</g>
	<g>
		<path class="st0" d="M380.7,419.3c-2,0-4-0.8-5.5-2.3c-3-3-3-7.9,0-10.9l11.6-11.6L375.2,383c-3-3-3-7.9,0-10.9c3-3,7.9-3,10.9,0
			l17.1,17.1c1.4,1.4,2.3,3.4,2.3,5.5s-0.8,4-2.3,5.5l-17.1,17.1C384.6,418.6,382.6,419.3,380.7,419.3L380.7,419.3z"/>
	</g>
</g>
</svg>
